<svg width="1920" height="1002" viewBox="0 0 1920 1002" fill="none" xmlns="http://www.w3.org/2000/svg">
<path d="M-43.6692 940.445C23.2132 943.089 166.898 938.683 206.576 899.91C256.175 851.444 302.391 797.691 363.262 814.434C424.132 831.176 437.659 764.205 492.893 767.73C548.128 771.254 571.799 803.859 638.306 795.928C704.813 787.998 1004.66 745.7 1098.22 747.462C1191.78 749.225 1145.56 797.691 1181.63 832.939C1217.7 868.187 1243.63 876.999 1286.46 888.454C1329.3 899.91 1380.02 871.712 1374.39 920.178C1368.75 968.644 1461.19 1004.77 1518.67 999.486C1576.16 994.199 1676.49 962.475 1709.18 980.981C1741.87 999.486 1806.12 980.981 1829.79 940.445C1853.46 899.91 1855.72 851.444 1926.73 832.939C1997.75 814.434 2045.09 769.493 2062 747.462" stroke="#FFFCFA" stroke-width="3"/>
<path d="M-53 146.633C-34.2069 139.872 21.8719 122.116 95.8417 105.184C188.304 84.0177 187.176 18.7565 307.828 61.97C428.48 105.184 408.184 114.002 510.794 121.94C613.405 129.877 560.408 195.138 665.274 199.548C770.14 203.957 764.502 198.666 816.371 249.816C868.24 300.967 896.43 308.022 964.085 288.62C1031.74 269.218 1100.52 234.824 1143.37 249.816C1186.22 264.809 1303.49 269.218 1303.49 305.377C1303.49 341.535 1242.6 355.645 1303.49 375.047C1364.38 394.449 1293.34 445.6 1355.36 472.057C1417.38 498.515 1447.82 444.718 1463.61 375.047C1479.39 305.377 1452.33 241.879 1547.05 220.713C1641.77 199.548 1549.3 148.397 1607.94 105.184C1666.57 61.97 1773.69 93.7189 1826.69 61.97C1879.69 30.2211 1913.51 28.4573 1993.57 2" stroke="#E7BDBD" stroke-width="3"/>
<path d="M-44.1135 902.594C-11.3698 903.531 41.4356 902.266 91.8544 896.109C143.154 889.751 186.758 876.363 211.398 859.957C264.38 815.857 307.429 765.083 370.287 781.407C433.145 797.73 443.504 737.055 501.102 740.622C558.7 744.189 580.976 774.99 646.785 769.872C712.595 764.755 999.503 724.807 1091.83 725.562C1184.16 726.316 1143.42 770.837 1179.81 805.12C1199.03 822.619 1219.37 833.319 1234.94 842.699C1250.51 852.079 1263.98 857.577 1287.28 863.956C1330.97 875.79 1375.9 851.37 1373.48 898.788C1371.07 946.206 1460.55 978.053 1516.05 969.7C1571.55 961.347 1665.81 928.11 1701.46 944.727C1737.1 961.343 1793.89 941.283 1819.23 900.62C1844.56 859.957 1851.81 815.311 1921.97 796.175C1992.13 777.039 2038.83 734.154 2058.74 711.913" stroke="#FEF9F7" stroke-width="3"/>
<path d="M-44.5579 864.796C-12.5117 865.348 40.4574 863.258 92.0537 856.563C145.411 849.465 186.779 833.483 216.219 820.058C272.585 780.323 312.466 732.529 377.312 748.433C442.158 764.338 449.349 709.96 509.31 713.569C569.272 717.178 590.152 746.173 655.265 743.869C720.377 741.565 994.349 703.968 1085.44 703.715C1176.54 703.462 1141.27 744.036 1177.99 777.355C1198.39 794.728 1223.58 805.114 1238.37 815.833C1253.16 826.552 1262.91 832.48 1288.09 839.51C1332.64 851.723 1371.77 831.081 1372.58 877.451C1373.38 923.821 1459.91 951.386 1513.43 939.967C1566.95 928.548 1655.14 893.799 1693.74 908.526C1732.33 923.253 1781.66 901.639 1808.66 860.848C1835.66 820.058 1847.9 779.231 1917.2 759.465C1986.5 739.698 2032.56 698.869 2055.48 676.418" stroke="#FDF6F4" stroke-width="3"/>
<path d="M-45.0022 826.998C-13.6536 827.165 39.4792 824.251 92.2531 817.017C147.669 809.178 186.8 790.602 221.041 780.159C280.79 744.79 317.504 699.975 384.338 715.46C451.171 730.945 455.194 682.864 517.519 686.515C579.844 690.166 599.328 717.357 663.744 717.867C728.159 718.376 989.196 683.129 1079.06 681.868C1168.91 680.607 1139.13 717.235 1176.17 749.59C1197.75 766.838 1227.78 776.909 1241.79 788.967C1255.8 801.025 1261.84 807.384 1288.9 815.065C1334.31 827.656 1367.64 810.793 1371.67 856.115C1375.7 901.437 1459.28 924.72 1510.81 910.235C1562.34 895.75 1644.46 859.487 1686.02 872.325C1727.57 885.163 1769.43 861.994 1798.1 821.077C1826.76 780.159 1844 743.152 1912.44 722.755C1980.88 702.357 2026.29 663.585 2052.22 640.922" stroke="#FCF3F1" stroke-width="3"/>
<path d="M-45.4465 789.2C-14.7954 788.982 38.501 785.243 92.4524 777.471C149.926 768.891 186.821 747.722 225.862 740.259C288.995 709.256 322.542 667.421 391.363 682.487C460.184 697.552 461.04 655.768 525.728 659.461C590.416 663.155 608.505 688.541 672.223 691.864C735.942 695.187 984.042 662.29 1072.67 660.021C1161.29 657.752 1136.98 690.435 1174.34 721.825C1197.11 738.947 1231.99 748.704 1245.22 762.101C1258.45 775.498 1260.77 782.287 1289.71 790.62C1335.98 803.589 1363.51 790.504 1370.76 834.778C1378.01 879.052 1458.64 898.053 1508.19 880.502C1557.73 862.951 1633.79 825.176 1678.29 836.125C1722.8 847.074 1757.2 822.35 1787.53 781.305C1817.86 740.259 1840.09 707.072 1907.68 686.044C1975.26 665.017 2020.03 628.3 2048.97 605.426" stroke="#FAF0EE" stroke-width="3"/>
<path d="M-45.8909 751.402C-15.9373 750.799 37.5228 746.236 92.6518 737.924C152.184 728.604 186.842 704.841 230.684 700.36C297.2 673.722 327.58 634.867 398.388 649.513C469.197 664.159 466.885 628.672 533.936 632.407C600.988 636.143 617.681 659.725 680.702 665.861C743.724 671.997 978.888 641.45 1066.28 638.173C1153.67 634.896 1134.84 663.634 1172.52 694.059C1196.47 711.057 1236.2 720.499 1248.65 735.234C1261.1 749.97 1259.7 757.19 1290.52 766.174C1337.65 779.521 1359.39 770.215 1369.86 813.441C1380.33 856.667 1458 871.386 1505.56 850.769C1553.12 830.152 1623.12 790.864 1670.57 799.924C1718.03 808.983 1744.97 782.705 1776.97 741.533C1808.96 700.36 1836.19 670.992 1902.91 649.334C1969.64 627.675 2013.76 593.015 2045.71 569.93" stroke="#F9EDEC" stroke-width="3"/>
<path d="M-46.3352 713.604C-17.0792 712.616 36.5446 707.228 92.8511 698.378C154.441 688.318 186.862 661.961 235.505 660.46C305.405 638.188 332.617 602.313 405.414 616.54C478.21 630.767 472.73 601.576 542.145 605.353C611.56 609.131 626.857 630.908 689.182 639.858C751.506 648.808 973.734 620.611 1059.89 616.326C1146.05 612.042 1132.69 636.833 1170.7 666.294C1195.83 683.166 1240.4 692.294 1252.08 708.368C1263.75 724.443 1258.63 732.094 1291.33 741.728C1339.32 755.454 1355.26 749.927 1368.95 792.105C1382.64 834.283 1457.37 844.719 1502.94 821.036C1548.51 797.354 1612.44 756.552 1662.85 763.723C1713.27 770.894 1732.74 743.061 1766.4 701.761C1800.07 660.46 1832.28 634.913 1898.15 612.624C1964.02 590.334 2007.5 557.73 2042.45 534.435" stroke="#F8EAE9" stroke-width="3"/>
<path d="M-46.7795 675.806C-18.221 674.433 35.5664 668.221 93.0505 658.831C156.699 648.031 186.883 619.081 240.327 620.561C313.61 602.655 337.655 569.759 412.439 583.566C487.223 597.374 478.575 574.48 550.353 578.3C622.132 582.119 636.033 602.092 697.661 613.855C759.288 625.618 968.581 599.772 1053.51 594.479C1138.43 589.187 1130.55 610.033 1168.88 638.529C1195.19 655.276 1244.61 664.089 1255.5 681.502C1266.4 698.916 1257.56 706.997 1292.14 717.283C1340.99 731.387 1351.13 729.639 1368.05 770.768C1384.96 811.898 1456.73 818.052 1500.32 791.304C1543.91 764.556 1601.77 722.241 1655.13 727.522C1708.5 732.804 1720.51 703.417 1755.84 661.989C1791.17 620.561 1828.38 598.833 1893.38 575.913C1958.39 552.994 2001.23 522.445 2039.19 498.939" stroke="#F7E7E6" stroke-width="3"/>
<path d="M-47.2239 638.008C-19.3629 636.25 34.5882 629.213 93.2498 619.285C158.956 607.744 186.904 576.2 245.148 580.662C321.815 567.121 342.693 537.205 419.464 550.593C496.236 563.981 484.42 547.384 558.562 551.246C632.704 555.108 645.21 573.276 706.14 587.853C767.071 602.429 963.427 578.932 1047.12 572.632C1130.81 566.332 1128.4 583.232 1167.06 610.764C1194.54 627.385 1248.81 635.884 1258.93 654.636C1269.05 673.388 1256.5 681.901 1292.95 692.838C1342.66 707.32 1347 709.35 1367.14 749.432C1387.28 789.514 1456.09 791.386 1497.7 761.571C1539.3 731.757 1591.09 687.929 1647.41 691.322C1703.73 694.714 1708.28 663.773 1745.28 622.217C1782.27 580.662 1824.47 562.754 1888.62 539.203C1952.77 515.653 1994.97 487.16 2035.93 463.443" stroke="#F6E4E3" stroke-width="3"/>
<path d="M-47.6682 600.21C-20.5047 598.068 33.61 590.206 93.4492 579.739C161.214 567.458 186.925 533.321 249.97 540.763C330.02 531.588 347.731 504.651 426.49 517.62C505.249 530.589 490.266 520.289 566.771 524.193C643.276 528.097 654.386 544.46 714.62 561.85C774.853 579.24 958.273 558.094 1040.73 550.786C1123.19 543.477 1126.26 556.432 1165.23 582.999C1193.9 599.495 1253.02 607.679 1262.36 627.77C1271.7 647.862 1255.43 656.804 1293.76 668.393C1344.33 683.254 1342.87 689.062 1366.23 728.096C1389.59 767.13 1455.46 764.719 1495.07 731.839C1534.69 698.959 1580.42 653.618 1639.69 655.122C1698.97 656.625 1696.05 624.129 1734.71 582.446C1773.37 540.763 1820.56 526.674 1883.86 502.493C1947.15 478.312 1988.7 451.876 2032.67 427.948" stroke="#F5E1E0" stroke-width="3"/>
<path d="M-48.1125 562.412C-21.6466 559.884 32.6318 551.198 93.6486 540.193C163.471 527.171 186.946 490.44 254.791 500.863C338.225 496.054 352.768 472.097 433.515 484.647C514.262 497.196 496.111 493.193 574.979 497.139C653.848 501.085 663.562 515.644 723.099 535.847C782.635 556.05 953.12 537.254 1034.34 528.938C1115.57 520.622 1124.11 529.631 1163.41 555.233C1193.26 571.604 1257.23 579.474 1265.79 600.904C1274.35 622.334 1254.36 631.708 1294.57 643.947C1346 659.187 1338.75 668.773 1365.33 706.759C1391.91 744.745 1454.82 738.052 1492.45 702.106C1530.08 666.16 1569.75 619.306 1631.97 618.921C1694.2 618.535 1683.83 584.484 1724.15 542.674C1764.47 500.863 1816.66 490.595 1879.09 465.783C1941.53 440.971 1982.44 416.591 2029.42 392.452" stroke="#F3DEDD" stroke-width="3"/>
<path d="M-48.5566 524.614C-22.7882 521.701 31.6539 512.191 93.8482 500.646C165.729 486.884 186.967 447.56 259.613 460.964C346.43 460.52 357.806 439.543 440.541 451.673C523.275 463.804 501.956 466.097 583.188 470.085C664.42 474.073 672.739 486.828 731.578 509.844C790.418 532.861 947.966 516.415 1027.96 507.091C1107.95 497.767 1121.97 502.83 1161.59 527.468C1192.62 543.714 1261.43 551.269 1269.21 574.038C1277 596.807 1253.29 606.611 1295.38 619.502C1347.67 635.12 1334.62 648.485 1364.42 685.423C1394.22 722.36 1454.18 711.386 1489.83 672.374C1525.47 633.362 1559.07 584.995 1624.25 582.72C1689.43 580.445 1671.6 544.84 1713.58 502.902C1755.57 460.964 1812.75 454.515 1874.33 429.073C1935.91 403.63 1976.17 381.306 2026.16 356.957" stroke="#F2DBDA" stroke-width="3"/>
<path d="M-49.001 486.816C-23.9301 483.518 30.6757 473.183 94.0475 461.1C167.986 446.598 186.988 404.679 264.435 421.064C354.635 424.987 362.844 406.989 447.566 418.7C532.288 430.411 507.801 439.001 591.397 443.031C674.992 447.062 681.915 458.011 740.057 483.841C798.2 509.672 942.813 495.576 1021.57 485.244C1100.33 474.912 1119.82 476.03 1159.77 499.703C1191.98 515.823 1265.64 523.064 1272.64 547.172C1279.65 571.28 1252.22 581.514 1296.19 595.056C1349.34 611.052 1330.49 628.196 1363.51 664.086C1396.54 699.976 1453.55 684.719 1487.21 642.641C1520.87 600.563 1548.4 550.683 1616.53 546.519C1684.67 542.355 1659.37 505.196 1703.02 463.13C1746.67 421.064 1808.85 418.435 1869.57 392.362C1930.28 366.289 1969.9 346.021 2022.9 321.461" stroke="#F1D8D7" stroke-width="3"/>
<path d="M-49.4453 449.018C-25.072 445.336 29.6975 434.176 94.2469 421.554C170.244 406.311 187.009 361.799 269.256 381.165C362.84 389.453 367.882 374.435 454.591 385.726C541.301 397.018 513.647 411.905 599.605 415.978C685.564 420.05 691.091 429.195 748.537 457.839C805.982 486.482 937.659 474.736 1015.18 463.397C1092.71 452.058 1117.68 449.229 1157.95 471.938C1191.34 487.933 1269.84 494.859 1276.07 520.306C1282.3 545.753 1251.15 556.418 1297 570.611C1351.02 586.985 1326.36 607.908 1362.61 642.75C1398.85 677.591 1452.91 658.052 1484.58 612.908C1516.26 567.765 1537.72 516.372 1608.81 510.319C1679.9 504.266 1647.14 465.551 1692.45 423.358C1737.77 381.165 1804.94 382.356 1864.8 355.652C1924.66 328.948 1963.64 310.736 2019.64 285.965" stroke="#F0D5D4" stroke-width="3"/>
<path d="M-49.8896 411.22C-26.2138 407.153 28.7193 395.169 94.4462 382.008C172.501 366.025 187.03 318.919 274.078 341.266C371.045 353.919 372.92 341.881 461.617 352.753C550.314 363.626 519.492 384.809 607.814 388.924C696.136 393.039 700.268 400.379 757.016 431.836C813.764 463.293 932.505 453.897 1008.8 441.55C1085.09 429.203 1115.54 422.429 1156.13 444.173C1190.7 460.043 1274.05 466.654 1279.5 493.44C1284.95 520.226 1250.08 531.322 1297.81 546.165C1352.69 562.919 1322.24 587.62 1361.7 621.413C1401.17 655.207 1452.28 631.386 1481.96 583.176C1511.65 534.966 1527.05 482.06 1601.09 474.118C1675.13 466.176 1634.91 425.907 1681.89 383.587C1728.87 341.266 1801.03 346.276 1860.04 318.942C1919.04 291.608 1957.37 275.451 2016.38 250.47" stroke="#EFD2D2" stroke-width="3"/>
<path d="M-50.334 373.421C-27.3557 368.969 27.7411 356.161 94.6456 342.461C174.759 325.737 187.051 276.038 278.899 301.366C379.25 318.385 377.957 309.326 468.642 319.779C559.327 330.232 525.337 357.713 616.022 361.87C706.708 366.026 709.444 371.562 765.495 405.833C821.547 440.103 927.352 433.057 1002.41 419.702C1077.47 406.347 1113.39 395.627 1154.3 416.407C1190.06 432.151 1278.25 438.448 1282.92 466.573C1287.59 494.698 1249.01 506.224 1298.62 521.719C1354.36 538.851 1318.11 567.331 1360.8 600.076C1403.48 632.822 1451.64 604.718 1479.34 553.443C1507.04 502.167 1516.38 447.748 1593.37 437.917C1670.37 428.086 1622.68 386.262 1671.32 343.814C1719.97 301.366 1797.13 310.196 1855.27 282.231C1913.42 254.266 1951.11 240.166 2013.12 214.974" stroke="#EECFCF" stroke-width="3"/>
<path d="M-50.7783 335.624C-28.4975 330.787 26.7629 317.154 94.8449 302.915C177.016 285.451 187.072 233.158 283.721 261.467C387.455 282.852 382.995 276.773 475.668 286.807C568.34 296.84 531.182 330.618 624.231 334.817C717.28 339.015 718.62 342.747 773.975 379.831C829.329 416.914 922.198 412.219 996.021 397.856C1069.84 383.493 1111.25 368.827 1152.48 388.643C1189.42 404.262 1282.46 410.244 1286.35 439.708C1290.24 469.171 1247.94 481.129 1299.44 497.275C1356.03 514.785 1313.98 547.043 1359.89 578.74C1405.8 610.438 1451 578.052 1476.72 523.711C1502.43 469.369 1505.7 413.437 1585.65 401.717C1665.6 389.997 1610.45 346.619 1660.76 304.043C1711.07 261.467 1793.22 274.117 1850.51 245.522C1907.8 216.926 1944.84 204.882 2009.87 179.479" stroke="#ECCCCC" stroke-width="3"/>
<path d="M-51.2227 297.826C-29.6394 292.604 25.7847 278.146 95.0443 263.369C179.274 245.165 187.093 190.278 288.542 221.568C395.66 247.318 388.033 244.219 482.693 253.833C577.353 263.448 537.027 303.522 632.44 307.763C727.852 312.004 727.797 313.931 782.454 353.828C837.111 393.725 917.044 391.38 989.634 376.009C1062.22 360.638 1109.1 342.027 1150.66 360.877C1188.78 376.371 1286.67 382.039 1289.78 412.841C1292.89 443.644 1246.88 456.032 1300.25 472.829C1357.7 490.718 1309.85 526.754 1358.98 557.404C1408.11 588.053 1450.37 551.385 1474.1 493.978C1497.83 436.571 1495.03 379.126 1577.93 365.516C1660.83 351.907 1598.22 306.974 1650.2 264.271C1702.17 221.568 1789.32 238.038 1845.75 208.811C1902.17 179.585 1938.58 169.597 2006.61 143.983" stroke="#EBC9C9" stroke-width="3"/>
<path d="M-51.667 260.027C-30.7813 254.421 24.8065 239.139 95.2436 223.822C181.531 204.878 187.114 147.397 293.364 181.668C403.865 211.784 393.071 211.664 489.718 220.86C586.366 230.055 542.873 276.426 640.648 280.709C738.424 284.992 736.973 285.114 790.933 327.825C844.893 370.535 911.891 370.54 983.247 354.161C1054.6 337.783 1106.96 315.226 1148.84 333.112C1188.14 348.48 1290.87 353.833 1293.21 385.975C1295.54 418.116 1245.81 430.935 1301.06 448.384C1359.37 466.65 1305.72 506.465 1358.08 536.067C1410.43 565.668 1449.73 524.718 1471.47 464.245C1493.22 403.772 1484.35 344.814 1570.21 329.315C1656.07 313.817 1585.99 267.33 1639.63 224.499C1693.27 181.668 1785.41 201.958 1840.98 172.101C1896.55 142.244 1932.31 134.312 2003.35 108.487" stroke="#EAC6C6" stroke-width="3"/>
<path d="M-52.1113 222.229C-31.9231 216.238 23.8283 200.131 95.443 184.276C183.789 164.591 187.135 104.517 298.185 141.769C412.07 176.251 398.108 179.11 496.744 187.886C595.379 196.662 548.718 249.33 648.857 253.655C748.996 257.98 746.149 256.298 799.412 301.822C852.675 347.346 906.737 349.701 976.859 332.314C1046.98 314.928 1104.81 288.425 1147.02 305.347C1187.5 320.59 1295.08 325.628 1296.63 359.109C1298.19 392.589 1244.74 405.839 1301.87 423.938C1361.04 442.583 1301.6 486.177 1357.17 514.73C1412.74 543.284 1449.09 498.052 1468.85 434.513C1488.61 370.974 1473.68 310.502 1562.49 293.115C1651.3 275.727 1573.76 227.686 1629.07 184.727C1684.37 141.769 1781.51 165.878 1836.22 135.39C1890.93 104.903 1926.05 99.027 2000.09 72.9913" stroke="#E9C3C3" stroke-width="3"/>
<path d="M-52.5557 184.431C-33.065 178.055 22.8501 161.124 95.6423 144.73C186.046 124.304 187.155 61.6367 303.007 101.869C420.275 140.717 403.146 146.556 503.769 154.913C604.392 163.269 554.563 222.234 657.065 226.601C759.568 230.969 755.325 227.482 807.892 275.819C860.458 324.156 901.583 328.861 970.472 310.467C1039.36 292.073 1102.67 261.624 1145.19 277.581C1186.86 292.699 1299.28 297.423 1300.06 332.243C1300.84 367.062 1243.67 380.742 1302.68 399.493C1362.71 418.516 1297.47 465.888 1356.26 493.394C1415.06 520.899 1448.46 471.385 1466.23 404.78C1484 338.175 1463.01 276.191 1554.77 256.914C1646.53 237.637 1561.53 188.041 1618.5 144.955C1675.47 101.869 1777.6 129.798 1831.45 98.6802C1885.31 67.5619 1919.78 63.7421 1996.83 37.4956" stroke="#E8C0C0" stroke-width="3"/>
</svg>
