<svg width="15530" height="1073" viewBox="0 0 15530 1073" fill="none" xmlns="http://www.w3.org/2000/svg">
<path d="M1 312.541C79.4864 315.158 248.1 310.796 294.663 272.413C352.866 224.433 407.101 171.22 478.533 187.794C549.964 204.369 565.838 138.07 630.655 141.559C695.473 145.049 723.252 177.326 801.297 169.475C879.343 161.624 1231.21 119.751 1341 121.496C1450.79 123.24 1396.56 171.219 1438.89 206.114C1481.22 241.008 1511.64 249.731 1561.91 261.072C1612.18 272.413 1671.7 244.497 1665.09 292.477C1658.47 340.456 1766.94 376.223 1834.41 370.989C1901.87 365.754 2019.6 334.35 2057.96 352.669C2096.32 370.989 2171.72 352.669 2199.5 312.541C2227.28 272.413 2229.93 224.433 2313.26 206.114C2396.6 187.794 2452.16 143.305 2472 121.496C2496.17 113.878 2580.1 108.198 2722.5 146.412C2900.5 194.179 2882 266.923 2999 236.518C3116 206.114 3147 181.514 3271 157.63C3395 133.746 3441 124.338 3537.5 170.296C3634 216.254 3623 175.709 3793.5 206.114C3964 236.518 3963.5 180.56 4093 236.518C4222.5 292.477 4156.5 349.061 4316.5 391.039C4476.5 433.016 4398 552.796 4509.5 488.383C4621 423.969 4524.5 585.727 4618.5 488.383C4712.5 391.039 4595.5 388.559 4748 324.816C4900.5 261.072 4786 211.965 4943.5 236.518C5101 261.072 5101 262.573 5144 223.853C5187 185.132 5129 292.477 5207.5 292.477C5286 292.477 5266 316.03 5370 261.072C5474 206.114 5568 211.965 5634 236.518C5686.8 256.161 5904.67 261.072 6007 261.072C6048 307.08 6151.5 377.773 6237.5 292.477C6345 185.856 6463 219.51 6621.5 130.489C6780 41.4684 6887 -17.879 7061.5 8.17597C7236 34.2309 7405 63.9046 7497 130.489C7589 197.074 7650.5 180.56 7758 236.518C7865.5 292.477 7871 292.477 8024.5 292.477C8178 292.477 8255 249.184 8347 236.518C8439 223.853 8510.5 172.829 8654 204.674C8768.8 230.149 8896.5 273.824 8946 292.477C8926 312.786 8910.6 362.957 9009 401.171C9132 448.938 9009 503.943 9136.5 483.317C9264 462.69 9279 469.565 9297.5 401.171C9316 332.777 9392 268.363 9448.5 236.518C9505 204.674 9608.5 233.262 9651.5 154.735C9694.5 76.2083 9789 56.3052 9845.5 130.489C9902 204.674 9802.5 265.928 9892.5 292.477C9982.5 319.026 9912 425.055 10020.5 401.171C10129 377.287 10124 319.026 10256.5 377.287C10389 435.549 10309 353.404 10493 377.287C10677 401.171 10729.5 472.822 10795.5 401.171C10861.5 329.52 10866.5 401.171 10965.5 401.171C11064.5 401.171 11056 352.812 11159.5 322.644C11263 292.477 11282 438.806 11343.5 356.661C11405 274.515 11433.5 237.242 11509 204.674C11584.5 172.105 11584 88.8739 11712 130.489C11840 172.105 11806.5 150.392 11868 236.518C11929.5 322.644 11925.5 288.628 12090.5 322.644C12255.5 356.661 12227.5 390.677 12312.5 425.055C12397.5 459.433 12435 480.06 12515.5 452.557C12596 425.055 12407 387.782 12544 322.644C12681 257.507 12685.5 220.234 12704.5 175.362C12723.5 130.489 12747.5 131.213 12856 96.8351C12964.5 62.4571 12998 38.9352 13087.5 96.8351C13177 154.735 13186.5 106.244 13323.5 130.489C13460.5 154.735 13441.5 172.829 13607 204.674C13772.5 236.518 13843.5 204.674 13999.5 204.674C14155.5 204.674 14122 253.888 14245 175.362C14368 96.8351 14382.5 148.221 14533.5 96.8351C14684.5 45.449 14613.5 85.617 14788.5 130.489C14963.5 175.362 14972.5 195.989 15133.5 175.362C15294.5 154.735 15297 210.102 15491 152.202" stroke="#F3EEEA" stroke-width="3"/>
<path d="M1 742.049C23.0537 735.356 88.8621 717.778 175.666 701.016C284.17 680.063 282.847 615.457 424.432 658.236C566.017 701.016 542.199 709.746 662.612 717.604C783.025 725.461 720.834 790.067 843.894 794.432C966.954 798.798 960.337 793.559 1021.21 844.196C1082.07 894.833 1115.15 901.818 1194.55 882.611C1273.94 863.404 1354.66 829.354 1404.94 844.196C1455.22 859.038 1592.84 863.403 1592.84 899.199C1592.84 934.994 1521.38 948.963 1592.84 968.17C1664.29 987.377 1580.93 1038.01 1653.71 1064.21C1726.48 1090.4 1762.21 1037.14 1780.74 968.17C1799.26 899.199 1767.5 836.339 1878.65 815.386C1989.81 794.432 1881.3 743.795 1950.11 701.016C2018.92 658.236 2144.62 689.666 2206.81 658.236C2269.01 626.806 2308.7 625.06 2402.65 598.868C2429.43 629.134 2504.2 700.143 2589 742.049C2695 794.432 2610.5 773.479 2815 794.432C3019.5 815.386 3033 887.849 3181.5 794.432C3330 701.016 3259.5 640.775 3443 717.604C3626.5 794.432 3648 794.432 3753.5 794.432C3859 794.432 3816.5 743.795 3972 701.016C4127.5 658.236 4134.5 640.775 4212 717.604C4289.5 794.432 4247.5 744.668 4381.5 794.432C4515.5 844.196 4558 783.083 4685 742.049C4812 701.016 4833 659.982 5009.5 701.016C5186 742.049 5164.5 744.668 5270.5 794.432C5376.5 844.196 5496 930.628 5588 794.432C5680 658.236 5616.5 662.672 5750.5 598.868C5884.5 535.065 6040.5 496.721 6089.5 598.868C6138.5 701.016 6053.5 689.666 6202 742.049C6350.5 794.432 6470.5 748.16 6527 815.386C6583.5 882.611 6526.5 968.17 6696 968.17C6865.5 968.17 6921.5 987.377 6999.5 844.196C7077.5 701.016 6992.5 684.426 7176 658.236C7359.5 632.047 7451 659.982 7500.5 701.016C7550 742.049 7487 720.223 7585.5 844.196C7684 968.17 7662.5 976.469 7740.5 1020.34C7818.5 1064.21 7875 1020.34 7959.5 1020.34C8044 1020.34 8051.5 1037.14 8185.5 968.17C8319.5 899.199 8291.5 913.168 8376 815.386C8460.5 717.604 8538 658.236 8651 658.236C8764 658.236 8827 659.982 8919 701.016C9011 742.049 8926.5 776.971 9110 717.604C9293.5 658.236 9350 657.606 9420.5 598.868C9491 540.131 9631.5 461.128 9709.5 529.998C9771.9 585.094 9843.83 638.447 9872 658.236C9902 701.016 9984.1 792.337 10072.5 815.386C10183 844.196 10195.5 856.416 10317.5 799.233C10439.5 742.049 10317.5 693.158 10534.5 717.604C10751.5 742.049 10696.5 750.38 10822.5 759.065C10948.5 767.75 11020 783.083 11087 742.049C11154 701.016 11197 659.982 11311.5 701.016C11426 742.049 11307.5 754.269 11382.5 799.233C11457.5 844.196 11521 871.707 11588 815.386C11655 759.065 11646.5 742.056 11706 684.88C11765.5 627.704 11845 553.158 11919.5 619.019C11994 684.88 12042 750.741 12128.5 684.88C12215 619.019 12132.5 593.326 12266.5 570.528C12400.5 547.73 12416 498.877 12471.5 570.528C12527 642.179 12546.5 652.157 12661 684.88C12775.5 717.604 12665 739.161 12878 759.065C13091 778.968 12968.5 750.327 13126.5 717.604C13284.5 684.88 13272.5 718.897 13379 759.065C13485.5 799.233 13537 810.451 13608 784.758C13679 759.065 13693 733.371 13868 759.065C14043 784.758 14068 783.672 14158.5 759.065C14249 734.457 14273.5 676.143 14392.5 717.604C14511.5 759.065 14501 810.451 14620 784.758C14739 759.065 14739 717.604 14805.5 717.604C14872 717.604 14861.5 718.897 14931.5 759.065C15001.5 799.233 15047 783.08 15096 799.233C15145 815.386 15183.5 828.182 15236 830.716C15288.5 833.249 15291.5 851.912 15365 784.758C15438.5 717.604 15473.5 717.151 15529.5 701.016" stroke="#EECBCB" stroke-width="3"/>
<path d="M1 325.035C39.4247 325.962 101.392 324.71 160.558 318.615C220.758 312.321 271.927 299.067 300.842 282.826C363.016 239.169 413.534 188.905 487.298 205.065C561.062 221.224 573.219 161.159 640.81 164.69C708.4 168.221 734.541 198.712 811.769 193.646C888.997 188.58 1225.68 149.033 1334.03 149.78C1442.37 150.527 1394.56 194.601 1437.27 228.54C1479.98 262.479 1515.51 270.995 1563.38 283.5C1611.26 296.005 1664.54 270.085 1661.65 316.694C1658.75 363.303 1758.09 399.778 1825.8 396.04C1893.52 392.303 2007.34 359.857 2044.76 374.02C2082.18 388.183 2152.47 367.742 2184.22 328.527C2215.97 289.312 2213.33 241.206 2295.97 221.722C2378.62 202.238 2437.51 161.363 2459.37 139.096C2485.35 130.345 2567.18 124.852 2707.27 159.999C2878.07 206.933 2864.01 279.594 2979.48 252.633C3095.95 226.17 3121.45 201.744 3249.29 179.995C3377.12 158.247 3421.57 152.737 3520.55 192.058C3573.57 209.494 3590.57 207.914 3628.48 211.01C3666.38 214.106 3705.38 211.692 3791.6 226.17C3959 255.127 3956.5 199.422 4087.24 250.679C4217.98 301.935 4155.45 354.994 4311.52 398.631C4467.6 442.268 4390.83 553.974 4503.4 494.998C4615.98 436.021 4526.1 587.166 4621.67 492.503C4717.24 397.841 4606.81 393.526 4760.45 334.771C4914.1 276.017 4804.02 229.373 4959.07 255.127C5114.12 280.881 5119.81 286.427 5165.14 243.065C5210.48 199.702 5152.21 302.146 5233.36 299.108C5314.5 296.07 5302.88 316.676 5404.26 269.199C5505.64 221.722 5591.12 226.754 5661.05 252.633C5718.4 273.835 5931.61 276.308 6031.76 279.509C6073.5 326.528 6169.36 397.929 6259.33 316.694C6369.79 215.15 6484.83 248.117 6639.5 156.517C6794.17 64.9168 6892.02 7.60546 7066.95 31.1726C7241.88 54.7397 7407.19 84.3306 7497.17 149.699C7587.14 215.067 7642.71 198.3 7749.79 257.497C7856.86 316.694 7861.07 317.089 8010.98 319.178C8087.79 321.267 8145.36 308.87 8196.94 297.055C8248.52 285.239 8289.12 272.716 8339.31 263.4C8433.31 248.054 8500.07 200.124 8640.76 225.796C8754.12 245.403 8879.43 284.171 8931.95 301.935C8918.29 321.277 8906.62 369.143 9004.71 407.491C9126.24 454.937 9005.07 508.986 9135.24 486.514C9265.4 464.043 9282.38 470.561 9303.36 402.627C9324.33 334.692 9403.4 269.584 9460.93 242.535C9517.71 214.83 9619.71 244.597 9662 170.753C9704.38 98.0024 9798.29 83.3957 9856.31 155.145C9915.38 227.168 9821.21 286.087 9912.74 308.649C10004.3 331.211 9931.31 429.863 10045 408.281C10158.6 386.698 10151.3 331.608 10283.5 387.509C10415.6 443.41 10342.9 365.906 10521.3 386.698C10699.7 407.491 10751.8 473.776 10820.1 407.491C10888.4 341.206 10887.5 410.027 10985.4 412.168C11083.2 414.309 11078.1 369.563 11179.9 338.15C11281.7 306.736 11299.4 445.288 11360.8 364.331C11392.9 322.492 11418.1 290.509 11444.7 271.114C11471.4 251.72 11498.4 238.227 11538.5 219.582C11614.5 185.428 11610.1 104.937 11738.4 143.485C11866.7 182.033 11835.5 159.028 11896.7 244.465C11958 329.902 11955.1 297.981 12117.7 331.935C12280.3 365.89 12248.3 399.313 12339.4 433.001C12430.5 466.69 12460.4 484.971 12544.6 457.22C12628.8 429.469 12448.2 395.591 12583.8 335.468C12719.3 275.345 12726 240.381 12747.5 196.422C12769 152.463 12792.5 151.929 12904.2 120.411C13015.9 88.8937 13049 66.4402 13138.5 120.411C13228 174.382 13238.3 125.423 13374.4 150.489C13510.5 175.554 13492 195.233 13655.2 224.338C13818.5 253.443 13886.1 221.14 14037.9 221.14C14189.6 221.14 14157.2 268.073 14277.7 195.198C14398.2 122.324 14414.1 170.494 14560.3 122.324C14706.4 74.154 14640.6 113.019 14809.8 155.875C14979 198.731 14987.7 219.264 15144.5 196.422C15301.4 173.58 15305.4 226.288 15492.8 170.377" stroke="#F3ECE9" stroke-width="3"/>
<path d="M1 337.565C38.6061 338.111 100.765 336.042 161.314 329.414C223.929 322.387 272.473 306.566 307.022 293.276C373.166 253.94 419.968 206.626 496.064 222.371C572.16 238.115 580.599 184.283 650.964 187.856C721.328 191.429 745.831 220.133 822.241 217.852C898.65 215.572 1220.16 178.352 1327.05 178.101C1433.95 177.85 1392.57 218.017 1435.66 251.002C1478.74 283.986 1519.38 292.295 1564.86 305.964C1610.34 319.634 1657.39 295.707 1658.21 340.947C1659.03 386.186 1749.23 423.369 1817.2 421.127C1885.17 418.886 1995.09 385.4 2031.56 395.406C2068.03 405.413 2133.23 382.851 2168.95 344.549C2204.66 306.247 2196.72 258.014 2278.68 237.365C2360.63 216.716 2422.87 179.457 2446.74 156.732C2474.53 146.847 2554.25 141.541 2692.04 173.621C2855.64 219.722 2846.02 292.301 2959.95 268.783C3075.9 246.262 3095.9 222.01 3227.57 202.396C3359.24 182.783 3402.14 181.171 3503.6 213.855C3561.39 225.749 3574.02 221.236 3619.2 228.019C3664.39 234.801 3702.51 232.508 3789.69 246.262C3954 273.771 3949.5 218.32 4081.48 264.875C4213.45 311.429 4154.4 360.962 4306.55 406.258C4458.69 451.555 4383.67 555.188 4497.31 501.649C4610.95 448.109 4527.69 588.641 4624.83 496.66C4721.98 404.679 4618.12 398.528 4772.9 344.763C4927.69 290.998 4822.05 246.817 4974.64 273.771C5127.24 300.726 5138.62 310.316 5186.29 262.312C5233.95 214.308 5175.43 311.852 5259.21 305.775C5343 299.699 5339.76 317.357 5438.52 277.361C5537.29 237.365 5614.24 241.579 5688.1 268.783C5750.01 291.543 5958.56 291.58 6056.52 297.982C6099 346.011 6187.21 418.12 6281.17 340.947C6394.57 244.48 6506.67 276.759 6657.5 182.58C6808.33 88.4007 6897.05 33.1255 7072.4 54.2047C7247.76 75.284 7409.38 104.792 7497.33 168.943C7585.29 233.095 7634.93 216.075 7741.57 278.511C7848.21 340.947 7851.14 341.737 7997.45 345.915C8074.32 350.093 8131.84 336.123 8185.07 324.898C8238.3 313.673 8277.24 302.616 8331.62 290.318C8427.62 272.29 8489.64 227.455 8627.52 246.955C8739.44 260.692 8862.36 294.553 8917.9 311.429C8910.57 329.804 8902.64 375.364 9000.43 413.846C9120.48 460.972 9001.14 514.064 9133.98 489.748C9266.81 465.431 9285.76 471.592 9309.21 404.118C9332.67 336.643 9414.81 270.84 9473.36 248.587C9530.42 225.022 9630.91 255.969 9672.5 186.806C9714.26 119.832 9807.58 110.522 9867.12 179.836C9928.76 249.699 9839.93 306.283 9932.98 324.857C10026 343.432 9950.62 434.707 10069.5 415.426C10188.3 396.145 10178.5 344.225 10310.4 397.765C10442.3 451.306 10376.7 378.444 10549.6 396.145C10722.4 413.846 10774 474.765 10844.6 413.846C10915.3 352.927 10908.5 418.918 11005.2 423.2C11101.9 427.482 11100.3 386.349 11200.3 353.69C11300.3 321.032 11316.7 451.805 11378 372.038C11411.5 329.432 11439.4 295.321 11468.5 280.189C11497.5 265.057 11525.6 255.532 11568 234.526C11644.5 198.786 11636.2 121.035 11764.8 156.516C11893.4 191.997 11864.5 167.7 11925.5 252.447C11986.4 337.195 11984.6 307.368 12144.8 341.261C12305 375.154 12269.2 407.984 12366.4 440.984C12463.5 473.983 12485.8 489.918 12573.7 461.918C12661.6 433.918 12489.4 403.435 12623.5 348.327C12757.6 293.218 12766.6 260.563 12790.5 217.518C12814.5 174.472 12837.5 172.68 12952.4 144.023C13067.2 115.366 13099.9 93.9808 13189.5 144.023C13279.1 194.065 13290 144.638 13425.3 170.523C13560.6 196.408 13542.4 217.673 13703.5 244.038C13864.5 270.403 13928.8 237.642 14076.3 237.642C14223.7 237.642 14192.4 282.293 14310.4 215.071C14428.3 147.848 14445.8 192.802 14587.1 147.848C14728.4 102.895 14667.8 140.456 14831.1 181.296C14994.5 222.136 15002.9 242.576 15155.5 217.518C15308.2 192.46 15313.8 242.51 15494.7 188.588" stroke="#F3EBE7" stroke-width="3"/>
<path d="M1 350.134C37.7876 350.3 100.139 347.415 162.069 340.253C227.099 332.493 273.019 314.104 313.201 303.765C383.316 268.752 426.401 224.387 504.83 239.717C583.259 255.046 587.98 207.448 661.118 211.062C734.256 214.677 757.121 241.595 832.713 242.099C908.304 242.603 1214.63 207.71 1320.08 206.462C1425.53 205.213 1390.57 241.474 1434.04 273.504C1477.51 305.533 1523.24 313.634 1566.33 328.468C1609.41 343.302 1650.23 321.37 1654.77 365.24C1659.31 409.109 1740.37 447 1808.59 446.255C1876.82 445.51 1982.83 410.984 2018.36 416.833C2053.89 422.682 2113.98 398 2153.67 360.611C2193.36 323.222 2180.12 274.863 2261.38 253.049C2342.65 231.236 2408.22 197.591 2434.12 174.408C2463.72 163.389 2541.33 158.271 2676.81 187.284C2833.2 232.551 2828.03 305.047 2940.43 284.972C3055.86 266.394 3070.36 242.315 3205.86 224.837C3341.36 207.359 3382.71 209.646 3486.64 235.693C3549.21 242.044 3557.46 234.598 3609.93 245.068C3662.39 255.537 3699.64 253.364 3787.79 266.394C3949 292.456 3942.5 237.258 4075.71 279.11C4208.93 320.963 4153.36 366.97 4301.57 413.926C4449.79 460.882 4376.5 556.442 4491.21 508.339C4605.93 460.237 4529.29 590.156 4628 500.856C4726.71 411.556 4629.43 403.569 4785.36 354.794C4941.29 306.018 4840.07 264.301 4990.21 292.456C5140.36 320.611 5157.43 334.245 5207.43 281.599C5257.43 228.954 5198.64 321.597 5285.07 312.482C5371.5 303.367 5376.64 318.078 5472.79 285.564C5568.93 253.049 5637.36 256.443 5715.14 284.972C5781.61 309.292 5985.5 306.891 6081.29 316.495C6124.5 365.534 6205.07 438.351 6303 365.24C6419.36 273.85 6528.5 305.441 6675.5 208.683C6822.5 111.925 6902.07 58.6856 7077.86 77.277C7253.64 95.8685 7411.57 125.294 7497.5 188.228C7583.43 251.163 7627.14 233.89 7733.36 299.565C7839.57 365.24 7841.21 366.425 7983.93 372.692C8060.86 378.959 8118.32 363.415 8173.2 352.781C8228.07 342.147 8265.36 332.556 8323.93 317.275C8421.93 296.566 8479.21 254.827 8614.29 268.153C8724.76 276.021 8845.29 304.975 8903.86 320.963C8902.86 338.371 8898.66 381.625 8996.14 420.241C9114.71 467.047 8997.21 519.183 9132.71 493.021C9268.21 466.86 9289.14 472.664 9315.07 405.649C9341 338.634 9426.21 272.136 9485.79 254.679C9543.13 235.255 9642.12 267.38 9683 202.899C9724.14 141.702 9816.87 137.688 9877.93 204.567C9942.14 272.269 9858.64 326.518 9953.21 341.106C10047.8 355.693 9969.93 439.591 10093.9 422.611C10217.9 405.632 10205.8 356.883 10337.4 408.062C10468.9 459.242 10410.6 391.022 10577.9 405.632C10745.1 420.241 10796.3 475.795 10869.2 420.241C10942.1 364.688 10929.5 427.849 11025.1 434.272C11120.6 440.696 11122.4 403.175 11220.7 369.271C11319 335.367 11334.1 458.363 11395.3 379.784C11430.1 336.411 11460.8 300.172 11492.2 289.303C11523.6 278.434 11552.8 272.877 11597.5 249.51C11674.6 212.185 11662.4 137.174 11791.2 169.587C11920.1 202.001 11893.6 176.411 11954.2 260.469C12014.9 344.528 12014.2 316.796 12172 350.628C12329.8 384.459 12290 416.696 12393.3 449.006C12496.6 481.316 12511.2 494.905 12602.8 466.656C12694.4 438.408 12530.6 411.319 12663.3 361.225C12795.9 311.132 12807.1 280.786 12833.6 238.654C12860 196.521 12882.6 193.471 13000.6 167.675C13118.6 141.878 13150.9 121.562 13240.5 167.675C13330.1 213.788 13341.8 163.893 13476.2 190.598C13610.6 217.303 13592.9 240.153 13751.7 263.778C13910.6 287.403 13971.4 254.185 14114.6 254.185C14257.9 254.185 14227.6 296.553 14343.1 234.983C14458.5 173.413 14477.4 215.151 14613.9 173.413C14750.3 131.675 14694.9 167.933 14852.4 206.757C15009.9 245.581 15018.1 265.927 15166.6 238.654C15315.1 211.38 15322.2 258.773 15496.5 206.839" stroke="#F2E9E6" stroke-width="3"/>
<path d="M1 362.751C36.969 362.535 99.5123 358.834 162.824 351.139C230.27 342.646 273.565 321.69 319.381 314.302C393.466 283.61 432.834 242.195 513.595 257.109C594.357 272.024 595.361 230.659 671.272 234.315C747.183 237.971 768.411 263.103 843.184 266.392C917.958 269.682 1209.1 237.115 1313.11 234.869C1417.11 232.623 1388.58 264.978 1432.42 296.052C1476.27 327.127 1527.11 335.02 1567.8 351.019C1608.49 367.018 1643.07 347.08 1651.33 389.579C1659.58 432.078 1731.51 470.677 1799.99 471.429C1868.46 472.181 1970.57 436.614 2005.16 438.306C2039.74 439.999 2094.73 413.196 2138.39 376.72C2182.05 340.244 2163.52 291.758 2244.09 268.78C2324.66 245.801 2393.58 215.772 2421.49 192.131C2452.9 179.978 2528.41 175.047 2661.58 200.993C2810.77 245.427 2810.04 317.84 2920.9 301.209C3035.81 286.573 3044.81 262.668 3184.14 247.325C3323.48 231.981 3363.29 238.167 3469.69 257.578C3537.04 258.386 3540.91 248.007 3600.65 262.163C3660.4 276.319 3696.77 274.267 3785.88 286.573C3944 311.187 3935.5 256.242 4069.95 293.393C4204.4 330.544 4152.31 373.025 4296.6 421.641C4440.88 470.256 4369.33 557.742 4485.12 515.077C4600.9 472.412 4530.88 591.717 4631.17 505.099C4731.45 418.481 4640.74 408.658 4797.81 364.872C4954.88 321.086 4858.1 281.831 5005.79 311.187C5153.48 340.542 5176.24 358.221 5228.57 300.934C5280.9 243.646 5221.86 331.389 5310.93 319.236C5400 307.083 5413.52 318.847 5507.05 293.813C5600.57 268.78 5660.48 271.355 5742.19 301.209C5813.22 327.088 6012.44 322.25 6106.05 335.055C6150 385.104 6222.93 458.629 6324.83 389.579C6444.14 303.267 6550.33 334.17 6693.5 234.833C6836.67 135.496 6907.1 84.2924 7083.31 100.396C7259.52 116.5 7413.76 145.842 7497.67 207.56C7581.57 269.278 7619.36 251.752 7725.14 320.666C7830.93 389.579 7831.29 391.16 7970.4 399.516C8047.39 407.872 8104.8 390.754 8161.32 380.711C8217.85 370.668 8253.48 362.544 8316.24 344.28C8416.24 320.889 8468.79 282.245 8601.05 289.399C8710.08 291.397 8828.21 315.444 8889.81 330.544C8895.14 346.985 8894.68 387.933 8991.86 426.683C9108.95 473.168 8993.29 524.348 9131.45 496.342C9269.62 468.336 9292.52 473.782 9320.93 407.227C9349.33 340.672 9437.62 273.48 9498.21 260.818C9555.84 245.534 9653.33 278.839 9693.5 219.039C9734.02 163.618 9826.16 164.901 9888.74 229.345C9955.52 294.886 9877.36 346.801 9973.45 357.401C10069.5 368.001 9989.24 444.521 10118.4 429.843C10247.6 415.165 10233 369.587 10364.3 418.406C10495.6 467.224 10444.4 403.646 10606.1 415.165C10767.9 426.683 10818.5 476.871 10893.8 426.683C10969 376.496 10950.5 436.827 11044.9 445.391C11139.4 453.956 11144.6 420.048 11241.1 384.899C11337.7 349.75 11351.4 464.967 11412.5 387.578C11448.8 343.438 11482.1 305.07 11516 298.464C11549.8 291.858 11580 290.268 11627 264.541C11704.6 225.631 11688.5 153.359 11817.6 182.705C11946.8 212.052 11922.6 185.17 11983 268.538C12043.3 351.907 12043.8 326.271 12199.2 360.041C12354.5 393.811 12310.8 425.454 12420.2 457.075C12529.6 488.696 12536.6 499.938 12631.9 471.441C12727.1 442.944 12571.9 419.25 12703 374.171C12834.2 329.092 12847.7 301.055 12876.6 259.836C12905.5 218.617 12927.6 214.309 13048.8 191.373C13169.9 168.437 13201.8 149.189 13291.5 191.373C13381.2 233.557 13393.5 183.195 13527.1 210.72C13660.7 238.244 13643.3 262.68 13800 283.565C13956.6 304.45 14014.1 270.774 14153 270.774C14292 270.774 14262.9 310.86 14375.8 254.942C14488.7 199.024 14509.1 237.546 14640.6 199.024C14772.2 160.503 14722.1 195.457 14873.7 232.265C15025.4 269.073 15033.3 289.325 15177.6 259.836C15321.9 230.347 15330.6 275.082 15498.3 225.137" stroke="#F2E7E4" stroke-width="3"/>
<path d="M1 375.421C36.1505 374.824 98.8858 370.307 163.58 362.079C233.44 352.853 274.111 329.328 325.56 324.892C403.616 298.521 439.267 260.056 522.361 274.556C605.455 289.055 602.742 253.923 681.426 257.621C760.111 261.319 779.701 284.665 853.656 290.739C927.612 296.814 1203.58 266.573 1306.13 263.33C1408.69 260.086 1386.58 288.535 1430.81 318.654C1475.03 348.774 1530.98 356.46 1569.27 373.623C1607.57 390.786 1635.91 372.843 1647.89 413.972C1659.86 455.101 1722.66 494.408 1791.38 496.656C1860.11 498.905 1958.32 462.297 1991.96 459.833C2025.59 457.369 2075.48 428.445 2123.11 392.882C2170.74 357.319 2146.92 308.707 2226.8 284.564C2306.68 260.42 2378.94 234.007 2408.86 209.907C2442.08 196.62 2515.48 191.877 2646.35 214.756C2788.34 258.356 2792.05 330.687 2901.38 317.499C3015.76 306.806 3019.26 283.074 3162.43 269.866C3305.6 256.658 3343.86 266.742 3452.74 279.516C3524.86 274.782 3524.36 261.47 3591.38 279.312C3658.4 297.154 3693.9 295.223 3783.98 306.806C3939 329.971 3928.5 275.28 4064.19 307.729C4199.88 340.179 4151.26 379.133 4291.62 429.408C4431.98 479.684 4362.17 559.096 4479.02 521.868C4595.88 484.64 4532.48 593.333 4634.33 509.396C4736.19 425.459 4652.05 413.8 4810.26 375.003C4968.48 336.207 4876.12 299.415 5021.36 329.971C5166.6 360.527 5195.05 382.25 5249.71 320.321C5304.38 258.392 5245.07 341.235 5336.79 326.043C5428.5 310.852 5450.4 319.668 5541.31 302.116C5632.21 284.564 5683.6 286.32 5769.24 317.499C5844.82 344.937 6039.39 337.662 6130.81 353.668C6175.5 404.728 6240.79 478.96 6346.67 413.972C6468.93 332.738 6572.17 362.952 6711.5 261.036C6850.83 159.12 6912.12 109.953 7088.76 123.568C7265.4 137.184 7415.95 166.444 7497.83 226.945C7579.71 287.446 7611.57 269.668 7716.93 341.82C7822.29 413.972 7821.36 415.948 7956.88 426.393C8033.93 436.838 8091.29 418.147 8149.45 408.694C8207.62 399.242 8241.6 392.584 8308.55 371.337C8410.55 345.266 8458.36 309.716 8587.81 310.697C8695.4 306.826 8811.14 325.967 8875.76 340.179C8887.43 355.652 8890.7 394.294 8987.57 433.179C9103.19 479.343 8989.36 529.566 9130.19 499.715C9271.02 469.865 9295.91 474.953 9326.79 408.858C9357.67 342.763 9449.02 274.876 9510.64 267.011C9568.55 255.866 9664.53 290.351 9704 235.232C9743.9 185.588 9835.45 192.167 9899.55 254.176C9968.9 317.557 9896.07 367.136 9993.69 373.749C10091.3 380.362 10008.5 449.505 10142.9 437.128C10277.2 424.752 10260.3 382.345 10391.3 428.803C10522.2 475.261 10478.3 416.325 10634.4 424.752C10790.6 433.179 10840.8 478 10918.4 433.179C10995.9 388.358 10971.5 445.858 11064.8 456.564C11158.1 467.27 11166.7 436.975 11261.5 400.58C11356.3 364.185 11368.8 471.625 11429.8 395.424C11467.4 350.518 11503.5 310.022 11539.7 307.679C11575.9 305.335 11607.1 307.713 11656.5 279.625C11734.6 239.129 11714.6 169.598 11844 195.877C11973.5 222.156 11951.6 193.981 12011.7 276.661C12071.8 359.34 12073.4 335.799 12226.3 369.507C12379.3 403.216 12331.7 434.266 12447.1 465.197C12562.6 496.129 12562 505.025 12661 476.28C12759.9 447.534 12613.1 427.235 12742.8 387.17C12872.5 347.106 12888.2 321.378 12919.6 281.072C12951 240.766 12972.6 235.2 13097 215.125C13221.3 195.05 13252.8 176.87 13342.5 215.125C13432.2 253.38 13445.3 202.55 13578 230.895C13710.7 259.239 13693.8 285.26 13848.2 303.405C14002.6 321.55 14056.7 287.416 14191.4 287.416C14326.1 287.416 14298.1 325.221 14408.5 274.955C14518.8 224.689 14540.7 259.994 14667.4 224.689C14794.1 189.383 14749.2 223.035 14895 257.826C15040.9 292.618 15048.5 312.777 15188.6 281.072C15328.8 249.368 15339 291.444 15500.2 243.488" stroke="#F2E6E3" stroke-width="3"/>
<path d="M1 388.154C35.3319 387.177 98.2593 381.843 164.335 373.081C236.611 363.122 274.657 337.03 331.74 335.545C413.766 313.496 445.7 277.981 531.127 292.065C616.553 306.149 610.122 277.251 691.581 280.991C773.039 284.731 790.99 306.289 864.128 315.149C937.266 324.009 1198.05 296.095 1299.16 291.854C1400.27 287.612 1384.59 312.155 1429.19 341.32C1473.79 370.485 1534.84 377.963 1570.75 396.291C1606.65 414.618 1628.75 398.67 1644.45 438.429C1660.14 478.187 1713.8 518.203 1782.78 521.947C1851.76 525.692 1946.06 488.044 1978.75 481.423C2011.45 474.802 2056.23 443.757 2107.83 409.107C2159.43 374.458 2130.32 325.719 2209.5 300.411C2288.69 275.103 2364.29 252.305 2396.23 227.747C2431.26 213.326 2502.56 208.77 2631.11 228.582C2765.91 271.349 2774.06 343.597 2881.86 333.853C2995.71 327.101 2993.71 303.543 3140.71 292.47C3287.71 281.397 3324.43 295.38 3435.79 301.517C3512.68 291.24 3507.8 274.995 3582.11 296.524C3656.41 318.053 3691.04 316.243 3782.07 327.101C3934 348.819 3921.5 294.381 4058.43 322.129C4195.36 349.876 4150.21 385.305 4286.64 437.24C4423.07 489.175 4355 560.514 4472.93 528.722C4590.86 496.931 4534.07 595.011 4637.5 513.756C4740.93 432.5 4663.36 419.006 4822.71 385.198C4982.07 351.391 4894.14 317.063 5036.93 348.819C5179.71 380.576 5213.86 406.343 5270.86 339.772C5327.86 273.202 5268.29 351.144 5362.64 332.914C5457 314.684 5487.29 320.553 5575.57 310.482C5663.86 300.411 5706.71 301.348 5796.29 333.853C5876.43 362.85 6066.33 353.137 6155.57 372.344C6201 424.414 6258.64 499.355 6368.5 438.429C6493.71 362.271 6594 391.798 6729.5 287.302C6865 182.807 6917.14 135.676 7094.21 146.804C7271.29 157.932 7418.14 187.109 7498 246.394C7577.86 305.678 7603.79 287.646 7708.71 363.037C7813.64 438.429 7811.43 440.8 7943.36 453.334C8020.46 465.867 8077.77 445.603 8137.58 436.741C8197.39 427.879 8229.71 422.688 8300.86 398.458C8404.86 369.706 8447.93 337.251 8574.57 332.059C8680.71 322.319 8794.07 336.553 8861.71 349.876C8879.71 364.383 8886.71 400.718 8983.29 439.738C9097.43 485.581 8985.43 534.848 9128.93 503.152C9272.43 471.457 9299.29 476.188 9332.64 410.553C9366 344.918 9460.43 276.336 9523.07 273.267C9581.26 266.262 9675.74 301.926 9714.5 251.489C9753.79 207.621 9844.74 219.497 9910.36 279.071C9982.29 340.291 9914.79 387.535 10013.9 390.161C10113.1 392.786 10027.9 454.552 10167.4 444.477C10306.9 434.402 10287.6 395.166 10418.2 439.263C10548.9 483.36 10512.1 429.066 10662.7 434.402C10813.3 439.738 10863.1 479.193 10942.9 439.738C11022.8 400.282 10992.5 454.953 11084.6 467.8C11176.8 480.647 11188.9 453.965 11281.9 416.324C11375 378.684 11386.1 478.346 11447.1 403.334C11486 357.661 11524.8 315.037 11563.4 316.956C11602 318.876 11634.3 325.221 11686 294.772C11764.6 252.691 11740.7 185.9 11870.4 209.111C12000.1 232.323 11980.6 202.856 12040.4 284.847C12100.2 366.837 12102.9 345.39 12253.5 379.037C12404.1 412.684 12352.5 443.141 12474.1 473.383C12595.6 503.625 12587.4 510.176 12690.1 481.182C12792.7 452.187 12654.3 435.283 12782.6 400.233C12910.9 365.183 12928.8 341.764 12962.6 302.372C12996.5 262.979 13017.6 256.155 13145.1 238.94C13272.6 221.725 13303.7 204.614 13393.5 238.94C13483.3 273.267 13497.1 221.969 13628.9 251.133C13760.8 280.297 13744.2 307.903 13896.4 323.309C14048.6 338.714 14099.4 304.122 14229.8 304.122C14360.2 304.122 14333.3 339.645 14441.1 295.031C14549 250.417 14572.4 282.506 14694.2 250.417C14816.1 218.328 14776.4 250.675 14916.4 283.451C15056.4 316.226 15063.6 336.292 15199.6 302.372C15335.6 268.451 15347.4 307.87 15502 261.903" stroke="#F2E4E1" stroke-width="3"/>
<path d="M1 400.963C34.5134 399.604 97.6328 393.454 165.09 384.159C239.782 373.467 275.203 344.807 337.919 346.273C423.916 328.546 452.134 295.981 539.892 309.65C627.651 323.319 617.503 300.655 701.735 304.436C785.966 308.217 802.28 327.99 874.6 339.634C946.92 351.279 1192.52 325.692 1292.18 320.453C1391.84 315.214 1382.59 335.85 1427.57 364.06C1472.55 392.27 1538.71 399.541 1572.22 419.033C1605.73 438.525 1621.6 424.571 1641.01 462.96C1660.41 501.349 1704.94 542.072 1774.17 547.313C1843.41 552.554 1933.8 513.866 1965.55 503.088C1997.3 492.311 2036.98 459.145 2092.55 425.408C2148.12 391.672 2113.72 342.806 2192.21 316.333C2270.71 289.861 2349.65 270.677 2383.6 245.661C2420.45 230.107 2489.63 225.738 2615.88 242.483C2743.48 284.417 2756.07 356.582 2862.33 350.281C2975.67 347.472 2968.17 324.088 3119 315.15C3269.83 306.212 3305 324.094 3418.83 323.593C3500.5 307.774 3491.25 288.596 3572.83 313.812C3654.42 339.027 3688.17 337.337 3780.17 347.472C3929 367.742 3914.5 313.558 4052.67 336.603C4190.83 359.649 4149.17 391.552 4281.67 445.146C4414.17 498.741 4347.83 562.006 4466.83 535.652C4585.83 509.297 4535.67 596.764 4640.67 518.191C4745.67 439.617 4674.67 424.286 4835.17 395.468C4995.67 366.65 4912.17 334.785 5052.5 367.742C5192.83 400.699 5232.67 430.511 5292 359.298C5351.33 288.086 5291.5 361.128 5388.5 339.86C5485.5 318.592 5524.17 321.513 5609.83 318.923C5695.5 316.333 5729.83 316.451 5823.33 350.281C5908.03 380.837 6093.28 368.687 6180.33 391.096C6226.5 444.176 6276.5 519.824 6390.33 462.96C6518.5 391.88 6615.83 420.718 6747.5 313.644C6879.17 206.57 6922.17 161.475 7099.67 170.115C7277.17 178.755 7420.33 207.85 7498.17 265.917C7576 323.985 7596 305.7 7700.5 384.33C7805 462.96 7801.5 465.727 7929.83 480.349C8007 494.972 8064.25 473.134 8125.71 464.863C8187.17 456.592 8217.83 452.867 8293.17 425.655C8399.17 394.221 8437.5 364.861 8561.33 353.497C8666.03 337.887 8777 347.214 8847.67 359.649C8872 373.188 8882.73 407.218 8979 446.372C9091.67 491.894 8981.5 540.205 9127.67 506.665C9273.83 473.124 9302.67 477.498 9338.5 412.323C9374.33 347.147 9471.83 277.871 9535.5 279.597C9593.97 276.733 9686.94 313.576 9725 267.821C9763.67 229.73 9854.03 246.902 9921.17 304.04C9995.67 363.1 9933.5 408.009 10034.2 406.648C10134.8 405.286 10047.2 459.675 10191.8 451.901C10336.5 444.127 10314.8 408.063 10445.2 449.799C10575.5 491.535 10546 441.882 10691 444.127C10836 446.372 10885.3 480.461 10967.5 446.372C11049.7 412.282 11013.5 464.123 11104.5 479.111C11195.5 494.099 11211 471.029 11302.3 432.144C11393.7 393.258 11403.5 485.142 11464.3 411.32C11504.7 364.879 11546.2 320.127 11587.2 326.309C11628.2 332.491 11661.5 342.805 11715.5 309.995C11794.7 266.329 11766.8 202.277 11896.8 222.421C12026.8 242.566 12009.7 211.806 12069.2 293.107C12128.7 374.408 12132.5 355.057 12280.7 388.642C12428.8 422.227 12373.3 452.091 12501 481.644C12628.7 511.197 12612.8 515.401 12719.2 486.158C12825.5 456.916 12695.5 443.406 12822.3 413.37C12949.2 383.335 12969.3 362.225 13005.7 323.746C13042 285.267 13062.7 277.185 13193.3 262.831C13324 248.476 13354.7 232.433 13444.5 262.831C13534.3 293.228 13548.8 241.462 13679.8 271.447C13810.8 301.431 13794.7 330.622 13944.7 343.287C14094.7 355.953 14142 320.903 14268.2 320.903C14394.3 320.903 14368.5 354.143 14473.8 315.182C14579.2 276.22 14604 305.093 14721 276.22C14838 247.347 14803.5 278.391 14937.7 309.15C15071.8 339.91 15078.8 359.882 15210.7 323.746C15342.5 287.61 15355.8 324.371 15503.8 280.392" stroke="#F1E2E0" stroke-width="3"/>
<path d="M1 413.863C33.6948 412.123 97.0064 405.157 165.846 395.329C242.952 383.904 275.749 352.677 344.099 357.093C434.066 343.688 458.567 314.073 548.658 327.326C638.749 340.58 624.884 324.15 711.889 327.973C798.894 331.796 813.57 349.782 885.072 364.212C956.574 378.642 1187 355.381 1285.21 349.144C1383.42 342.907 1380.6 359.638 1425.96 386.893C1471.32 414.148 1542.57 421.211 1573.69 441.868C1604.81 462.525 1614.44 450.565 1637.56 487.584C1660.69 524.602 1696.08 566.034 1765.57 572.771C1835.06 579.509 1921.55 539.78 1952.35 524.846C1983.16 509.912 2017.74 474.624 2077.27 441.801C2136.81 408.977 2097.12 359.985 2174.92 332.348C2252.72 304.71 2335 289.142 2370.98 263.668C2409.63 246.98 2476.71 242.798 2600.65 256.476C2721.05 297.576 2738.08 369.659 2842.81 366.802C2955.62 367.935 2942.62 344.724 3097.29 337.921C3251.95 331.118 3285.57 352.899 3401.88 345.762C3488.32 324.4 3474.7 302.289 3563.56 331.191C3652.42 360.093 3685.3 358.524 3778.26 367.935C3924 386.757 3907.5 332.826 4046.9 351.17C4186.31 369.514 4148.12 397.89 4276.69 453.144C4405.26 508.399 4340.67 563.59 4460.74 542.673C4580.81 521.756 4537.26 598.61 4643.83 522.718C4750.4 446.825 4685.98 429.659 4847.62 405.83C5009.26 382.001 4930.19 352.6 5068.07 386.757C5205.95 420.915 5251.48 454.771 5313.14 378.917C5374.81 303.062 5314.71 371.204 5414.36 346.897C5514 322.591 5561.05 322.565 5644.1 327.456C5727.14 332.348 5752.95 331.646 5850.38 366.802C5939.64 398.917 6120.22 384.33 6205.1 409.939C6252 464.03 6294.36 540.386 6412.17 487.584C6543.29 421.58 6637.67 449.731 6765.5 340.078C6893.33 230.425 6927.19 187.366 7105.12 193.518C7283.05 199.67 7422.52 228.682 7498.33 285.533C7574.14 342.384 7588.21 323.846 7692.29 405.715C7796.36 487.584 7791.57 490.745 7916.31 507.457C7993.54 524.169 8050.73 500.757 8113.84 493.077C8176.94 485.397 8205.95 483.138 8285.48 452.943C8393.48 418.828 8427.07 392.563 8548.1 375.026C8651.35 353.546 8759.93 357.967 8833.62 369.514C8864.29 382.086 8878.75 413.81 8974.71 453.098C9085.9 498.3 8977.57 545.654 9126.4 510.269C9275.24 474.884 9306.05 478.9 9344.36 414.184C9382.67 349.469 9483.24 279.498 9547.93 286.02C9606.68 287.296 9698.15 325.318 9735.5 284.245C9773.55 251.93 9863.32 274.398 9931.98 329.102C10009 386.001 9952.21 428.576 10054.4 423.227C10156.6 417.878 10066.5 464.889 10216.3 459.417C10366.1 453.944 10342.1 421.051 10472.1 460.426C10602.1 499.802 10579.9 454.791 10719.3 453.944C10858.7 453.098 10907.6 481.821 10992.1 453.098C11076.5 424.374 11034.5 473.385 11124.4 490.514C11214.2 507.643 11233.1 488.186 11322.7 448.055C11412.3 407.925 11420.9 492.03 11481.6 419.397C11523.3 372.189 11567.5 325.31 11610.9 335.754C11654.3 346.199 11688.7 360.48 11745 325.31C11824.7 280.058 11793 218.746 11923.2 235.823C12053.5 252.9 12038.7 220.849 12097.9 301.46C12157.1 382.072 12162.1 364.816 12307.8 398.339C12453.6 431.863 12394.2 461.133 12527.9 489.997C12661.7 518.86 12638.2 520.719 12748.3 491.227C12858.3 461.736 12736.7 451.621 12862.1 426.6C12987.5 401.579 13009.9 382.779 13048.7 345.213C13087.5 307.647 13107.7 298.307 13241.5 286.813C13375.4 275.319 13405.6 260.345 13495.5 286.813C13585.4 313.282 13600.6 261.048 13730.7 291.852C13860.9 322.656 13845.1 353.432 13992.9 363.358C14140.7 373.284 14184.6 337.776 14306.5 337.776C14428.5 337.776 14403.7 368.734 14506.5 335.425C14609.3 302.115 14635.6 327.772 14747.8 302.115C14859.9 276.458 14830.6 306.199 14959 334.942C15087.3 363.685 15094 383.564 15221.7 345.213C15349.4 306.861 15364.2 340.963 15505.7 298.974" stroke="#F1E1DE" stroke-width="3"/>
<path d="M1 426.88C32.8763 424.759 96.3799 416.976 166.601 406.615C246.123 394.457 276.295 360.662 350.278 368.029C444.216 358.947 465 332.281 557.424 345.119C649.848 357.958 632.265 347.761 722.043 351.626C811.822 355.491 824.86 371.69 895.544 388.905C966.227 406.12 1181.47 385.186 1278.24 377.952C1375 370.717 1378.6 383.541 1424.34 409.842C1470.08 436.142 1546.44 442.998 1575.17 464.819C1603.89 486.64 1607.28 476.675 1634.12 512.323C1660.97 547.972 1687.22 590.111 1756.96 598.346C1826.71 606.58 1909.29 565.81 1939.15 546.719C1969.01 527.628 1998.49 490.22 2062 458.31C2125.51 426.399 2080.52 377.281 2157.63 348.478C2234.74 319.676 2320.36 307.723 2358.35 281.791C2398.81 263.968 2463.79 259.974 2585.42 270.586C2698.61 310.852 2720.09 382.853 2823.29 383.438C2935.57 388.514 2917.07 365.477 3075.57 360.809C3234.07 356.141 3266.14 381.821 3384.93 368.047C3476.14 341.142 3458.14 316.098 3554.29 348.687C3650.43 381.276 3682.43 379.827 3776.36 388.514C3919 405.888 3900.5 352.211 4041.14 365.853C4181.79 379.495 4147.07 404.345 4271.71 461.259C4396.36 518.173 4333.5 565.291 4454.64 549.811C4575.79 534.33 4538.86 600.572 4647 527.361C4755.14 454.15 4697.29 435.147 4860.07 416.308C5022.86 397.469 4948.21 370.53 5083.64 405.888C5219.07 441.246 5270.29 479.147 5334.29 398.651C5398.29 318.155 5337.93 381.396 5440.21 354.051C5542.5 326.707 5597.93 323.733 5678.36 336.106C5758.79 348.478 5776.07 346.958 5877.43 383.438C5971.24 417.113 6147.17 400.088 6229.86 428.899C6277.5 484 6312.21 561.064 6434 512.323C6568.07 451.397 6659.5 478.86 6783.5 366.628C6907.5 254.395 6932.21 213.373 7110.57 217.037C7288.93 220.702 7424.71 249.63 7498.5 305.265C7572.29 360.899 7580.43 342.108 7684.07 427.216C7787.71 512.323 7781.64 515.88 7902.79 534.681C7980.07 553.482 8037.21 528.496 8101.96 521.407C8166.71 514.318 8194.07 513.525 8277.79 480.347C8387.79 443.551 8416.64 420.381 8534.86 396.671C8636.67 369.322 8742.86 368.836 8819.57 379.495C8856.57 391.1 8874.77 420.518 8970.43 459.94C9080.14 504.821 8973.64 551.219 9125.14 513.989C9276.64 476.759 9309.43 480.418 9350.21 416.162C9391 351.907 9494.64 281.241 9560.36 292.559C9619.39 297.975 9709.36 337.176 9746 300.785C9783.43 274.247 9872.61 302.011 9942.79 354.28C10022.4 409.019 9970.93 449.258 10074.6 439.922C10178.4 430.585 10085.8 470.22 10240.8 467.049C10395.8 463.878 10369.4 434.156 10499.1 471.17C10628.8 508.185 10613.7 467.816 10747.6 463.878C10881.4 459.94 10929.9 483.298 11016.6 459.94C11103.4 436.582 11055.5 482.763 11144.2 502.033C11232.9 521.303 11255.3 505.459 11343.1 464.083C11431 422.707 11438.2 499.034 11498.9 427.59C11541.9 379.616 11588.9 330.608 11634.6 345.315C11680.4 360.023 11715.9 378.272 11774.5 340.74C11854.7 293.904 11819.1 235.332 11949.6 249.341C12080.2 263.351 12067.7 230.007 12126.6 309.929C12185.6 389.852 12191.6 374.69 12335 408.152C12478.4 441.614 12415 470.291 12554.9 498.466C12694.7 526.64 12663.6 526.152 12777.4 496.412C12891.1 466.672 12777.9 459.952 12901.9 439.946C13025.8 419.939 13050.4 403.448 13091.7 366.795C13133 330.143 13152.7 319.545 13289.7 310.912C13426.7 302.278 13456.6 288.372 13546.5 310.912C13636.4 333.451 13652.4 280.75 13781.6 312.374C13910.9 343.997 13895.6 376.359 14041.1 383.545C14186.7 390.731 14227.3 354.765 14344.9 354.765C14462.6 354.765 14438.9 383.441 14539.2 355.784C14639.5 328.126 14667.3 350.567 14774.6 328.126C14881.9 305.686 14857.8 334.123 14980.3 360.85C15102.8 387.577 15109.2 407.362 15232.7 366.795C15356.2 326.228 15372.6 357.672 15507.5 317.672" stroke="#F1DFDD" stroke-width="3"/>
<path d="M1 440.048C32.0577 437.546 95.7534 428.947 167.356 418.052C249.293 405.161 276.841 368.799 356.457 379.117C454.366 374.356 471.433 350.64 566.19 363.064C660.946 375.487 639.645 371.524 732.197 375.43C824.749 379.337 836.15 393.75 906.016 413.75C975.881 433.75 1175.94 415.143 1271.26 406.911C1366.58 398.678 1376.61 407.596 1422.72 432.942C1468.84 458.287 1550.31 464.935 1576.64 487.921C1602.97 510.907 1600.12 502.936 1630.68 537.215C1661.25 571.493 1678.37 614.341 1748.36 624.071C1818.35 633.802 1897.03 591.991 1925.95 568.744C1954.87 545.496 1979.24 505.967 2046.72 474.97C2114.2 443.973 2063.91 394.728 2140.33 364.761C2216.75 334.793 2305.71 326.456 2345.72 300.065C2387.99 281.109 2450.86 277.302 2570.19 284.847C2676.18 324.28 2702.1 396.197 2803.76 400.227C2915.52 409.245 2891.52 386.381 3053.86 383.848C3216.19 381.316 3246.71 410.894 3367.98 390.483C3463.96 358.035 3441.59 330.058 3545.01 366.334C3648.43 402.609 3679.56 401.281 3774.45 409.245C3914 425.171 3893.5 371.747 4035.38 380.687C4177.26 389.627 4146.02 410.952 4266.74 469.525C4387.45 528.098 4326.33 567.143 4448.55 557.1C4570.76 547.057 4540.45 602.685 4650.17 532.156C4759.88 461.626 4708.6 440.788 4872.52 426.938C5036.45 413.088 4966.24 388.612 5099.21 425.171C5232.19 461.729 5289.1 503.674 5355.43 418.537C5421.76 333.399 5361.14 391.739 5466.07 361.357C5571 330.974 5634.81 325.053 5712.62 344.907C5790.43 364.761 5799.19 362.421 5904.48 400.227C6002.85 435.46 6174.11 415.998 6254.62 448.01C6303 504.122 6330.07 581.894 6455.83 537.215C6592.86 481.366 6681.33 508.14 6801.5 393.329C6921.67 278.518 6937.24 239.531 7116.02 240.708C7294.81 241.884 7426.9 270.73 7498.67 325.148C7570.43 379.565 7572.64 360.522 7675.86 448.868C7779.07 537.215 7771.71 541.167 7889.26 562.056C7966.61 582.946 8023.7 556.387 8090.09 549.888C8156.49 543.39 8182.19 544.064 8270.1 507.903C8382.1 468.425 8406.21 448.35 8521.62 418.468C8621.99 385.25 8725.79 379.857 8805.52 389.627C8848.86 400.265 8870.79 427.377 8966.14 466.933C9074.38 511.494 8969.71 556.936 9123.88 517.861C9278.05 478.786 9312.81 482.088 9356.07 418.292C9399.33 354.496 9506.05 283.135 9572.79 299.25C9632.1 308.806 9720.56 349.186 9756.5 317.477C9793.31 296.715 9881.91 329.776 9953.6 379.61C10035.8 432.187 9989.64 470.092 10094.9 456.768C10200.1 443.445 10105.1 475.702 10265.3 474.832C10425.4 473.963 10396.6 447.412 10526 482.065C10655.4 516.719 10647.6 480.992 10775.9 473.963C10904.1 466.934 10952.1 484.925 11041.2 466.933C11130.3 448.942 11076.5 492.292 11164.1 513.703C11251.6 535.115 11277.4 522.884 11363.5 480.262C11449.7 437.641 11455.6 506.19 11516.1 435.935C11560.6 387.194 11610.2 336.058 11658.4 355.028C11706.6 373.998 11743 396.215 11804 356.323C11884.7 307.9 11845.2 252.068 11976 263.011C12106.9 273.953 12096.7 239.317 12155.4 318.55C12214 397.783 12221.2 384.716 12362.2 418.117C12503.1 451.517 12435.8 479.601 12581.8 507.086C12727.7 534.571 12689 531.738 12806.5 501.749C12923.9 471.76 12819.1 468.435 12941.6 453.443C13064.1 438.451 13091 424.269 13134.7 388.529C13178.5 352.79 13197.7 340.934 13337.9 335.162C13478.1 329.389 13507.5 316.551 13597.5 335.162C13687.5 353.772 13704.1 300.603 13832.5 333.047C13961 365.49 13946 399.437 14089.4 403.883C14232.7 408.329 14269.9 371.905 14383.3 371.905C14496.7 371.905 14474.1 398.3 14571.9 376.295C14669.7 354.289 14698.9 373.514 14801.4 354.289C14903.8 335.065 14884.9 362.199 15001.6 386.91C15118.3 411.62 15124.4 431.312 15243.7 388.529C15363.1 345.747 15381 374.533 15509.3 336.521" stroke="#F1DDDB" stroke-width="3"/>
<path d="M1 453.431C31.2392 450.548 95.1269 441.133 168.112 429.704C252.464 416.08 277.387 377.151 362.637 390.42C464.516 389.981 477.866 369.214 574.955 381.223C672.044 393.231 647.026 395.501 742.352 399.45C837.677 403.398 847.439 416.024 916.487 438.81C985.535 461.595 1170.42 445.314 1264.29 436.084C1358.16 426.854 1374.61 431.866 1421.11 456.257C1467.6 480.647 1554.17 487.088 1578.11 511.238C1602.05 535.388 1592.96 529.412 1627.24 562.321C1661.52 595.229 1669.51 638.785 1739.75 650.012C1810 661.239 1884.78 618.388 1912.75 590.984C1940.72 563.579 1959.99 521.929 2031.44 491.845C2102.89 461.761 2047.31 412.389 2123.04 381.257C2198.77 350.125 2291.07 345.403 2333.09 318.555C2377.18 298.464 2437.94 294.844 2554.96 299.322C2653.75 337.922 2684.1 409.757 2784.24 417.23C2895.48 430.19 2865.98 407.5 3032.14 407.102C3198.31 406.705 3227.29 440.181 3351.02 413.134C3451.79 375.144 3425.04 344.233 3535.74 384.195C3646.44 424.158 3676.69 422.951 3772.55 430.19C3909 444.668 3886.5 391.497 4029.62 395.736C4172.74 399.974 4144.98 417.773 4261.76 478.006C4378.55 538.239 4319.17 569.21 4442.45 564.604C4565.74 559.997 4542.05 605.013 4653.33 537.165C4764.62 469.317 4719.9 446.643 4884.98 437.782C5050.05 428.922 4984.26 406.909 5114.79 444.668C5245.31 482.427 5307.9 528.416 5376.57 438.637C5445.24 348.858 5384.36 402.298 5491.93 368.877C5599.5 335.456 5671.69 326.587 5746.88 353.922C5822.07 381.257 5822.31 378.099 5931.52 417.23C6034.45 454.022 6201.06 432.123 6279.38 467.336C6328.5 524.458 6347.93 602.938 6477.67 562.321C6617.64 511.549 6703.17 537.636 6819.5 420.245C6935.83 302.855 6942.26 265.904 7121.48 264.593C7300.69 263.282 7429.1 292.045 7498.83 345.246C7568.57 398.447 7564.86 379.15 7667.64 470.735C7770.43 562.321 7761.79 566.668 7875.74 589.646C7953.14 612.625 8010.18 584.493 8078.22 578.585C8146.26 572.677 8170.31 574.817 8262.4 535.674C8376.4 493.515 8395.79 476.535 8508.38 440.48C8607.31 401.392 8708.71 391.092 8791.48 399.974C8841.14 409.645 8866.81 434.451 8961.86 474.142C9068.62 518.382 8965.79 562.867 9122.62 521.948C9279.45 481.028 9316.19 483.972 9361.93 420.636C9407.67 357.3 9517.45 285.245 9585.21 306.155C9644.8 319.851 9731.77 361.411 9767 334.383C9803.19 319.398 9891.19 357.755 9964.4 405.154C10049.2 455.571 10008.4 491.14 10115.1 473.83C10221.9 456.519 10124.4 481.399 10289.7 482.831C10455.1 484.262 10423.9 460.882 10553 493.175C10682.1 525.468 10681.4 494.383 10804.1 484.262C10926.9 474.142 10974.4 486.768 11065.8 474.142C11157.2 461.516 11097.5 502.036 11183.9 525.589C11270.4 549.141 11299.6 540.523 11384 496.656C11468.3 452.789 11472.9 513.561 11533.4 444.495C11579.2 394.987 11631.5 341.722 11682.1 364.956C11732.7 388.189 11770.2 414.373 11833.5 372.12C11914.8 322.112 11871.3 269.02 12002.5 276.895C12133.6 284.77 12125.8 248.841 12184.1 327.385C12242.5 405.929 12250.8 394.957 12389.3 428.296C12527.9 461.635 12456.7 489.126 12608.7 515.922C12760.8 542.718 12714.5 537.538 12835.5 507.3C12956.6 477.063 12860.4 477.132 12981.4 467.155C13102.4 457.177 13131.5 445.304 13177.8 410.478C13224 375.652 13242.8 362.539 13386.1 359.626C13529.4 356.714 13558.5 344.945 13648.5 359.626C13738.5 374.308 13755.9 320.672 13883.5 353.935C14011 387.198 13996.5 422.73 14137.6 424.436C14278.8 426.142 14312.6 389.261 14421.7 389.261C14530.8 389.261 14509.4 413.373 14604.6 397.02C14699.8 380.667 14730.6 396.675 14828.1 380.667C14925.7 364.658 14912.1 390.489 15022.9 413.184C15133.7 435.879 15139.6 455.477 15254.8 410.478C15369.9 365.48 15389.5 391.608 15511.2 355.585" stroke="#F0DCDA" stroke-width="3"/>
<path d="M1 469.215C30.4207 465.951 94.5004 455.72 168.867 443.758C255.635 429.401 277.933 387.904 368.816 404.124C474.666 408.007 484.3 390.19 583.721 401.783C683.142 413.377 654.407 421.881 752.506 425.871C850.605 429.86 858.729 440.7 926.959 466.271C995.189 491.842 1164.89 477.887 1257.31 467.659C1349.74 457.432 1372.62 458.538 1419.49 481.973C1466.36 505.409 1558.04 511.642 1579.58 536.957C1601.13 562.271 1585.81 558.29 1623.8 589.828C1661.8 621.366 1660.65 665.63 1731.15 678.354C1801.65 691.077 1872.52 647.186 1899.55 615.625C1926.57 584.064 1940.74 540.293 2016.16 511.122C2091.58 481.951 2030.71 432.453 2105.75 400.156C2180.78 367.859 2276.42 366.752 2320.47 339.445C2366.36 318.221 2425.02 314.789 2539.73 316.199C2631.32 353.966 2666.11 425.718 2764.71 436.634C2875.43 453.537 2840.43 431.021 3010.43 432.758C3180.43 434.495 3207.86 471.871 3334.07 438.186C3439.61 394.653 3408.48 360.81 3526.46 404.459C3644.45 448.108 3673.82 447.021 3770.64 453.537C3904 466.567 3879.5 413.65 4023.86 413.186C4168.21 412.723 4143.93 426.996 4256.79 488.888C4369.64 550.781 4312 573.678 4436.36 574.509C4560.71 575.34 4543.64 609.743 4656.5 544.576C4769.36 479.409 4731.21 454.899 4897.43 451.028C5063.64 447.157 5002.29 427.608 5130.36 466.567C5258.43 505.527 5326.71 555.56 5397.71 461.139C5468.71 366.718 5407.57 415.258 5517.79 378.799C5628 342.339 5708.57 330.523 5781.14 365.339C5853.71 400.156 5845.43 396.178 5958.57 436.634C6066.06 474.986 6228 450.649 6304.14 489.064C6354 547.196 6365.79 626.384 6499.5 589.828C6642.43 544.134 6725 569.532 6837.5 449.563C6950 329.594 6947.29 294.679 7126.93 290.88C7306.57 287.081 7431.29 315.761 7499 367.745C7566.71 419.729 7557.07 400.18 7659.43 495.004C7761.79 589.828 7751.86 594.571 7862.21 619.638C7939.68 644.706 7996.66 615 8066.35 609.683C8136.04 604.366 8158.43 607.972 8254.71 565.846C8370.71 521.006 8385.36 507.12 8495.14 464.893C8592.63 419.936 8691.64 404.729 8777.43 412.723C8833.43 421.427 8862.83 443.927 8957.57 483.752C9062.86 527.671 8961.86 571.2 9121.36 528.436C9280.86 485.672 9319.57 488.258 9367.79 425.382C9416 362.506 9528.86 289.756 9597.64 315.462C9657.51 333.298 9742.98 376.037 9777.5 353.691C9813.07 344.482 9900.49 388.136 9975.21 433.1C10062.6 481.356 10027.1 514.59 10135.4 493.292C10243.6 471.994 10143.7 489.498 10314.2 493.231C10484.7 496.964 10451.1 476.755 10579.9 506.687C10708.7 536.619 10715.3 510.176 10832.4 496.964C10949.6 483.752 10996.6 491.012 11090.4 483.752C11184.1 476.492 11118.5 514.182 11203.8 539.876C11289.1 565.569 11321.7 560.564 11404.4 515.452C11487 470.339 11490.3 523.333 11550.6 455.456C11597.8 405.181 11652.9 349.789 11705.9 377.284C11758.8 404.78 11797.4 434.932 11863 390.318C11944.8 338.726 11897.4 288.373 12028.9 293.181C12160.3 297.989 12154.8 260.768 12212.9 338.622C12270.9 416.477 12280.4 407.6 12416.5 440.877C12552.6 474.155 12477.5 501.052 12635.6 527.158C12793.8 553.265 12739.9 545.739 12864.6 515.253C12989.4 484.768 12901.6 488.231 13021.1 483.268C13140.7 478.306 13172.1 468.742 13220.8 434.829C13269.5 400.916 13287.8 386.545 13434.3 386.493C13580.8 386.441 13609.4 375.74 13699.5 386.493C13789.6 397.246 13807.6 343.141 13934.4 377.224C14061.1 411.307 14046.9 448.425 14185.9 447.391C14324.8 446.357 14355.2 409.017 14460.1 409.017C14564.9 409.017 14544.6 430.848 14637.3 420.147C14730 409.446 14762.2 422.238 14854.9 409.446C14947.6 396.654 14939.2 421.181 15044.2 441.86C15149.2 462.538 15154.8 482.043 15265.8 434.829C15376.8 387.615 15397.9 411.085 15513 377.051" stroke="#F0DAD8" stroke-width="3"/>
<path d="M1 495.912C29.6021 492.267 93.8739 481.22 169.623 468.724C258.805 453.634 278.479 409.569 374.996 428.741C484.816 436.945 490.733 422.078 592.487 433.256C694.24 444.435 661.788 459.172 762.66 463.204C863.532 467.235 870.019 476.289 937.431 504.645C1004.84 533 1159.37 521.373 1250.34 510.147C1341.31 498.922 1370.62 496.121 1417.87 518.602C1465.13 541.083 1561.91 547.109 1581.06 573.588C1600.21 600.067 1578.65 598.08 1620.36 628.248C1662.08 658.416 1651.79 703.388 1722.55 717.608C1793.3 731.828 1860.26 686.896 1886.35 651.178C1912.43 615.461 1921.49 569.569 2000.88 541.311C2080.27 513.053 2014.11 463.428 2088.45 429.967C2162.8 396.505 2261.78 399.013 2307.84 371.249C2355.54 348.89 2412.09 345.645 2524.5 343.989C2608.89 380.922 2648.12 452.592 2745.19 466.951C2855.38 487.796 2814.88 465.453 2988.71 469.326C3162.55 473.198 3188.43 514.472 3317.12 474.151C3427.43 425.076 3391.93 388.299 3517.19 435.635C3642.45 482.97 3670.95 482.005 3768.74 487.796C3899 499.379 3872.5 446.715 4018.1 441.549C4163.69 436.384 4142.88 447.131 4251.81 510.683C4360.74 574.235 4304.83 589.059 4430.26 595.327C4555.69 601.595 4545.24 625.385 4659.67 562.899C4774.1 500.414 4742.52 474.068 4909.88 475.186C5077.24 476.305 5020.31 459.219 5145.93 499.379C5271.55 539.539 5345.52 593.616 5418.86 494.554C5492.19 395.491 5430.79 439.13 5543.64 399.633C5656.5 360.135 5745.45 345.371 5815.4 387.669C5885.36 429.967 5868.55 425.17 5985.62 466.951C6097.66 506.862 6254.94 480.088 6328.9 521.703C6379.5 580.846 6383.64 660.742 6521.33 628.248C6667.21 587.631 6746.83 612.341 6855.5 489.793C6964.17 367.245 6952.31 334.366 7132.38 328.079C7312.45 321.792 7433.48 350.39 7499.17 401.157C7564.86 451.925 7549.29 432.122 7651.21 530.185C7753.14 628.248 7741.93 633.386 7848.69 660.542C7926.21 687.699 7983.14 656.419 8054.48 651.693C8125.81 646.967 8146.55 652.04 8247.02 606.931C8365.02 559.409 8374.93 548.619 8481.9 500.218C8577.95 449.392 8674.57 429.278 8763.38 436.384C8825.71 444.121 8858.85 464.315 8953.29 504.274C9057.1 547.873 8957.93 590.446 9120.1 545.836C9282.26 501.227 9322.95 503.456 9373.64 441.04C9424.33 378.624 9540.26 305.179 9610.07 335.681C9670.22 357.657 9754.18 401.576 9788 383.911C9822.95 380.479 9909.78 429.429 9986.02 471.958C10076 518.054 10045.8 548.953 10155.6 523.668C10265.4 498.382 10163 508.508 10338.7 514.543C10514.4 520.577 10478.4 503.539 10606.9 531.111C10735.4 558.682 10749.1 536.881 10860.7 520.577C10972.3 504.274 11018.9 506.168 11114.9 504.274C11211 502.38 11139.5 537.24 11223.6 565.075C11307.8 592.91 11343.9 591.518 11424.8 545.16C11505.7 498.802 11507.6 544.017 11567.9 477.329C11616.5 426.288 11674.2 368.767 11729.6 400.526C11785 432.285 11824.6 466.404 11892.5 419.429C11974.8 366.251 11923.5 318.639 12055.3 320.379C12187 322.12 12183.8 283.606 12241.6 360.771C12299.4 437.937 12309.9 431.155 12443.7 464.371C12577.4 497.587 12498.3 523.89 12662.6 549.308C12826.8 574.725 12765.3 564.853 12893.7 534.119C13022.2 503.384 12942.8 510.243 13060.9 510.294C13179 510.346 13212.6 503.091 13263.8 470.092C13315 437.092 13332.8 421.463 13482.5 424.272C13632.1 427.08 13660.4 417.448 13750.5 424.272C13840.6 431.096 13859.4 376.523 13985.3 411.426C14111.1 446.329 14097.4 485.032 14234.1 481.258C14370.8 477.484 14397.9 439.687 14498.5 439.687C14599 439.687 14579.8 459.236 14670 454.187C14760.2 449.138 14793.9 458.714 14881.7 449.138C14969.6 439.561 14966.4 462.785 15065.5 481.448C15164.7 500.11 15170 519.521 15276.8 470.092C15383.6 420.662 15406.3 441.474 15514.8 409.429" stroke="#F0D8D7" stroke-width="3"/>
<path d="M1 522.714C28.7836 518.688 93.2475 506.824 170.378 493.795C261.976 477.973 279.025 431.34 381.175 453.463C494.966 465.989 497.166 454.072 601.252 464.835C705.338 475.598 669.169 496.569 772.814 500.642C876.46 504.716 881.309 511.982 947.903 543.123C1014.5 574.264 1153.84 564.963 1243.37 552.74C1332.89 540.517 1368.63 533.81 1416.26 555.336C1463.89 576.862 1565.77 582.68 1582.53 610.324C1599.28 637.968 1571.49 637.975 1616.92 666.773C1662.35 695.571 1642.93 741.251 1713.94 756.968C1784.95 772.684 1848.01 726.712 1873.14 686.837C1898.28 646.963 1902.24 598.95 1985.6 571.605C2068.96 544.26 1997.51 494.509 2071.16 459.883C2144.81 425.256 2247.13 431.38 2295.21 403.157C2344.73 379.664 2399.17 376.607 2509.27 371.884C2586.46 407.984 2630.13 479.571 2725.67 497.373C2835.33 522.16 2789.33 499.991 2967 505.999C3144.67 512.007 3169 557.179 3300.17 510.221C3415.25 455.603 3375.38 415.893 3507.92 466.916C3640.46 517.938 3668.08 517.093 3766.83 522.16C3894 532.295 3865.5 479.885 4012.33 470.018C4159.17 460.151 4141.83 467.371 4246.83 532.583C4351.83 597.794 4297.67 604.545 4424.17 616.25C4550.67 627.955 4546.83 641.132 4662.83 581.328C4778.83 521.524 4753.83 493.342 4922.33 499.45C5090.83 505.558 5038.33 490.935 5161.5 532.295C5284.67 573.656 5364.33 631.778 5440 528.073C5515.67 424.369 5454 463.108 5569.5 420.572C5685 378.036 5782.33 360.325 5849.67 410.104C5917 459.883 5891.67 454.267 6012.67 497.373C6129.27 538.843 6281.89 509.632 6353.67 554.449C6405 614.602 6401.5 695.205 6543.17 666.773C6692 631.233 6768.67 655.256 6873.5 530.128C6978.33 405.001 6957.33 374.158 7137.83 365.384C7318.33 356.609 7435.67 385.124 7499.33 434.675C7563 484.225 7541.5 464.169 7643 565.471C7744.5 666.773 7732 672.306 7835.17 701.552C7912.75 730.797 7969.62 697.944 8042.6 693.808C8115.58 689.673 8134.67 696.212 8239.33 648.12C8359.33 597.918 8364.5 590.222 8468.67 535.649C8563.27 478.953 8657.5 453.933 8749.33 460.151C8818 466.92 8854.87 484.808 8949 524.902C9051.33 568.18 8954 609.796 9118.83 563.342C9283.67 516.888 9326.33 518.76 9379.5 456.804C9432.67 394.847 9551.67 320.708 9622.5 356.006C9682.93 382.122 9765.39 427.219 9798.5 414.237C9832.83 416.581 9919.07 470.827 9996.83 510.921C10089.3 554.856 10064.5 583.421 10175.8 554.148C10287.2 524.876 10182.3 527.624 10363.2 535.96C10544 544.296 10505.7 530.429 10633.8 555.64C10762 580.85 10783 563.691 10889 544.296C10995 524.902 11041.2 521.43 11139.5 524.902C11237.8 528.374 11160.5 560.404 11243.5 590.38C11326.5 620.356 11366 622.576 11445.2 574.973C11524.3 527.37 11525 564.807 11585.2 499.308C11635.1 447.5 11695.6 387.851 11753.3 423.872C11811.1 459.894 11851.8 497.981 11922 448.646C12004.8 393.882 11949.7 349.01 12081.7 347.683C12213.7 346.356 12212.8 306.55 12270.3 383.026C12327.8 459.502 12339.5 454.815 12470.8 487.969C12602.2 521.124 12519.2 546.834 12689.5 571.562C12859.8 596.29 12790.7 584.072 12922.8 553.089C13055 522.106 12984 532.359 13100.7 537.425C13217.3 542.492 13253.2 537.546 13306.8 505.46C13360.5 473.374 13377.8 456.486 13530.7 462.156C13683.5 467.825 13711.3 459.261 13801.5 462.156C13891.7 465.051 13911.2 410.011 14036.2 445.733C14161.2 481.456 14147.8 521.744 14282.3 515.23C14416.8 508.717 14440.5 470.461 14536.8 470.461C14633.2 470.461 14615 487.728 14702.7 488.331C14790.3 488.934 14825.5 495.294 14908.5 488.934C14991.5 482.574 14993.5 504.495 15086.8 521.141C15180.2 537.787 15185.2 557.105 15287.8 505.46C15390.5 453.815 15414.7 471.969 15516.7 441.912" stroke="#F0D7D5" stroke-width="3"/>
<path d="M1 549.604C27.965 545.197 92.621 532.517 171.133 518.955C265.146 502.4 279.571 453.199 387.355 478.273C505.116 495.121 503.599 486.153 610.018 496.501C716.436 506.849 676.549 534.054 782.968 538.169C889.388 542.284 892.599 547.765 958.375 581.691C1024.15 615.617 1148.31 608.642 1236.39 595.421C1324.47 582.2 1366.63 571.588 1414.64 592.159C1462.65 612.73 1569.64 618.34 1584 647.149C1598.36 675.957 1564.33 677.959 1613.48 705.387C1662.63 732.814 1634.08 779.203 1705.34 796.416C1776.59 813.628 1835.75 766.615 1859.94 722.584C1884.14 678.553 1883 628.419 1970.33 601.988C2057.66 575.556 1980.91 525.678 2053.87 489.887C2126.83 454.096 2232.49 463.835 2282.58 435.154C2333.91 410.527 2386.24 407.657 2494.04 399.867C2564.02 435.133 2612.14 506.638 2706.14 527.884C2815.29 556.613 2763.79 534.618 2945.29 542.761C3126.79 550.903 3149.57 599.975 3283.21 546.379C3403.07 486.219 3358.82 443.576 3498.64 498.285C3638.46 552.994 3665.21 552.27 3764.93 556.613C3889 565.3 3858.5 513.143 4006.57 498.574C4154.64 484.005 4140.79 487.7 4241.86 554.571C4342.93 621.442 4290.5 620.12 4418.07 637.261C4545.64 654.403 4548.43 656.967 4666 599.845C4783.57 542.723 4765.14 512.705 4934.79 523.802C5104.43 534.899 5056.36 522.739 5177.07 565.3C5297.79 607.861 5383.14 670.027 5461.14 561.681C5539.14 453.336 5477.21 487.174 5595.36 441.6C5713.5 396.026 5819.21 375.367 5883.93 432.627C5948.64 489.887 5914.79 483.452 6039.71 527.884C6160.87 570.912 6308.83 539.264 6378.43 587.282C6430.5 648.445 6419.36 729.757 6565 705.387C6716.79 674.924 6790.5 698.258 6891.5 570.552C6992.5 442.846 6962.36 414.039 7143.29 402.777C7324.21 391.514 7437.86 419.946 7499.5 468.28C7561.14 516.614 7533.71 496.305 7634.79 600.846C7735.86 705.387 7722.07 711.315 7821.64 742.649C7899.29 773.984 7956.11 739.557 8030.73 736.012C8105.36 732.468 8122.79 740.473 8231.64 689.399C8353.64 636.515 8354.07 631.914 8455.43 571.168C8548.59 508.603 8640.43 478.676 8735.29 484.005C8810.29 489.808 8850.89 505.39 8944.71 545.618C9045.57 588.575 8950.07 629.235 9117.57 580.936C9285.07 532.638 9329.71 534.152 9385.36 472.655C9441 411.159 9563.07 336.324 9634.93 376.419C9695.64 406.675 9776.6 452.952 9809 444.651C9842.71 452.771 9928.36 512.314 10007.6 549.973C10102.7 591.747 10083.2 617.977 10196.1 584.717C10308.9 551.457 10201.6 546.829 10387.6 557.466C10573.6 568.103 10532.9 557.407 10660.8 580.257C10788.6 603.107 10816.9 590.589 10917.3 568.103C11017.7 545.618 11063.4 536.78 11164.1 545.618C11264.7 554.456 11181.5 583.656 11263.4 615.773C11345.2 647.89 11388.1 653.723 11465.6 604.874C11543 556.026 11542.4 585.685 11602.4 521.375C11653.7 468.8 11716.9 407.023 11777.1 447.307C11837.2 487.592 11878.9 529.647 11951.5 477.95C12034.9 421.601 11975.8 379.469 12108.1 375.075C12240.4 370.68 12241.9 329.582 12299.1 405.369C12356.3 481.155 12369.1 478.564 12498 511.656C12626.9 544.749 12540 569.866 12716.4 593.905C12892.9 617.944 12816.1 603.38 12951.9 572.148C13087.8 540.916 13025.2 554.564 13140.4 564.645C13255.6 574.726 13293.7 572.089 13349.9 540.916C13406 509.744 13422.9 491.598 13578.9 500.128C13734.9 508.658 13762.3 501.162 13852.5 500.128C13942.7 499.094 13962.9 443.586 14087.1 480.129C14211.2 516.671 14198.3 558.545 14330.6 549.291C14462.9 540.038 14483.1 501.324 14575.2 501.324C14667.3 501.324 14650.2 516.309 14735.4 522.564C14820.5 528.819 14857.1 531.963 14935.3 528.819C15013.4 525.676 15020.6 546.293 15108.1 560.923C15195.6 575.553 15200.4 594.777 15298.9 540.916C15397.4 487.056 15423.1 502.552 15518.5 474.484" stroke="#EFD5D4" stroke-width="3"/>
<path d="M1 577.153C27.1465 572.365 91.9945 558.869 171.889 544.773C268.317 527.485 280.117 475.717 393.534 503.742C515.267 524.912 510.033 518.894 618.784 528.827C727.535 538.76 683.93 572.198 793.123 576.354C902.315 580.511 903.888 584.205 968.846 620.917C1033.8 657.628 1142.79 652.98 1229.42 638.761C1316.05 624.542 1364.63 610.024 1413.02 629.64C1461.41 649.256 1573.51 654.659 1585.47 684.632C1597.44 714.605 1557.17 718.601 1610.04 744.659C1662.91 770.716 1625.22 817.813 1696.73 836.522C1768.24 855.231 1823.49 807.178 1846.74 758.99C1869.99 710.803 1863.75 658.548 1955.05 633.029C2046.35 607.51 1964.31 557.506 2036.57 520.55C2108.84 483.594 2217.85 496.948 2269.95 467.809C2323.09 442.049 2373.32 439.366 2478.81 428.509C2541.59 462.942 2594.15 534.363 2686.62 559.053C2795.24 591.725 2738.24 569.903 2923.57 580.181C3108.9 590.459 3130.14 643.429 3266.26 583.196C3390.89 517.493 3342.27 471.918 3489.37 530.313C3636.47 588.709 3662.35 588.105 3763.02 591.725C3884 598.964 3851.5 547.06 4000.81 527.789C4150.12 508.519 4139.74 508.687 4236.88 577.218C4334.02 645.749 4283.33 636.353 4411.98 658.931C4540.62 681.51 4550.02 673.461 4669.17 619.021C4788.31 564.58 4776.45 532.726 4947.24 548.812C5118.02 564.899 5074.38 555.202 5192.64 598.964C5310.9 642.725 5401.95 708.936 5482.29 595.948C5562.62 482.961 5500.43 511.898 5621.21 463.286C5742 414.674 5856.1 391.067 5918.19 455.809C5980.29 520.55 5937.9 513.296 6066.76 559.053C6192.48 603.641 6335.78 569.555 6403.19 620.774C6456 682.948 6437.21 764.967 6586.83 744.659C6741.57 719.273 6812.33 741.92 6909.5 611.634C7006.67 481.349 6967.38 454.578 7148.74 440.828C7330.1 427.078 7440.05 455.427 7499.67 502.544C7559.29 549.661 7525.93 529.1 7626.57 636.879C7727.21 744.659 7712.14 750.982 7808.12 784.405C7885.82 817.829 7942.59 781.829 8018.86 778.875C8095.13 775.921 8110.9 785.393 8223.95 731.335C8347.95 675.77 8343.64 674.265 8442.19 607.346C8533.9 538.911 8623.36 504.078 8721.24 508.519C8802.57 513.354 8846.9 526.63 8940.43 566.992C9039.81 609.629 8946.14 649.333 9116.31 599.189C9286.48 549.046 9333.09 550.202 9391.21 489.166C9449.33 428.129 9574.48 352.6 9647.36 397.49C9708.35 431.886 9787.8 479.342 9819.5 475.723C9852.6 489.62 9937.65 554.459 10018.5 589.683C10116.1 629.297 10101.9 653.192 10216.3 615.945C10330.7 578.698 10221 566.692 10412.1 579.631C10603.3 592.569 10560.2 585.044 10687.7 605.533C10815.3 626.022 10850.7 618.146 10945.6 592.569C11040.4 566.992 11085.7 552.788 11188.6 566.992C11291.6 581.196 11202.5 607.566 11283.2 641.824C11363.9 676.082 11410.3 685.529 11486 635.434C11561.7 585.34 11559.7 607.222 11619.7 544.101C11672.3 490.759 11738.3 426.854 11800.8 471.401C11863.3 515.948 11906.1 561.971 11981 507.914C12064.9 449.979 12001.9 410.587 12134.5 403.125C12267 395.664 12270.9 353.273 12327.8 428.37C12384.7 503.468 12398.6 502.971 12525.2 536.002C12651.7 569.033 12560.8 593.557 12743.4 616.907C12925.9 640.256 12841.5 623.346 12981 591.865C13120.6 560.385 13066.4 577.428 13180.2 592.523C13294 607.618 13334.3 607.291 13392.9 577.031C13451.5 546.772 13467.9 527.369 13627 538.759C13786.2 550.149 13813.2 543.722 13903.5 538.759C13993.8 533.796 14014.7 477.821 14138 515.183C14261.3 552.545 14248.7 596.004 14378.8 584.01C14508.9 572.017 14525.8 532.846 14613.6 532.846C14701.4 532.846 14685.4 545.548 14768 557.456C14850.7 569.363 14888.8 569.291 14962.1 569.363C15035.4 569.435 15047.8 588.749 15129.5 601.363C15211.1 613.977 15215.5 633.108 15309.9 577.031C15404.2 520.955 15431.5 533.793 15520.3 507.714" stroke="#EFD3D2" stroke-width="3"/>
<path d="M1 609.929C26.3279 604.759 91.368 590.447 172.644 575.818C271.488 557.796 280.663 503.461 399.714 534.436C525.417 559.929 516.466 556.86 627.549 566.378C738.633 575.896 691.311 615.567 803.277 619.766C915.243 623.964 915.178 625.872 979.318 665.368C1043.46 704.865 1137.26 702.543 1222.44 687.327C1307.63 672.11 1362.64 653.686 1411.41 672.347C1460.17 691.009 1577.37 696.204 1586.95 727.341C1596.52 758.478 1550.02 764.469 1606.6 789.157C1663.18 813.844 1616.36 861.649 1688.13 881.855C1759.89 902.061 1811.24 852.966 1833.54 800.622C1855.84 748.278 1844.5 693.902 1939.77 669.296C2035.04 644.69 1947.71 594.56 2019.28 556.439C2090.86 518.319 2203.2 535.288 2257.33 505.69C2312.27 478.796 2360.4 476.3 2463.57 462.377C2519.16 495.976 2576.16 567.315 2667.1 595.448C2775.19 632.062 2712.69 610.414 2901.86 622.827C3091.02 635.24 3110.71 692.108 3249.31 625.239C3378.71 553.994 3325.71 505.485 3480.1 567.567C3634.48 629.649 3659.48 629.166 3761.12 632.062C3879 637.853 3844.5 586.203 3995.05 562.23C4145.6 538.258 4138.69 534.901 4231.9 605.091C4325.12 675.282 4276.17 657.812 4405.88 685.828C4535.6 713.843 4551.62 695.182 4672.33 643.422C4793.05 591.663 4787.76 557.973 4959.69 579.049C5131.62 600.125 5092.4 592.891 5208.21 637.853C5324.02 682.815 5420.76 753.07 5503.43 635.441C5586.1 517.812 5523.64 541.849 5647.07 490.198C5770.5 438.548 5892.98 411.994 5952.45 484.217C6011.93 556.439 5961.02 548.366 6093.81 595.448C6224.08 641.595 6362.72 605.072 6427.95 659.492C6481.5 722.676 6455.07 805.404 6608.67 789.157C6766.36 768.848 6834.17 790.807 6927.5 657.943C7020.83 525.078 6972.4 500.344 7154.19 484.106C7335.98 467.867 7442.24 496.134 7499.83 542.034C7557.43 587.935 7518.14 567.12 7618.36 678.139C7718.57 789.157 7702.21 795.875 7794.6 831.388C7872.36 866.9 7929.07 829.326 8006.99 826.963C8084.9 824.6 8099.02 835.538 8216.26 778.498C8342.26 720.252 8333.21 721.841 8428.95 648.75C8519.22 574.446 8606.29 534.705 8707.19 538.258C8794.86 542.126 8842.92 553.096 8936.14 593.593C9034.05 635.909 8942.21 674.656 9115.05 622.668C9287.88 570.68 9336.48 571.479 9397.07 510.902C9457.67 450.325 9585.88 374.102 9659.79 423.788C9721.06 462.324 9799.01 510.959 9830 512.022C9862.48 531.695 9946.94 601.831 10029.3 634.62C10129.5 672.073 10120.6 693.632 10236.5 652.398C10352.5 611.164 10240.3 591.781 10436.6 607.021C10632.9 622.261 10587.5 617.907 10714.7 636.035C10841.9 654.164 10884.6 650.93 10973.9 622.261C11063.1 593.593 11108 574.023 11213.2 593.593C11318.5 613.163 11223.5 636.702 11303.1 673.102C11382.6 709.501 11432.4 722.56 11506.4 671.221C11580.3 619.881 11577.1 633.985 11637 572.053C11691 517.944 11759.6 451.911 11824.5 500.72C11889.5 549.53 11933.3 599.521 12010.5 543.103C12094.9 483.583 12028 446.93 12160.9 436.402C12293.7 425.873 12299.9 382.189 12356.5 456.598C12413.2 531.006 12428.2 532.604 12552.3 565.573C12676.5 598.543 12581.7 622.474 12770.3 645.134C12958.9 667.794 12866.9 648.538 13010.1 616.809C13153.4 585.08 13107.6 605.517 13220 625.627C13332.3 645.737 13374.8 647.719 13435.9 618.373C13497 589.026 13512.9 568.365 13675.2 582.616C13837.6 596.867 13864.2 591.508 13954.5 582.616C14044.8 573.724 14066.5 517.281 14188.9 555.463C14311.3 593.645 14299.2 638.689 14427 623.956C14554.9 609.222 14568.4 569.593 14652 569.593C14735.5 569.593 14720.6 580.014 14800.7 597.573C14880.8 615.133 14920.4 611.844 14988.9 615.133C15057.3 618.421 15074.9 636.432 15150.8 647.03C15226.6 657.627 15230.7 676.664 15320.9 618.373C15411.1 560.081 15439.9 570.261 15522.2 546.17" stroke="#EFD2D1" stroke-width="3"/>
<path d="M1 642.816C25.5094 637.265 90.7415 622.137 173.399 606.974C274.658 588.22 281.209 531.317 405.893 565.243C535.567 595.057 522.899 594.938 636.315 604.041C749.731 613.144 698.692 659.049 813.431 663.289C928.171 667.53 926.468 667.651 989.79 709.932C1053.11 752.214 1131.73 752.219 1215.47 736.005C1299.21 719.791 1360.64 697.46 1409.79 715.166C1458.94 732.873 1581.24 737.861 1588.42 770.162C1595.6 802.464 1542.86 810.449 1603.16 833.767C1663.46 857.084 1607.5 905.597 1679.52 927.299C1751.54 949.002 1798.98 898.867 1820.34 842.366C1841.7 785.865 1825.25 729.368 1924.49 705.675C2023.73 681.983 1931.1 631.725 2001.99 592.44C2072.87 553.155 2188.56 573.739 2244.7 543.684C2301.46 515.655 2347.47 513.347 2448.34 496.356C2496.73 529.122 2558.17 600.379 2647.57 631.955C2755.14 672.511 2687.14 651.037 2880.14 665.585C3073.14 680.133 3091.29 740.9 3232.36 667.395C3366.54 590.606 3309.16 539.164 3470.82 604.933C3632.48 670.702 3656.61 670.34 3759.21 672.511C3874 676.855 3837.5 625.458 3989.29 596.784C4141.07 568.109 4137.64 561.226 4226.93 633.076C4316.21 704.926 4269 679.383 4399.79 712.836C4530.57 746.289 4553.21 717.014 4675.5 667.936C4797.79 618.858 4799.07 583.332 4972.14 609.398C5145.21 635.463 5110.43 630.692 5223.79 676.855C5337.14 723.018 5439.57 797.317 5524.57 675.046C5609.57 552.775 5546.86 571.912 5672.93 517.223C5799 462.534 5929.86 433.033 5986.71 512.736C6043.57 592.44 5984.14 583.548 6120.86 631.955C6255.69 679.661 6389.67 640.701 6452.71 698.323C6507 762.517 6472.93 845.952 6630.5 833.767C6791.14 818.535 6856 839.806 6945.5 704.363C7035 568.919 6977.43 546.221 7159.64 527.495C7341.86 508.769 7444.43 536.953 7500 581.637C7555.57 626.32 7510.36 605.253 7610.14 719.51C7709.93 833.767 7692.29 840.881 7781.07 878.482C7858.89 916.083 7915.55 876.936 7995.12 875.164C8074.68 873.391 8087.14 885.796 8208.57 825.773C8336.57 764.845 8322.79 769.53 8415.71 690.266C8504.54 610.092 8589.21 565.445 8693.14 568.109C8787.14 571.011 8838.94 579.675 8931.86 620.305C9028.29 662.301 8938.29 700.092 9113.79 646.259C9289.29 592.426 9339.86 592.868 9402.93 532.751C9466 472.633 9597.29 395.715 9672.21 450.197C9733.77 492.873 9810.21 542.688 9840.5 548.432C9872.36 573.882 9956.23 649.314 10040.1 679.668C10142.9 714.961 10139.4 734.185 10256.8 688.963C10374.2 643.742 10259.6 616.982 10461.1 634.524C10662.6 652.065 10614.7 650.882 10741.6 666.65C10868.6 682.417 10918.4 683.825 11002.1 652.065C11085.9 620.305 11130.2 595.37 11237.8 620.305C11345.4 645.241 11244.5 665.951 11322.9 704.491C11401.4 743.032 11454.6 759.704 11526.8 707.119C11599 654.534 11594.4 660.86 11654.2 600.116C11709.6 545.241 11781 477.079 11848.3 530.152C11915.6 583.225 11960.5 637.183 12040 578.404C12124.9 517.299 12054.1 483.386 12187.3 469.79C12320.4 456.194 12328.9 411.218 12385.3 484.937C12441.6 558.656 12457.8 562.349 12579.5 595.257C12701.2 628.165 12602.5 651.503 12797.2 673.474C12991.9 695.444 12892.3 673.842 13039.2 641.864C13186.1 609.887 13148.9 633.719 13259.7 658.843C13370.6 683.968 13415.4 688.259 13478.9 659.826C13542.5 631.393 13557.9 609.473 13723.4 626.585C13888.9 643.696 13915.1 639.406 14005.5 626.585C14095.9 613.764 14118.2 556.853 14239.8 595.855C14361.4 634.856 14349.6 681.486 14475.3 664.013C14600.9 646.54 14611.1 606.453 14690.4 606.453C14769.6 606.453 14755.9 614.591 14833.4 637.803C14911 661.015 14952.1 654.51 15015.6 661.015C15079.2 667.519 15102.1 684.226 15172.1 692.808C15242.1 701.389 15245.9 720.333 15331.9 659.826C15417.9 599.318 15448.3 606.84 15524 584.738" stroke="#EFD0CF" stroke-width="3"/>
<path d="M1 675.804C24.6908 669.873 90.115 653.928 174.155 638.232C277.829 618.745 281.755 559.274 412.073 596.152C545.717 630.288 529.332 633.119 645.081 641.806C760.829 650.494 706.072 702.633 823.585 706.915C941.098 711.197 937.758 709.531 1000.26 754.598C1062.77 799.665 1126.21 801.996 1208.5 784.784C1290.78 767.573 1358.65 741.336 1408.17 758.087C1457.7 774.839 1585.11 779.619 1589.89 813.085C1594.68 846.552 1535.7 856.532 1599.72 878.479C1663.74 900.426 1598.65 949.647 1670.92 972.846C1743.19 996.045 1786.72 944.869 1807.14 884.212C1827.55 823.554 1806 764.936 1909.21 742.156C2012.42 719.377 1914.5 668.993 1984.7 628.543C2054.89 588.093 2173.91 612.293 2232.07 581.779C2290.64 552.617 2334.55 550.496 2433.11 530.438C2474.3 562.371 2540.18 633.545 2628.05 668.564C2735.1 713.063 2661.6 691.762 2858.43 708.445C3055.26 725.128 3071.86 789.794 3215.4 709.651C3354.36 627.32 3292.61 572.945 3461.55 642.401C3630.49 711.856 3653.74 711.615 3757.31 713.063C3869 715.958 3830.5 664.815 3983.52 631.439C4136.55 598.063 4136.6 587.653 4221.95 661.163C4307.31 734.672 4261.83 701.055 4393.69 739.946C4525.55 778.836 4554.81 738.948 4678.67 692.551C4802.52 646.155 4810.38 608.793 4984.6 639.848C5158.81 670.903 5128.45 668.595 5239.36 715.958C5350.26 763.321 5458.38 841.665 5545.71 714.752C5633.05 587.839 5570.07 602.076 5698.79 544.349C5827.5 486.622 5966.74 454.173 6020.98 541.358C6075.21 628.543 6007.26 618.832 6147.9 668.564C6287.29 717.829 6416.61 676.432 6477.48 737.255C6532.5 802.459 6490.79 886.602 6652.33 878.479C6815.93 868.325 6877.83 888.908 6963.5 750.885C7049.17 612.862 6982.45 592.2 7165.1 570.986C7347.74 549.773 7446.62 577.874 7500.17 621.341C7553.71 664.808 7502.57 643.487 7601.93 760.983C7701.29 878.479 7682.36 885.988 7767.55 925.678C7845.43 965.369 7902.04 924.647 7983.24 923.466C8064.45 922.284 8075.26 936.155 8200.88 873.15C8330.88 809.541 8312.36 817.32 8402.48 731.883C8489.86 645.84 8572.14 596.286 8679.1 598.063C8779.43 599.997 8834.96 606.355 8927.57 647.12C9022.52 688.795 8934.36 725.629 9112.52 669.951C9290.69 614.273 9343.24 614.358 9408.79 554.701C9474.33 495.044 9608.69 417.43 9684.64 476.709C9746.48 523.525 9821.42 574.519 9851 584.944C9882.24 616.171 9965.52 696.899 10050.9 724.818C10156.2 757.95 10158.1 774.84 10277 725.631C10396 676.422 10278.9 642.285 10485.5 662.128C10692.2 681.971 10642 683.959 10768.6 697.366C10895.2 710.772 10952.3 716.822 11030.4 681.971C11108.6 647.12 11152.5 616.818 11262.4 647.12C11372.2 677.422 11265.5 695.301 11342.8 735.983C11420.1 776.664 11476.7 796.949 11547.2 743.119C11617.7 689.288 11611.8 687.836 11671.5 628.282C11728.2 572.64 11802.3 502.35 11872 559.685C11941.7 617.021 11987.6 674.947 12069.5 613.807C12155 551.117 12080.3 519.944 12213.7 503.28C12347.1 486.617 12358 440.349 12414 513.378C12470.1 586.408 12487.4 592.196 12606.7 625.042C12726 657.889 12623.3 680.633 12824.1 701.915C13025 723.196 12917.7 699.248 13068.3 667.022C13218.9 634.796 13190.1 662.023 13299.5 692.161C13408.9 722.3 13455.9 728.9 13522 701.381C13588 673.861 13603 650.684 13771.6 670.656C13940.3 690.628 13966.1 687.405 14056.5 670.656C14146.9 653.906 14170 596.527 14290.7 636.349C14411.4 676.17 14400.1 724.386 14523.5 704.172C14647 683.959 14653.7 643.414 14728.7 643.414C14803.8 643.414 14791.1 649.271 14866.1 678.135C14941.2 706.998 14983.7 697.278 15042.4 706.998C15101.1 716.719 15129.2 732.123 15193.4 738.688C15257.5 745.254 15261.1 764.103 15343 701.381C15424.8 638.658 15456.7 643.522 15525.8 623.409" stroke="#EECECE" stroke-width="3"/>
<path d="M1 708.885C23.8723 702.572 89.4885 685.811 174.91 669.582C280.999 649.362 282.301 587.323 418.252 627.152C555.867 665.61 535.765 671.39 653.846 679.663C771.927 687.936 713.453 746.308 833.739 750.631C954.026 754.955 949.048 751.503 1010.73 799.355C1072.42 847.207 1120.68 851.865 1201.52 833.655C1282.36 815.446 1356.65 785.303 1406.56 801.1C1456.46 816.897 1588.97 821.469 1591.37 856.1C1593.76 890.731 1528.54 902.705 1596.28 923.282C1664.02 943.86 1589.79 993.789 1662.31 1018.48C1734.84 1043.18 1774.47 990.963 1793.94 926.149C1813.41 861.334 1786.75 800.595 1893.93 778.729C2001.11 756.863 1897.9 706.352 1967.4 664.737C2036.9 623.123 2159.27 650.937 2219.44 619.965C2279.82 589.669 2321.63 587.736 2417.88 564.611C2451.87 595.711 2522.19 666.802 2608.52 705.265C2715.05 753.705 2636.05 732.579 2836.71 751.397C3037.38 770.215 3052.43 838.779 3198.45 752C3342.18 664.126 3276.05 606.818 3452.27 679.96C3628.49 753.102 3650.87 752.982 3755.4 753.705C3864 755.153 3823.5 704.263 3977.76 666.185C4132.02 628.107 4135.55 614.172 4216.98 689.341C4298.4 764.51 4254.67 722.82 4387.6 767.147C4520.52 811.474 4556.4 760.973 4681.83 717.258C4807.26 673.543 4821.69 634.346 4997.05 670.39C5172.4 706.434 5146.48 706.59 5254.93 755.153C5363.38 803.717 5477.19 886.105 5566.86 754.55C5656.52 622.996 5593.29 632.332 5724.64 571.567C5856 510.801 6003.62 475.405 6055.24 570.071C6106.86 664.737 6030.38 654.207 6174.95 705.265C6318.9 756.089 6443.56 712.254 6502.24 776.278C6558 842.493 6508.64 927.344 6674.17 923.282C6840.71 918.205 6899.67 938.1 6981.5 797.499C7063.33 656.897 6987.48 638.271 7170.55 614.569C7353.62 590.868 7448.81 618.886 7500.33 661.136C7551.86 703.386 7494.79 681.813 7593.71 802.548C7692.64 923.282 7672.43 931.187 7754.02 972.966C7831.96 1014.75 7888.52 972.45 7971.37 971.86C8054.23 971.269 8063.38 986.606 8193.19 920.618C8325.19 854.328 8301.93 865.202 8389.24 773.592C8475.18 681.68 8555.07 627.219 8665.05 628.107C8771.71 629.075 8830.98 633.127 8923.29 674.026C9016.76 715.38 8930.43 751.258 9111.26 693.735C9292.1 636.213 9346.62 635.94 9414.64 576.743C9482.67 517.545 9620.1 439.237 9697.07 503.311C9759.19 554.267 9832.63 606.441 9861.5 621.548C9892.12 658.551 9974.81 744.576 10061.7 770.06C10169.6 801.031 10176.8 815.586 10297.3 762.39C10417.7 709.194 10298.2 667.68 10510 689.824C10721.9 711.968 10669.2 717.127 10795.5 728.173C10921.9 739.219 10986.1 749.91 11058.7 711.968C11131.3 674.026 11174.7 638.358 11286.9 674.026C11399.1 709.693 11286.5 724.743 11362.6 767.566C11438.8 810.388 11498.9 834.286 11567.6 779.21C11636.3 724.134 11629.1 714.904 11688.7 656.539C11746.9 600.13 11823.7 527.712 11895.8 589.31C11967.9 650.909 12014.8 712.802 12099 649.302C12185 585.026 12106.4 556.593 12240.1 536.862C12373.8 517.132 12387 469.571 12442.8 541.911C12498.5 614.252 12516.9 622.135 12633.8 654.919C12750.7 687.704 12644.2 709.855 12851.1 730.448C13058 751.04 12943.1 724.745 13097.4 692.271C13251.7 659.796 13231.3 690.418 13339.2 725.571C13447.2 760.724 13496.5 769.633 13565 743.027C13633.5 716.421 13648 691.986 13819.8 714.818C13991.6 737.651 14017 735.497 14107.5 714.818C14198 694.14 14221.7 636.293 14341.6 676.934C14461.5 717.575 14450.5 767.376 14571.8 744.423C14693 721.47 14696.4 680.467 14767.1 680.467C14837.9 680.467 14826.3 684.042 14898.8 718.558C14971.3 753.073 15015.4 740.137 15069.2 753.073C15123.1 766.01 15156.4 780.111 15214.7 784.66C15273 789.209 15276.3 807.965 15354 743.027C15431.6 678.089 15465.1 680.294 15527.7 662.17" stroke="#EECDCC" stroke-width="3"/>
</svg>
