<svg width="1920" height="1073" viewBox="0 0 1920 1073" fill="none" xmlns="http://www.w3.org/2000/svg">
<path d="M-3106 312.541C-3027.51 315.158 -2858.9 310.796 -2812.34 272.413C-2754.13 224.433 -2699.9 171.22 -2628.47 187.794C-2557.04 204.369 -2541.16 138.07 -2476.34 141.559C-2411.53 145.049 -2383.75 177.326 -2305.7 169.475C-2227.66 161.624 -1875.79 119.751 -1766 121.496C-1656.21 123.24 -1710.44 171.219 -1668.11 206.114C-1625.78 241.008 -1595.36 249.731 -1545.09 261.072C-1494.82 272.413 -1435.3 244.497 -1441.91 292.477C-1448.53 340.456 -1340.06 376.223 -1272.59 370.989C-1205.13 365.754 -1087.4 334.35 -1049.04 352.669C-1010.68 370.989 -935.277 352.669 -907.498 312.541C-879.719 272.413 -877.073 224.433 -793.737 206.114C-710.4 187.794 -654.842 143.305 -635 121.496C-610.833 113.878 -526.9 108.198 -384.5 146.412C-206.5 194.179 -225 266.923 -108 236.518C9 206.114 40 181.514 164 157.63C288 133.746 334 124.338 430.5 170.296C527 216.254 516 175.709 686.5 206.114C857 236.518 856.5 180.56 986 236.518C1115.5 292.477 1049.5 349.061 1209.5 391.039C1369.5 433.016 1291 552.796 1402.5 488.383C1514 423.969 1417.5 585.727 1511.5 488.383C1605.5 391.039 1488.5 388.559 1641 324.816C1793.5 261.072 1679 211.965 1836.5 236.518C1994 261.072 1994 262.573 2037 223.853C2080 185.132 2022 292.477 2100.5 292.477C2179 292.477 2159 316.03 2263 261.072C2367 206.114 2461 211.965 2527 236.518C2579.8 256.161 2797.67 261.072 2900 261.072C2941 307.08 3044.5 377.773 3130.5 292.477C3238 185.856 3356 219.51 3514.5 130.489C3673 41.4684 3780 -17.879 3954.5 8.17597C4129 34.2309 4298 63.9046 4390 130.489C4482 197.074 4543.5 180.56 4651 236.518C4758.5 292.477 4764 292.477 4917.5 292.477C5071 292.477 5148 249.184 5240 236.518C5332 223.853 5403.5 172.829 5547 204.674C5661.8 230.149 5789.5 273.824 5839 292.477C5819 312.786 5803.6 362.957 5902 401.171C6025 448.938 5902 503.943 6029.5 483.317C6157 462.69 6172 469.565 6190.5 401.171C6209 332.777 6285 268.363 6341.5 236.518C6398 204.674 6501.5 233.262 6544.5 154.735C6587.5 76.2083 6682 56.3052 6738.5 130.489C6795 204.674 6695.5 265.928 6785.5 292.477C6875.5 319.026 6805 425.055 6913.5 401.171C7022 377.287 7017 319.026 7149.5 377.287C7282 435.549 7202 353.404 7386 377.287C7570 401.171 7622.5 472.822 7688.5 401.171C7754.5 329.52 7759.5 401.171 7858.5 401.171C7957.5 401.171 7949 352.812 8052.5 322.644C8156 292.477 8175 438.806 8236.5 356.661C8298 274.515 8326.5 237.242 8402 204.674C8477.5 172.105 8477 88.8739 8605 130.489C8733 172.105 8699.5 150.392 8761 236.518C8822.5 322.644 8818.5 288.628 8983.5 322.644C9148.5 356.661 9120.5 390.677 9205.5 425.055C9290.5 459.433 9328 480.06 9408.5 452.557C9489 425.055 9300 387.782 9437 322.644C9574 257.507 9578.5 220.234 9597.5 175.362C9616.5 130.489 9640.5 131.213 9749 96.8351C9857.5 62.4571 9891 38.9352 9980.5 96.8351C10070 154.735 10079.5 106.244 10216.5 130.489C10353.5 154.735 10334.5 172.829 10500 204.674C10665.5 236.518 10736.5 204.674 10892.5 204.674C11048.5 204.674 11015 253.888 11138 175.362C11261 96.8351 11275.5 148.221 11426.5 96.8351C11577.5 45.449 11506.5 85.617 11681.5 130.489C11856.5 175.362 11865.5 195.989 12026.5 175.362C12187.5 154.735 12190 210.102 12384 152.202" stroke="#F3EEEA" stroke-width="3"/>
<path d="M-3106 742.049C-3083.95 735.356 -3018.14 717.778 -2931.33 701.016C-2822.83 680.063 -2824.15 615.457 -2682.57 658.236C-2540.98 701.016 -2564.8 709.746 -2444.39 717.604C-2323.97 725.461 -2386.17 790.067 -2263.11 794.432C-2140.05 798.798 -2146.66 793.559 -2085.79 844.196C-2024.93 894.833 -1991.85 901.818 -1912.45 882.611C-1833.06 863.404 -1752.34 829.354 -1702.06 844.196C-1651.78 859.038 -1514.16 863.403 -1514.16 899.199C-1514.16 934.994 -1585.62 948.963 -1514.16 968.17C-1442.71 987.377 -1526.07 1038.01 -1453.29 1064.21C-1380.52 1090.4 -1344.79 1037.14 -1326.26 968.17C-1307.74 899.199 -1339.5 836.339 -1228.35 815.386C-1117.19 794.432 -1225.7 743.795 -1156.89 701.016C-1088.08 658.236 -962.377 689.666 -900.186 658.236C-837.994 626.806 -798.298 625.06 -704.349 598.868C-677.566 629.134 -602.8 700.143 -518 742.049C-412 794.432 -496.5 773.479 -292 794.432C-87.5 815.386 -74 887.849 74.5 794.432C223 701.016 152.5 640.775 336 717.604C519.5 794.432 541 794.432 646.5 794.432C752 794.432 709.5 743.795 865 701.016C1020.5 658.236 1027.5 640.775 1105 717.604C1182.5 794.432 1140.5 744.668 1274.5 794.432C1408.5 844.196 1451 783.083 1578 742.049C1705 701.016 1726 659.982 1902.5 701.016C2079 742.049 2057.5 744.668 2163.5 794.432C2269.5 844.196 2389 930.628 2481 794.432C2573 658.236 2509.5 662.672 2643.5 598.868C2777.5 535.065 2933.5 496.721 2982.5 598.868C3031.5 701.016 2946.5 689.666 3095 742.049C3243.5 794.432 3363.5 748.16 3420 815.386C3476.5 882.611 3419.5 968.17 3589 968.17C3758.5 968.17 3814.5 987.377 3892.5 844.196C3970.5 701.016 3885.5 684.426 4069 658.236C4252.5 632.047 4344 659.982 4393.5 701.016C4443 742.049 4380 720.223 4478.5 844.196C4577 968.17 4555.5 976.469 4633.5 1020.34C4711.5 1064.21 4768 1020.34 4852.5 1020.34C4937 1020.34 4944.5 1037.14 5078.5 968.17C5212.5 899.199 5184.5 913.168 5269 815.386C5353.5 717.604 5431 658.236 5544 658.236C5657 658.236 5720 659.982 5812 701.016C5904 742.049 5819.5 776.971 6003 717.604C6186.5 658.236 6243 657.606 6313.5 598.868C6384 540.131 6524.5 461.128 6602.5 529.998C6664.9 585.094 6736.83 638.447 6765 658.236C6795 701.016 6877.1 792.337 6965.5 815.386C7076 844.196 7088.5 856.416 7210.5 799.233C7332.5 742.049 7210.5 693.158 7427.5 717.604C7644.5 742.049 7589.5 750.38 7715.5 759.065C7841.5 767.75 7913 783.083 7980 742.049C8047 701.016 8090 659.982 8204.5 701.016C8319 742.049 8200.5 754.269 8275.5 799.233C8350.5 844.196 8414 871.707 8481 815.386C8548 759.065 8539.5 742.056 8599 684.88C8658.5 627.704 8738 553.158 8812.5 619.019C8887 684.88 8935 750.741 9021.5 684.88C9108 619.019 9025.5 593.326 9159.5 570.528C9293.5 547.73 9309 498.877 9364.5 570.528C9420 642.179 9439.5 652.157 9554 684.88C9668.5 717.604 9558 739.161 9771 759.065C9984 778.968 9861.5 750.327 10019.5 717.604C10177.5 684.88 10165.5 718.897 10272 759.065C10378.5 799.233 10430 810.451 10501 784.758C10572 759.065 10586 733.371 10761 759.065C10936 784.758 10961 783.672 11051.5 759.065C11142 734.457 11166.5 676.143 11285.5 717.604C11404.5 759.065 11394 810.451 11513 784.758C11632 759.065 11632 717.604 11698.5 717.604C11765 717.604 11754.5 718.897 11824.5 759.065C11894.5 799.233 11940 783.08 11989 799.233C12038 815.386 12076.5 828.182 12129 830.716C12181.5 833.249 12184.5 851.912 12258 784.758C12331.5 717.604 12366.5 717.151 12422.5 701.016" stroke="#EECBCB" stroke-width="3"/>
<path d="M-3106 325.035C-3067.58 325.962 -3005.61 324.71 -2946.44 318.615C-2886.24 312.321 -2835.07 299.067 -2806.16 282.826C-2743.98 239.169 -2693.47 188.905 -2619.7 205.065C-2545.94 221.224 -2533.78 161.159 -2466.19 164.69C-2398.6 168.221 -2372.46 198.712 -2295.23 193.646C-2218 188.58 -1881.32 149.033 -1772.97 149.78C-1664.63 150.527 -1712.44 194.601 -1669.73 228.54C-1627.02 262.479 -1591.49 270.995 -1543.62 283.5C-1495.74 296.005 -1442.46 270.085 -1445.35 316.694C-1448.25 363.303 -1348.91 399.778 -1281.2 396.04C-1213.48 392.303 -1099.66 359.857 -1062.24 374.02C-1024.82 388.183 -954.525 367.742 -922.776 328.527C-891.027 289.312 -893.674 241.206 -811.03 221.722C-728.385 202.238 -669.487 161.363 -647.628 139.096C-621.651 130.345 -539.824 124.852 -399.731 159.999C-228.932 206.933 -242.991 279.594 -127.524 252.633C-11.0477 226.17 14.4523 201.744 142.286 179.995C270.119 158.247 314.571 152.737 413.548 192.058C466.571 209.494 483.571 207.914 521.476 211.01C559.381 214.106 598.381 211.692 684.595 226.17C852 255.127 849.5 199.422 980.238 250.679C1110.98 301.935 1048.45 354.994 1204.52 398.631C1360.6 442.268 1283.83 553.974 1396.4 494.998C1508.98 436.021 1419.1 587.166 1514.67 492.503C1610.24 397.841 1499.81 393.526 1653.45 334.771C1807.1 276.017 1697.02 229.373 1852.07 255.127C2007.12 280.881 2012.81 286.427 2058.14 243.065C2103.48 199.702 2045.21 302.146 2126.36 299.108C2207.5 296.07 2195.88 316.676 2297.26 269.199C2398.64 221.722 2484.12 226.754 2554.05 252.633C2611.4 273.835 2824.61 276.308 2924.76 279.509C2966.5 326.528 3062.36 397.929 3152.33 316.694C3262.79 215.15 3377.83 248.117 3532.5 156.517C3687.17 64.9168 3785.02 7.60546 3959.95 31.1726C4134.88 54.7397 4300.19 84.3306 4390.17 149.699C4480.14 215.067 4535.71 198.3 4642.79 257.497C4749.86 316.694 4754.07 317.089 4903.98 319.178C4980.79 321.267 5038.36 308.87 5089.94 297.055C5141.52 285.239 5182.12 272.716 5232.31 263.4C5326.31 248.054 5393.07 200.124 5533.76 225.796C5647.12 245.403 5772.43 284.171 5824.95 301.935C5811.29 321.277 5799.62 369.143 5897.71 407.491C6019.24 454.937 5898.07 508.986 6028.24 486.514C6158.4 464.043 6175.38 470.561 6196.36 402.627C6217.33 334.692 6296.4 269.584 6353.93 242.535C6410.71 214.83 6512.71 244.597 6555 170.753C6597.38 98.0024 6691.29 83.3957 6749.31 155.145C6808.38 227.168 6714.21 286.087 6805.74 308.649C6897.26 331.211 6824.31 429.863 6937.98 408.281C7051.64 386.698 7044.26 331.608 7176.45 387.509C7308.64 443.41 7235.86 365.906 7414.29 386.698C7592.71 407.491 7644.76 473.776 7713.07 407.491C7781.38 341.206 7780.5 410.027 7878.36 412.168C7976.21 414.309 7971.14 369.563 8072.9 338.15C8174.67 306.736 8192.36 445.288 8253.76 364.331C8285.88 322.492 8311.1 290.509 8337.74 271.114C8364.38 251.72 8391.43 238.227 8431.5 219.582C8507.52 185.428 8503.12 104.937 8631.4 143.485C8759.69 182.033 8728.52 159.028 8789.74 244.465C8850.95 329.902 8848.07 297.981 9010.67 331.935C9173.26 365.89 9141.33 399.313 9232.43 433.001C9323.52 466.69 9353.41 484.971 9437.6 457.22C9521.79 429.469 9341.21 395.591 9476.76 335.468C9612.31 275.345 9619.05 240.381 9640.52 196.422C9662 152.463 9685.52 151.929 9797.19 120.411C9908.86 88.8937 9941.95 66.4402 10031.5 120.411C10121 174.382 10131.3 125.423 10267.4 150.489C10403.5 175.554 10385 195.233 10548.2 224.338C10711.5 253.443 10779.1 221.14 10930.9 221.14C11082.6 221.14 11050.2 268.073 11170.7 195.198C11291.2 122.324 11307.1 170.494 11453.3 122.324C11599.4 74.154 11533.6 113.019 11702.8 155.875C11872 198.731 11880.7 219.264 12037.5 196.422C12194.4 173.58 12198.4 226.288 12385.8 170.377" stroke="#F3ECE9" stroke-width="3"/>
<path d="M-3106 337.565C-3068.39 338.111 -3006.23 336.042 -2945.69 329.414C-2883.07 322.387 -2834.53 306.566 -2799.98 293.276C-2733.83 253.94 -2687.03 206.626 -2610.94 222.371C-2534.84 238.115 -2526.4 184.283 -2456.04 187.856C-2385.67 191.429 -2361.17 220.133 -2284.76 217.852C-2208.35 215.572 -1886.84 178.352 -1779.95 178.101C-1673.05 177.85 -1714.43 218.017 -1671.34 251.002C-1628.26 283.986 -1587.62 292.295 -1542.14 305.964C-1496.66 319.634 -1449.61 295.707 -1448.79 340.947C-1447.97 386.186 -1357.77 423.369 -1289.8 421.127C-1221.83 418.886 -1111.91 385.4 -1075.44 395.406C-1038.97 405.413 -973.774 382.851 -938.055 344.549C-902.336 306.247 -910.276 258.014 -828.323 237.365C-746.37 216.716 -684.131 179.457 -660.256 156.732C-632.468 146.847 -552.747 141.541 -414.962 173.621C-251.363 219.722 -260.981 292.301 -147.048 268.783C-31.0952 246.262 -11.0951 222.01 120.572 202.396C252.238 182.783 295.143 181.171 396.595 213.855C454.393 225.749 467.018 221.236 512.202 228.019C557.387 234.801 595.512 232.508 682.69 246.262C847 273.771 842.5 218.32 974.476 264.875C1106.45 311.429 1047.4 360.962 1199.55 406.258C1351.69 451.555 1276.67 555.188 1390.31 501.649C1503.95 448.109 1420.69 588.641 1517.83 496.66C1614.98 404.679 1511.12 398.528 1665.9 344.763C1820.69 290.998 1715.05 246.817 1867.64 273.771C2020.24 300.726 2031.62 310.316 2079.29 262.312C2126.95 214.308 2068.43 311.852 2152.21 305.775C2236 299.699 2232.76 317.357 2331.52 277.361C2430.29 237.365 2507.24 241.579 2581.1 268.783C2643.01 291.543 2851.56 291.58 2949.52 297.982C2992 346.011 3080.21 418.12 3174.17 340.947C3287.57 244.48 3399.67 276.759 3550.5 182.58C3701.33 88.4007 3790.05 33.1255 3965.4 54.2047C4140.76 75.284 4302.38 104.792 4390.33 168.943C4478.29 233.095 4527.93 216.075 4634.57 278.511C4741.21 340.947 4744.14 341.737 4890.45 345.915C4967.32 350.093 5024.84 336.123 5078.07 324.898C5131.3 313.673 5170.24 302.616 5224.62 290.318C5320.62 272.29 5382.64 227.455 5520.52 246.955C5632.44 260.692 5755.36 294.553 5810.9 311.429C5803.57 329.804 5795.64 375.364 5893.43 413.846C6013.48 460.972 5894.14 514.064 6026.98 489.748C6159.81 465.431 6178.76 471.592 6202.21 404.118C6225.67 336.643 6307.81 270.84 6366.36 248.587C6423.42 225.022 6523.91 255.969 6565.5 186.806C6607.26 119.832 6700.58 110.522 6760.12 179.836C6821.76 249.699 6732.93 306.283 6825.98 324.857C6919.02 343.432 6843.62 434.707 6962.45 415.426C7081.29 396.145 7071.52 344.225 7203.4 397.765C7335.29 451.306 7269.71 378.444 7442.57 396.145C7615.43 413.846 7667.02 474.765 7737.64 413.846C7808.26 352.927 7801.5 418.918 7898.21 423.2C7994.93 427.482 7993.29 386.349 8093.31 353.69C8193.33 321.032 8209.71 451.805 8271.02 372.038C8304.51 329.432 8332.44 295.321 8361.48 280.189C8390.51 265.057 8418.61 255.532 8461 234.526C8537.55 198.786 8529.24 121.035 8657.81 156.516C8786.38 191.997 8757.55 167.7 8818.48 252.447C8879.41 337.195 8877.64 307.368 9037.83 341.261C9198.02 375.154 9162.17 407.984 9259.36 440.984C9356.55 473.983 9378.81 489.918 9466.69 461.918C9554.57 433.918 9382.43 403.435 9516.52 348.327C9650.62 293.218 9659.6 260.563 9683.55 217.518C9707.5 174.472 9730.55 172.68 9845.38 144.023C9960.21 115.366 9992.9 93.9808 10082.5 144.023C10172.1 194.065 10183 144.638 10318.3 170.523C10453.6 196.408 10435.4 217.673 10596.5 244.038C10757.5 270.403 10821.8 237.642 10969.3 237.642C11116.7 237.642 11085.4 282.293 11203.4 215.071C11321.3 147.848 11338.8 192.802 11480.1 147.848C11621.4 102.895 11560.8 140.456 11724.1 181.296C11887.5 222.136 11895.9 242.576 12048.5 217.518C12201.2 192.46 12206.8 242.51 12387.7 188.588" stroke="#F3EBE7" stroke-width="3"/>
<path d="M-3106 350.134C-3069.21 350.3 -3006.86 347.415 -2944.93 340.253C-2879.9 332.493 -2833.98 314.104 -2793.8 303.765C-2723.68 268.752 -2680.6 224.387 -2602.17 239.717C-2523.74 255.046 -2519.02 207.448 -2445.88 211.062C-2372.74 214.677 -2349.88 241.595 -2274.29 242.099C-2198.7 242.603 -1892.37 207.71 -1786.92 206.462C-1681.47 205.213 -1716.43 241.474 -1672.96 273.504C-1629.49 305.533 -1583.76 313.634 -1540.67 328.468C-1497.59 343.302 -1456.77 321.37 -1452.23 365.24C-1447.69 409.109 -1366.63 447 -1298.41 446.255C-1230.18 445.51 -1124.17 410.984 -1088.64 416.833C-1053.11 422.682 -993.022 398 -953.333 360.611C-913.644 323.222 -926.877 274.863 -845.616 253.049C-764.355 231.236 -698.776 197.591 -672.884 174.408C-643.285 163.389 -565.671 158.271 -430.193 187.284C-273.795 232.551 -278.972 305.047 -166.572 284.972C-51.143 266.394 -36.6428 242.315 98.8572 224.837C234.357 207.359 275.714 209.646 379.643 235.693C442.214 242.044 450.464 234.598 502.928 245.068C555.393 255.537 592.643 253.364 680.786 266.394C842 292.456 835.5 237.258 968.714 279.11C1101.93 320.963 1046.36 366.97 1194.57 413.926C1342.79 460.882 1269.5 556.442 1384.21 508.339C1498.93 460.237 1422.29 590.156 1521 500.856C1619.71 411.556 1522.43 403.569 1678.36 354.794C1834.29 306.018 1733.07 264.301 1883.21 292.456C2033.36 320.611 2050.43 334.245 2100.43 281.599C2150.43 228.954 2091.64 321.597 2178.07 312.482C2264.5 303.367 2269.64 318.078 2365.79 285.564C2461.93 253.049 2530.36 256.443 2608.14 284.972C2674.61 309.292 2878.5 306.891 2974.29 316.495C3017.5 365.534 3098.07 438.351 3196 365.24C3312.36 273.85 3421.5 305.441 3568.5 208.683C3715.5 111.925 3795.07 58.6856 3970.86 77.277C4146.64 95.8685 4304.57 125.294 4390.5 188.228C4476.43 251.163 4520.14 233.89 4626.36 299.565C4732.57 365.24 4734.21 366.425 4876.93 372.692C4953.86 378.959 5011.32 363.415 5066.2 352.781C5121.07 342.147 5158.36 332.556 5216.93 317.275C5314.93 296.566 5372.21 254.827 5507.29 268.153C5617.76 276.021 5738.29 304.975 5796.86 320.963C5795.86 338.371 5791.66 381.625 5889.14 420.241C6007.71 467.047 5890.21 519.183 6025.71 493.021C6161.21 466.86 6182.14 472.664 6208.07 405.649C6234 338.634 6319.21 272.136 6378.79 254.679C6436.13 235.255 6535.12 267.38 6576 202.899C6617.14 141.702 6709.87 137.688 6770.93 204.567C6835.14 272.269 6751.64 326.518 6846.21 341.106C6940.79 355.693 6862.93 439.591 6986.93 422.611C7110.93 405.632 7098.79 356.883 7230.36 408.062C7361.93 459.242 7303.57 391.022 7470.86 405.632C7638.14 420.241 7689.29 475.795 7762.21 420.241C7835.14 364.688 7822.5 427.849 7918.07 434.272C8013.64 440.696 8015.43 403.175 8113.71 369.271C8212 335.367 8227.07 458.363 8288.29 379.784C8323.14 336.411 8353.79 300.172 8385.21 289.303C8416.64 278.434 8445.79 272.877 8490.5 249.51C8567.57 212.185 8555.36 137.174 8684.21 169.587C8813.07 202.001 8786.57 176.411 8847.21 260.469C8907.86 344.528 8907.21 316.796 9065 350.628C9222.79 384.459 9183 416.696 9286.29 449.006C9389.57 481.316 9404.21 494.905 9495.79 466.656C9587.36 438.408 9423.64 411.319 9556.29 361.225C9688.93 311.132 9700.14 280.786 9726.57 238.654C9753 196.521 9775.57 193.471 9893.57 167.675C10011.6 141.878 10043.9 121.562 10133.5 167.675C10223.1 213.788 10234.8 163.893 10369.2 190.598C10503.6 217.303 10485.9 240.153 10644.7 263.778C10803.6 287.403 10864.4 254.185 11007.6 254.185C11150.9 254.185 11120.6 296.553 11236.1 234.983C11351.5 173.413 11370.4 215.151 11506.9 173.413C11643.3 131.675 11587.9 167.933 11745.4 206.757C11902.9 245.581 11911.1 265.927 12059.6 238.654C12208.1 211.38 12215.2 258.773 12389.5 206.839" stroke="#F2E9E6" stroke-width="3"/>
<path d="M-3106 362.751C-3070.03 362.535 -3007.49 358.834 -2944.18 351.139C-2876.73 342.646 -2833.43 321.69 -2787.62 314.302C-2713.53 283.61 -2674.17 242.195 -2593.4 257.109C-2512.64 272.024 -2511.64 230.659 -2435.73 234.315C-2359.82 237.971 -2338.59 263.103 -2263.82 266.392C-2189.04 269.682 -1897.9 237.115 -1793.89 234.869C-1689.89 232.623 -1718.42 264.978 -1674.58 296.052C-1630.73 327.127 -1579.89 335.02 -1539.2 351.019C-1498.51 367.018 -1463.93 347.08 -1455.67 389.579C-1447.42 432.078 -1375.49 470.677 -1307.01 471.429C-1238.54 472.181 -1136.43 436.614 -1101.84 438.306C-1067.26 439.999 -1012.27 413.196 -968.612 376.72C-924.952 340.244 -943.478 291.758 -862.909 268.78C-782.34 245.801 -713.42 215.772 -685.511 192.131C-654.102 179.978 -578.595 175.047 -445.424 200.993C-296.227 245.427 -296.962 317.84 -186.095 301.209C-71.1905 286.573 -62.1905 262.668 77.1428 247.325C216.476 231.981 256.286 238.167 362.69 257.578C430.036 258.386 433.911 248.007 493.655 262.163C553.399 276.319 589.774 274.267 678.881 286.573C837 311.187 828.5 256.242 962.952 293.393C1097.4 330.544 1045.31 373.025 1189.6 421.641C1333.88 470.256 1262.33 557.742 1378.12 515.077C1493.9 472.412 1423.88 591.717 1524.17 505.099C1624.45 418.481 1533.74 408.658 1690.81 364.872C1847.88 321.086 1751.1 281.831 1898.79 311.187C2046.48 340.542 2069.24 358.221 2121.57 300.934C2173.9 243.646 2114.86 331.389 2203.93 319.236C2293 307.083 2306.52 318.847 2400.05 293.813C2493.57 268.78 2553.48 271.355 2635.19 301.209C2706.22 327.088 2905.44 322.25 2999.05 335.055C3043 385.104 3115.93 458.629 3217.83 389.579C3337.14 303.267 3443.33 334.17 3586.5 234.833C3729.67 135.496 3800.1 84.2924 3976.31 100.396C4152.52 116.5 4306.76 145.842 4390.67 207.56C4474.57 269.278 4512.36 251.752 4618.14 320.666C4723.93 389.579 4724.29 391.16 4863.4 399.516C4940.39 407.872 4997.8 390.754 5054.32 380.711C5110.85 370.668 5146.48 362.544 5209.24 344.28C5309.24 320.889 5361.79 282.245 5494.05 289.399C5603.08 291.397 5721.21 315.444 5782.81 330.544C5788.14 346.985 5787.68 387.933 5884.86 426.683C6001.95 473.168 5886.29 524.348 6024.45 496.342C6162.62 468.336 6185.52 473.782 6213.93 407.227C6242.33 340.672 6330.62 273.48 6391.21 260.818C6448.84 245.534 6546.33 278.839 6586.5 219.039C6627.02 163.618 6719.16 164.901 6781.74 229.345C6848.52 294.886 6770.36 346.801 6866.45 357.401C6962.55 368.001 6882.24 444.521 7011.4 429.843C7140.57 415.165 7126.05 369.587 7257.31 418.406C7388.57 467.224 7337.43 403.646 7499.14 415.165C7660.86 426.683 7711.55 476.871 7786.79 426.683C7862.02 376.496 7843.5 436.827 7937.93 445.391C8032.36 453.956 8037.57 420.048 8134.12 384.899C8230.67 349.75 8244.43 464.967 8305.55 387.578C8341.77 343.438 8375.13 305.07 8408.95 298.464C8442.77 291.858 8472.96 290.268 8520 264.541C8597.6 225.631 8581.48 153.359 8710.62 182.705C8839.76 212.052 8815.6 185.17 8875.95 268.538C8936.31 351.907 8936.79 326.271 9092.17 360.041C9247.55 393.811 9203.83 425.454 9313.21 457.075C9422.59 488.696 9429.62 499.938 9524.88 471.441C9620.14 442.944 9464.86 419.25 9596.05 374.171C9727.24 329.092 9740.69 301.055 9769.6 259.836C9798.5 218.617 9820.6 214.309 9941.76 191.373C10062.9 168.437 10094.8 149.189 10184.5 191.373C10274.2 233.557 10286.5 183.195 10420.1 210.72C10553.7 238.244 10536.3 262.68 10693 283.565C10849.6 304.45 10907.1 270.774 11046 270.774C11185 270.774 11155.9 310.86 11268.8 254.942C11381.7 199.024 11402.1 237.546 11533.6 199.024C11665.2 160.503 11615.1 195.457 11766.7 232.265C11918.4 269.073 11926.3 289.325 12070.6 259.836C12214.9 230.347 12223.6 275.082 12391.3 225.137" stroke="#F2E7E4" stroke-width="3"/>
<path d="M-3106 375.421C-3070.85 374.824 -3008.11 370.307 -2943.42 362.079C-2873.56 352.853 -2832.89 329.328 -2781.44 324.892C-2703.38 298.521 -2667.73 260.056 -2584.64 274.556C-2501.55 289.055 -2504.26 253.923 -2425.57 257.621C-2346.89 261.319 -2327.3 284.665 -2253.34 290.739C-2179.39 296.814 -1903.42 266.573 -1800.87 263.33C-1698.31 260.086 -1720.42 288.535 -1676.19 318.654C-1631.97 348.774 -1576.02 356.46 -1537.73 373.623C-1499.43 390.786 -1471.09 372.843 -1459.11 413.972C-1447.14 455.101 -1384.34 494.408 -1315.62 496.656C-1246.89 498.905 -1148.68 462.297 -1115.04 459.833C-1081.41 457.369 -1031.52 428.445 -983.89 392.882C-936.261 357.319 -960.079 308.707 -880.202 284.564C-800.324 260.42 -728.065 234.007 -698.139 209.907C-664.919 196.62 -591.519 191.877 -460.655 214.756C-318.659 258.356 -314.952 330.687 -205.619 317.499C-91.2382 306.806 -87.7382 283.074 55.4285 269.866C198.595 256.658 236.857 266.742 345.738 279.516C417.857 274.782 417.357 261.47 484.381 279.312C551.405 297.154 586.905 295.223 676.976 306.806C832 329.971 821.5 275.28 957.19 307.729C1092.88 340.179 1044.26 379.133 1184.62 429.408C1324.98 479.684 1255.17 559.096 1372.02 521.868C1488.88 484.64 1425.48 593.333 1527.33 509.396C1629.19 425.459 1545.05 413.8 1703.26 375.003C1861.48 336.207 1769.12 299.415 1914.36 329.971C2059.6 360.527 2088.05 382.25 2142.71 320.321C2197.38 258.392 2138.07 341.235 2229.79 326.043C2321.5 310.852 2343.4 319.668 2434.31 302.116C2525.21 284.564 2576.6 286.32 2662.24 317.499C2737.82 344.937 2932.39 337.662 3023.81 353.668C3068.5 404.728 3133.79 478.96 3239.67 413.972C3361.93 332.738 3465.17 362.952 3604.5 261.036C3743.83 159.12 3805.12 109.953 3981.76 123.568C4158.4 137.184 4308.95 166.444 4390.83 226.945C4472.71 287.446 4504.57 269.668 4609.93 341.82C4715.29 413.972 4714.36 415.948 4849.88 426.393C4926.93 436.838 4984.29 418.147 5042.45 408.694C5100.62 399.242 5134.6 392.584 5201.55 371.337C5303.55 345.266 5351.36 309.716 5480.81 310.697C5588.4 306.826 5704.14 325.967 5768.76 340.179C5780.43 355.652 5783.7 394.294 5880.57 433.179C5996.19 479.343 5882.36 529.566 6023.19 499.715C6164.02 469.865 6188.91 474.953 6219.79 408.858C6250.67 342.763 6342.02 274.876 6403.64 267.011C6461.55 255.866 6557.53 290.351 6597 235.232C6636.9 185.588 6728.45 192.167 6792.55 254.176C6861.9 317.557 6789.07 367.136 6886.69 373.749C6984.31 380.362 6901.55 449.505 7035.88 437.128C7170.21 424.752 7153.31 382.345 7284.26 428.803C7415.21 475.261 7371.29 416.325 7527.43 424.752C7683.57 433.179 7733.81 478 7811.36 433.179C7888.91 388.358 7864.5 445.858 7957.79 456.564C8051.07 467.27 8059.71 436.975 8154.52 400.58C8249.33 364.185 8261.79 471.625 8322.81 395.424C8360.4 350.518 8396.48 310.022 8432.69 307.679C8468.9 305.335 8500.14 307.713 8549.5 279.625C8627.62 239.129 8607.59 169.598 8737.02 195.877C8866.45 222.156 8844.62 193.981 8904.69 276.661C8964.76 359.34 8966.36 335.799 9119.33 369.507C9272.31 403.216 9224.67 434.266 9340.14 465.197C9455.62 496.129 9455.02 505.025 9553.98 476.28C9652.93 447.534 9506.07 427.235 9635.81 387.17C9765.55 347.106 9781.24 321.378 9812.62 281.072C9844 240.766 9865.62 235.2 9989.95 215.125C10114.3 195.05 10145.8 176.87 10235.5 215.125C10325.2 253.38 10338.3 202.55 10471 230.895C10603.7 259.239 10586.8 285.26 10741.2 303.405C10895.6 321.55 10949.7 287.416 11084.4 287.416C11219.1 287.416 11191.1 325.221 11301.5 274.955C11411.8 224.689 11433.7 259.994 11560.4 224.689C11687.1 189.383 11642.2 223.035 11788 257.826C11933.9 292.618 11941.5 312.777 12081.6 281.072C12221.8 249.368 12232 291.444 12393.2 243.488" stroke="#F2E6E3" stroke-width="3"/>
<path d="M-3106 388.154C-3071.67 387.177 -3008.74 381.843 -2942.67 373.081C-2870.39 363.122 -2832.34 337.03 -2775.26 335.545C-2693.23 313.496 -2661.3 277.981 -2575.87 292.065C-2490.45 306.149 -2496.88 277.251 -2415.42 280.991C-2333.96 284.731 -2316.01 306.289 -2242.87 315.149C-2169.73 324.009 -1908.95 296.095 -1807.84 291.854C-1706.73 287.612 -1722.41 312.155 -1677.81 341.32C-1633.21 370.485 -1572.16 377.963 -1536.25 396.291C-1500.35 414.618 -1478.25 398.67 -1462.55 438.429C-1446.86 478.187 -1393.2 518.203 -1324.22 521.947C-1255.24 525.692 -1160.94 488.044 -1128.25 481.423C-1095.55 474.802 -1050.77 443.757 -999.168 409.107C-947.569 374.458 -976.681 325.719 -897.495 300.411C-818.31 275.103 -742.709 252.305 -710.767 227.747C-675.736 213.326 -604.442 208.77 -475.885 228.582C-341.09 271.349 -332.943 343.597 -225.143 333.853C-111.286 327.101 -113.286 303.543 33.7144 292.47C180.714 281.397 217.429 295.38 328.786 301.517C405.679 291.24 400.804 274.995 475.107 296.524C549.411 318.053 584.036 316.243 675.072 327.101C827 348.819 814.5 294.381 951.428 322.129C1088.36 349.876 1043.21 385.305 1179.64 437.24C1316.07 489.175 1248 560.514 1365.93 528.722C1483.86 496.931 1427.07 595.011 1530.5 513.756C1633.93 432.5 1556.36 419.006 1715.71 385.198C1875.07 351.391 1787.14 317.063 1929.93 348.819C2072.71 380.576 2106.86 406.343 2163.86 339.772C2220.86 273.202 2161.29 351.144 2255.64 332.914C2350 314.684 2380.29 320.553 2468.57 310.482C2556.86 300.411 2599.71 301.348 2689.29 333.853C2769.43 362.85 2959.33 353.137 3048.57 372.344C3094 424.414 3151.64 499.355 3261.5 438.429C3386.71 362.271 3487 391.798 3622.5 287.302C3758 182.807 3810.14 135.676 3987.21 146.804C4164.29 157.932 4311.14 187.109 4391 246.394C4470.86 305.678 4496.79 287.646 4601.71 363.037C4706.64 438.429 4704.43 440.8 4836.36 453.334C4913.46 465.867 4970.77 445.603 5030.58 436.741C5090.39 427.879 5122.71 422.688 5193.86 398.458C5297.86 369.706 5340.93 337.251 5467.57 332.059C5573.71 322.319 5687.07 336.553 5754.71 349.876C5772.71 364.383 5779.71 400.718 5876.29 439.738C5990.43 485.581 5878.43 534.848 6021.93 503.152C6165.43 471.457 6192.29 476.188 6225.64 410.553C6259 344.918 6353.43 276.336 6416.07 273.267C6474.26 266.262 6568.74 301.926 6607.5 251.489C6646.79 207.621 6737.74 219.497 6803.36 279.071C6875.29 340.291 6807.79 387.535 6906.93 390.161C7006.07 392.786 6920.86 454.552 7060.36 444.477C7199.86 434.402 7180.57 395.166 7311.21 439.263C7441.86 483.36 7405.14 429.066 7555.71 434.402C7706.29 439.738 7756.07 479.193 7835.93 439.738C7915.79 400.282 7885.5 454.953 7977.64 467.8C8069.79 480.647 8081.86 453.965 8174.93 416.324C8268 378.684 8279.14 478.346 8340.07 403.334C8379.04 357.661 8417.82 315.037 8456.43 316.956C8495.04 318.876 8527.32 325.221 8579 294.772C8657.64 252.691 8633.71 185.9 8763.43 209.111C8893.14 232.323 8873.64 202.856 8933.43 284.847C8993.21 366.837 8995.93 345.39 9146.5 379.037C9297.07 412.684 9245.5 443.141 9367.07 473.383C9488.64 503.625 9480.43 510.176 9583.07 481.182C9685.71 452.187 9547.29 435.283 9675.57 400.233C9803.86 365.183 9821.79 341.764 9855.64 302.372C9889.5 262.979 9910.64 256.155 10038.1 238.94C10165.6 221.725 10196.7 204.614 10286.5 238.94C10376.3 273.267 10390.1 221.969 10521.9 251.133C10653.8 280.297 10637.2 307.903 10789.4 323.309C10941.6 338.714 10992.4 304.122 11122.8 304.122C11253.2 304.122 11226.3 339.645 11334.1 295.031C11442 250.417 11465.4 282.506 11587.2 250.417C11709.1 218.328 11669.4 250.675 11809.4 283.451C11949.4 316.226 11956.6 336.292 12092.6 302.372C12228.6 268.451 12240.4 307.87 12395 261.903" stroke="#F2E4E1" stroke-width="3"/>
<path d="M-3106 400.963C-3072.49 399.604 -3009.37 393.454 -2941.91 384.159C-2867.22 373.467 -2831.8 344.807 -2769.08 346.273C-2683.08 328.546 -2654.87 295.981 -2567.11 309.65C-2479.35 323.319 -2489.5 300.655 -2405.27 304.436C-2321.03 308.217 -2304.72 327.99 -2232.4 339.634C-2160.08 351.279 -1914.48 325.692 -1814.82 320.453C-1715.16 315.214 -1724.41 335.85 -1679.43 364.06C-1634.45 392.27 -1568.29 399.541 -1534.78 419.033C-1501.27 438.525 -1485.4 424.571 -1465.99 462.96C-1446.59 501.349 -1402.06 542.072 -1332.83 547.313C-1263.59 552.554 -1173.2 513.866 -1141.45 503.088C-1109.7 492.311 -1070.02 459.145 -1014.45 425.408C-958.877 391.672 -993.282 342.806 -914.788 316.333C-836.294 289.861 -757.354 270.677 -723.395 245.661C-686.554 230.107 -617.366 225.738 -491.116 242.483C-363.522 284.417 -350.933 356.582 -244.667 350.281C-131.333 347.472 -138.833 324.088 12 315.15C162.833 306.212 198 324.094 311.833 323.593C393.5 307.774 384.25 288.596 465.833 313.812C547.417 339.027 581.167 337.337 673.167 347.472C822 367.742 807.5 313.558 945.667 336.603C1083.83 359.649 1042.17 391.552 1174.67 445.146C1307.17 498.741 1240.83 562.006 1359.83 535.652C1478.83 509.297 1428.67 596.764 1533.67 518.191C1638.67 439.617 1567.67 424.286 1728.17 395.468C1888.67 366.65 1805.17 334.785 1945.5 367.742C2085.83 400.699 2125.67 430.511 2185 359.298C2244.33 288.086 2184.5 361.128 2281.5 339.86C2378.5 318.592 2417.17 321.513 2502.83 318.923C2588.5 316.333 2622.83 316.451 2716.33 350.281C2801.03 380.837 2986.28 368.687 3073.33 391.096C3119.5 444.176 3169.5 519.824 3283.33 462.96C3411.5 391.88 3508.83 420.718 3640.5 313.644C3772.17 206.57 3815.17 161.475 3992.67 170.115C4170.17 178.755 4313.33 207.85 4391.17 265.917C4469 323.985 4489 305.7 4593.5 384.33C4698 462.96 4694.5 465.727 4822.83 480.349C4900 494.972 4957.25 473.134 5018.71 464.863C5080.17 456.592 5110.83 452.867 5186.17 425.655C5292.17 394.221 5330.5 364.861 5454.33 353.497C5559.03 337.887 5670 347.214 5740.67 359.649C5765 373.188 5775.73 407.218 5872 446.372C5984.67 491.894 5874.5 540.205 6020.67 506.665C6166.83 473.124 6195.67 477.498 6231.5 412.323C6267.33 347.147 6364.83 277.871 6428.5 279.597C6486.97 276.733 6579.94 313.576 6618 267.821C6656.67 229.73 6747.03 246.902 6814.17 304.04C6888.67 363.1 6826.5 408.009 6927.17 406.648C7027.83 405.286 6940.17 459.675 7084.83 451.901C7229.5 444.127 7207.83 408.063 7338.17 449.799C7468.5 491.535 7439 441.882 7584 444.127C7729 446.372 7778.33 480.461 7860.5 446.372C7942.67 412.282 7906.5 464.123 7997.5 479.111C8088.5 494.099 8104 471.029 8195.33 432.144C8286.67 393.258 8296.5 485.142 8357.33 411.32C8397.67 364.879 8439.17 320.127 8480.17 326.309C8521.17 332.491 8554.5 342.805 8608.5 309.995C8687.67 266.329 8659.83 202.277 8789.83 222.421C8919.83 242.566 8902.67 211.806 8962.17 293.107C9021.67 374.408 9025.5 355.057 9173.67 388.642C9321.83 422.227 9266.33 452.091 9394 481.644C9521.67 511.197 9505.83 515.401 9612.17 486.158C9718.5 456.916 9588.5 443.406 9715.33 413.37C9842.17 383.335 9862.33 362.225 9898.67 323.746C9935 285.267 9955.67 277.185 10086.3 262.831C10217 248.476 10247.7 232.433 10337.5 262.831C10427.3 293.228 10441.8 241.462 10572.8 271.447C10703.8 301.431 10687.7 330.622 10837.7 343.287C10987.7 355.953 11035 320.903 11161.2 320.903C11287.3 320.903 11261.5 354.143 11366.8 315.182C11472.2 276.22 11497 305.093 11614 276.22C11731 247.347 11696.5 278.391 11830.7 309.15C11964.8 339.91 11971.8 359.882 12103.7 323.746C12235.5 287.61 12248.8 324.371 12396.8 280.392" stroke="#F1E2E0" stroke-width="3"/>
<path d="M-3106 413.863C-3073.31 412.123 -3009.99 405.157 -2941.15 395.329C-2864.05 383.904 -2831.25 352.677 -2762.9 357.093C-2672.93 343.688 -2648.43 314.073 -2558.34 327.326C-2468.25 340.58 -2482.12 324.15 -2395.11 327.973C-2308.11 331.796 -2293.43 349.782 -2221.93 364.212C-2150.43 378.642 -1920 355.381 -1821.79 349.144C-1723.58 342.907 -1726.4 359.638 -1681.04 386.893C-1635.68 414.148 -1564.43 421.211 -1533.31 441.868C-1502.19 462.525 -1492.56 450.565 -1469.44 487.584C-1446.31 524.602 -1410.92 566.034 -1341.43 572.771C-1271.94 579.509 -1185.45 539.78 -1154.65 524.846C-1123.84 509.912 -1089.26 474.624 -1029.73 441.801C-970.186 408.977 -1009.88 359.985 -932.081 332.348C-854.279 304.71 -771.998 289.142 -736.023 263.668C-697.371 246.98 -630.29 242.798 -506.347 256.476C-385.954 297.576 -368.924 369.659 -264.19 366.802C-151.381 367.935 -164.381 344.724 -9.71436 337.921C144.952 331.118 178.571 352.899 294.881 345.762C381.321 324.4 367.696 302.289 456.56 331.191C545.423 360.093 578.298 358.524 671.262 367.935C817 386.757 800.5 332.826 939.905 351.17C1079.31 369.514 1041.12 397.89 1169.69 453.144C1298.26 508.399 1233.67 563.59 1353.74 542.673C1473.81 521.756 1430.26 598.61 1536.83 522.718C1643.4 446.825 1578.98 429.659 1740.62 405.83C1902.26 382.001 1823.19 352.6 1961.07 386.757C2098.95 420.915 2144.48 454.771 2206.14 378.917C2267.81 303.062 2207.71 371.204 2307.36 346.897C2407 322.591 2454.05 322.565 2537.1 327.456C2620.14 332.348 2645.95 331.646 2743.38 366.802C2832.64 398.917 3013.22 384.33 3098.1 409.939C3145 464.03 3187.36 540.386 3305.17 487.584C3436.29 421.58 3530.67 449.731 3658.5 340.078C3786.33 230.425 3820.19 187.366 3998.12 193.518C4176.05 199.67 4315.52 228.682 4391.33 285.533C4467.14 342.384 4481.21 323.846 4585.29 405.715C4689.36 487.584 4684.57 490.745 4809.31 507.457C4886.54 524.169 4943.73 500.757 5006.84 493.077C5069.94 485.397 5098.95 483.138 5178.48 452.943C5286.48 418.828 5320.07 392.563 5441.1 375.026C5544.35 353.546 5652.93 357.967 5726.62 369.514C5757.29 382.086 5771.75 413.81 5867.71 453.098C5978.9 498.3 5870.57 545.654 6019.4 510.269C6168.24 474.884 6199.05 478.9 6237.36 414.184C6275.67 349.469 6376.24 279.498 6440.93 286.02C6499.68 287.296 6591.15 325.318 6628.5 284.245C6666.55 251.93 6756.32 274.398 6824.98 329.102C6902.05 386.001 6845.21 428.576 6947.4 423.227C7049.59 417.878 6959.48 464.889 7109.31 459.417C7259.14 453.944 7235.1 421.051 7365.12 460.426C7495.14 499.802 7472.86 454.791 7612.29 453.944C7751.71 453.098 7800.6 481.821 7885.07 453.098C7969.55 424.374 7927.5 473.385 8017.36 490.514C8107.21 507.643 8126.14 488.186 8215.74 448.055C8305.33 407.925 8313.86 492.03 8374.6 419.397C8416.3 372.189 8460.51 325.31 8503.9 335.754C8547.3 346.199 8581.68 360.48 8638 325.31C8717.69 280.058 8685.95 218.746 8816.24 235.823C8946.52 252.9 8931.69 220.849 8990.9 301.46C9050.12 382.072 9055.07 364.816 9200.83 398.339C9346.59 431.863 9287.17 461.133 9420.93 489.997C9554.69 518.86 9531.24 520.719 9641.26 491.227C9751.29 461.736 9629.71 451.621 9755.1 426.6C9880.48 401.579 9902.88 382.779 9941.69 345.213C9980.5 307.647 10000.7 298.307 10134.5 286.813C10268.4 275.319 10298.6 260.345 10388.5 286.813C10478.4 313.282 10493.6 261.048 10623.7 291.852C10753.9 322.656 10738.1 353.432 10885.9 363.358C11033.7 373.284 11077.6 337.776 11199.5 337.776C11321.5 337.776 11296.7 368.734 11399.5 335.425C11502.3 302.115 11528.6 327.772 11640.8 302.115C11752.9 276.458 11723.6 306.199 11852 334.942C11980.3 363.685 11987 383.564 12114.7 345.213C12242.4 306.861 12257.2 340.963 12398.7 298.974" stroke="#F1E1DE" stroke-width="3"/>
<path d="M-3106 426.88C-3074.12 424.759 -3010.62 416.976 -2940.4 406.615C-2860.88 394.457 -2830.7 360.662 -2756.72 368.029C-2662.78 358.947 -2642 332.281 -2549.58 345.119C-2457.15 357.958 -2474.74 347.761 -2384.96 351.626C-2295.18 355.491 -2282.14 371.69 -2211.46 388.905C-2140.77 406.12 -1925.53 385.186 -1828.76 377.952C-1732 370.717 -1728.4 383.541 -1682.66 409.842C-1636.92 436.142 -1560.56 442.998 -1531.83 464.819C-1503.11 486.64 -1499.72 476.675 -1472.88 512.323C-1446.03 547.972 -1419.78 590.111 -1350.04 598.346C-1280.29 606.58 -1197.71 565.81 -1167.85 546.719C-1137.99 527.628 -1108.51 490.22 -1045 458.31C-981.494 426.399 -1026.48 377.281 -949.374 348.478C-872.264 319.676 -786.643 307.723 -748.651 281.791C-708.188 263.968 -643.213 259.974 -521.578 270.586C-408.385 310.852 -386.914 382.853 -283.714 383.438C-171.429 388.514 -189.928 365.477 -31.4285 360.809C127.072 356.141 159.143 381.821 277.928 368.047C369.143 341.142 351.143 316.098 447.286 348.687C543.429 381.276 575.429 379.827 669.357 388.514C812 405.888 793.5 352.211 934.143 365.853C1074.79 379.495 1040.07 404.345 1164.71 461.259C1289.36 518.173 1226.5 565.291 1347.64 549.811C1468.79 534.33 1431.86 600.572 1540 527.361C1648.14 454.15 1590.29 435.147 1753.07 416.308C1915.86 397.469 1841.21 370.53 1976.64 405.888C2112.07 441.246 2163.29 479.147 2227.29 398.651C2291.29 318.155 2230.93 381.396 2333.21 354.051C2435.5 326.707 2490.93 323.733 2571.36 336.106C2651.79 348.478 2669.07 346.958 2770.43 383.438C2864.24 417.113 3040.17 400.088 3122.86 428.899C3170.5 484 3205.21 561.064 3327 512.323C3461.07 451.397 3552.5 478.86 3676.5 366.628C3800.5 254.395 3825.21 213.373 4003.57 217.037C4181.93 220.702 4317.71 249.63 4391.5 305.265C4465.29 360.899 4473.43 342.108 4577.07 427.216C4680.71 512.323 4674.64 515.88 4795.79 534.681C4873.07 553.482 4930.21 528.496 4994.96 521.407C5059.71 514.318 5087.07 513.525 5170.79 480.347C5280.79 443.551 5309.64 420.381 5427.86 396.671C5529.67 369.322 5635.86 368.836 5712.57 379.495C5749.57 391.1 5767.77 420.518 5863.43 459.94C5973.14 504.821 5866.64 551.219 6018.14 513.989C6169.64 476.759 6202.43 480.418 6243.21 416.162C6284 351.907 6387.64 281.241 6453.36 292.559C6512.39 297.975 6602.36 337.176 6639 300.785C6676.43 274.247 6765.61 302.011 6835.79 354.28C6915.43 409.019 6863.93 449.258 6967.64 439.922C7071.36 430.585 6978.79 470.22 7133.79 467.049C7288.79 463.878 7262.36 434.156 7392.07 471.17C7521.79 508.185 7506.71 467.816 7640.57 463.878C7774.43 459.94 7822.86 483.298 7909.64 459.94C7996.43 436.582 7948.5 482.763 8037.21 502.033C8125.93 521.303 8148.29 505.459 8236.14 464.083C8324 422.707 8331.21 499.034 8391.86 427.59C8434.93 379.616 8481.86 330.608 8527.64 345.315C8573.43 360.023 8608.86 378.272 8667.5 340.74C8747.71 293.904 8712.07 235.332 8842.64 249.341C8973.21 263.351 8960.71 230.007 9019.64 309.929C9078.57 389.852 9084.64 374.69 9228 408.152C9371.36 441.614 9308 470.291 9447.86 498.466C9587.71 526.64 9556.64 526.152 9670.36 496.412C9784.07 466.672 9670.93 459.952 9794.86 439.946C9918.79 419.939 9943.43 403.448 9984.71 366.795C10026 330.143 10045.7 319.545 10182.7 310.912C10319.7 302.278 10349.6 288.372 10439.5 310.912C10529.4 333.451 10545.4 280.75 10674.6 312.374C10803.9 343.997 10788.6 376.359 10934.1 383.545C11079.7 390.731 11120.3 354.765 11237.9 354.765C11355.6 354.765 11331.9 383.441 11432.2 355.784C11532.5 328.126 11560.3 350.567 11667.6 328.126C11774.9 305.686 11750.8 334.123 11873.3 360.85C11995.8 387.577 12002.2 407.362 12125.7 366.795C12249.2 326.228 12265.6 357.672 12400.5 317.672" stroke="#F1DFDD" stroke-width="3"/>
<path d="M-3106 440.048C-3074.94 437.546 -3011.25 428.947 -2939.64 418.052C-2857.71 405.161 -2830.16 368.799 -2750.54 379.117C-2652.63 374.356 -2635.57 350.64 -2540.81 363.064C-2446.05 375.487 -2467.35 371.524 -2374.8 375.43C-2282.25 379.337 -2270.85 393.75 -2200.98 413.75C-2131.12 433.75 -1931.06 415.143 -1835.74 406.911C-1740.42 398.678 -1730.39 407.596 -1684.28 432.942C-1638.16 458.287 -1556.69 464.935 -1530.36 487.921C-1504.03 510.907 -1506.88 502.936 -1476.32 537.215C-1445.75 571.493 -1428.63 614.341 -1358.64 624.071C-1288.65 633.802 -1209.97 591.991 -1181.05 568.744C-1152.13 545.496 -1127.76 505.967 -1060.28 474.97C-992.802 443.973 -1043.09 394.728 -966.667 364.761C-890.249 334.793 -801.288 326.456 -761.279 300.065C-719.005 281.109 -656.137 277.302 -536.809 284.847C-430.817 324.28 -404.905 396.197 -303.238 400.227C-191.476 409.245 -215.476 386.381 -53.1428 383.848C109.191 381.316 139.714 410.894 260.976 390.483C356.964 358.035 334.589 330.058 438.012 366.334C541.435 402.609 572.56 401.281 667.452 409.245C807 425.171 786.5 371.747 928.381 380.687C1070.26 389.627 1039.02 410.952 1159.74 469.525C1280.45 528.098 1219.33 567.143 1341.55 557.1C1463.76 547.057 1433.45 602.685 1543.17 532.156C1652.88 461.626 1601.6 440.788 1765.52 426.938C1929.45 413.088 1859.24 388.612 1992.21 425.171C2125.19 461.729 2182.1 503.674 2248.43 418.537C2314.76 333.399 2254.14 391.739 2359.07 361.357C2464 330.974 2527.81 325.053 2605.62 344.907C2683.43 364.761 2692.19 362.421 2797.48 400.227C2895.85 435.46 3067.11 415.998 3147.62 448.01C3196 504.122 3223.07 581.894 3348.83 537.215C3485.86 481.366 3574.33 508.14 3694.5 393.329C3814.67 278.518 3830.24 239.531 4009.02 240.708C4187.81 241.884 4319.9 270.73 4391.67 325.148C4463.43 379.565 4465.64 360.522 4568.86 448.868C4672.07 537.215 4664.71 541.167 4782.26 562.056C4859.61 582.946 4916.7 556.387 4983.09 549.888C5049.49 543.39 5075.19 544.064 5163.1 507.903C5275.1 468.425 5299.21 448.35 5414.62 418.468C5514.99 385.25 5618.79 379.857 5698.52 389.627C5741.86 400.265 5763.79 427.377 5859.14 466.933C5967.38 511.494 5862.71 556.936 6016.88 517.861C6171.05 478.786 6205.81 482.088 6249.07 418.292C6292.33 354.496 6399.05 283.135 6465.79 299.25C6525.1 308.806 6613.56 349.186 6649.5 317.477C6686.31 296.715 6774.91 329.776 6846.6 379.61C6928.81 432.187 6882.64 470.092 6987.88 456.768C7093.12 443.445 6998.1 475.702 7158.26 474.832C7318.43 473.963 7289.62 447.412 7419.02 482.065C7548.43 516.719 7540.57 480.992 7668.86 473.963C7797.14 466.934 7845.12 484.925 7934.21 466.933C8023.31 448.942 7969.5 492.292 8057.07 513.703C8144.64 535.115 8170.43 522.884 8256.55 480.262C8342.67 437.641 8348.57 506.19 8409.12 435.935C8453.56 387.194 8503.2 336.058 8551.38 355.028C8599.56 373.998 8636.04 396.215 8697 356.323C8777.74 307.9 8738.19 252.068 8869.05 263.011C8999.9 273.953 8989.74 239.317 9048.38 318.55C9107.02 397.783 9114.21 384.716 9255.17 418.117C9396.12 451.517 9328.83 479.601 9474.79 507.086C9620.74 534.571 9582.05 531.738 9699.45 501.749C9816.86 471.76 9712.14 468.435 9834.62 453.443C9957.1 438.451 9983.98 424.269 10027.7 388.529C10071.5 352.79 10090.7 340.934 10230.9 335.162C10371.1 329.389 10400.5 316.551 10490.5 335.162C10580.5 353.772 10597.1 300.603 10725.5 333.047C10854 365.49 10839 399.437 10982.4 403.883C11125.7 408.329 11162.9 371.905 11276.3 371.905C11389.7 371.905 11367.1 398.3 11464.9 376.295C11562.7 354.289 11591.9 373.514 11694.4 354.289C11796.8 335.065 11777.9 362.199 11894.6 386.91C12011.3 411.62 12017.4 431.312 12136.7 388.529C12256.1 345.747 12274 374.533 12402.3 336.521" stroke="#F1DDDB" stroke-width="3"/>
<path d="M-3106 453.431C-3075.76 450.548 -3011.87 441.133 -2938.89 429.704C-2854.54 416.08 -2829.61 377.151 -2744.36 390.42C-2642.48 389.981 -2629.13 369.214 -2532.04 381.223C-2434.96 393.231 -2459.97 395.501 -2364.65 399.45C-2269.32 403.398 -2259.56 416.024 -2190.51 438.81C-2121.46 461.595 -1936.58 445.314 -1842.71 436.084C-1748.84 426.854 -1732.39 431.866 -1685.89 456.257C-1639.4 480.647 -1552.83 487.088 -1528.89 511.238C-1504.95 535.388 -1514.04 529.412 -1479.76 562.321C-1445.48 595.229 -1437.49 638.785 -1367.25 650.012C-1297 661.239 -1222.22 618.388 -1194.25 590.984C-1166.28 563.579 -1147.01 521.929 -1075.56 491.845C-1004.11 461.761 -1059.69 412.389 -983.96 381.257C-908.234 350.125 -815.932 345.403 -773.907 318.555C-729.822 298.464 -669.061 294.844 -552.04 299.322C-453.249 337.922 -422.895 409.757 -322.762 417.23C-211.524 430.19 -241.024 407.5 -74.8572 407.102C91.3095 406.705 120.286 440.181 244.024 413.134C344.786 375.144 318.036 344.233 428.738 384.195C539.44 424.158 569.69 422.951 665.548 430.19C802 444.668 779.5 391.497 922.619 395.736C1065.74 399.974 1037.98 417.773 1154.76 478.006C1271.55 538.239 1212.17 569.21 1335.45 564.604C1458.74 559.997 1435.05 605.013 1546.33 537.165C1657.62 469.317 1612.9 446.643 1777.98 437.782C1943.05 428.922 1877.26 406.909 2007.79 444.668C2138.31 482.427 2200.9 528.416 2269.57 438.637C2338.24 348.858 2277.36 402.298 2384.93 368.877C2492.5 335.456 2564.69 326.587 2639.88 353.922C2715.07 381.257 2715.31 378.099 2824.52 417.23C2927.45 454.022 3094.06 432.123 3172.38 467.336C3221.5 524.458 3240.93 602.938 3370.67 562.321C3510.64 511.549 3596.17 537.636 3712.5 420.245C3828.83 302.855 3835.26 265.904 4014.48 264.593C4193.69 263.282 4322.1 292.045 4391.83 345.246C4461.57 398.447 4457.86 379.15 4560.64 470.735C4663.43 562.321 4654.79 566.668 4768.74 589.646C4846.14 612.625 4903.18 584.493 4971.22 578.585C5039.26 572.677 5063.31 574.817 5155.4 535.674C5269.4 493.515 5288.79 476.535 5401.38 440.48C5500.31 401.392 5601.71 391.092 5684.48 399.974C5734.14 409.645 5759.81 434.451 5854.86 474.142C5961.62 518.382 5858.79 562.867 6015.62 521.948C6172.45 481.028 6209.19 483.972 6254.93 420.636C6300.67 357.3 6410.45 285.245 6478.21 306.155C6537.8 319.851 6624.77 361.411 6660 334.383C6696.19 319.398 6784.19 357.755 6857.4 405.154C6942.19 455.571 6901.36 491.14 7008.12 473.83C7114.88 456.519 7017.4 481.399 7182.74 482.831C7348.07 484.262 7316.88 460.882 7445.98 493.175C7575.07 525.468 7574.43 494.383 7697.14 484.262C7819.86 474.142 7867.38 486.768 7958.79 474.142C8050.19 461.516 7990.5 502.036 8076.93 525.589C8163.36 549.141 8192.57 540.523 8276.95 496.656C8361.33 452.789 8365.93 513.561 8426.38 444.495C8472.19 394.987 8524.55 341.722 8575.12 364.956C8625.69 388.189 8663.21 414.373 8726.5 372.12C8807.76 322.112 8764.31 269.02 8895.45 276.895C9026.6 284.77 9018.76 248.841 9077.12 327.385C9135.48 405.929 9143.79 394.957 9282.33 428.296C9420.88 461.635 9349.67 489.126 9501.71 515.922C9653.76 542.718 9607.45 537.538 9728.55 507.3C9849.64 477.063 9753.36 477.132 9874.38 467.155C9995.4 457.177 10024.5 445.304 10070.8 410.478C10117 375.652 10135.8 362.539 10279.1 359.626C10422.4 356.714 10451.5 344.945 10541.5 359.626C10631.5 374.308 10648.9 320.672 10776.5 353.935C10904 387.198 10889.5 422.73 11030.6 424.436C11171.8 426.142 11205.6 389.261 11314.7 389.261C11423.8 389.261 11402.4 413.373 11497.6 397.02C11592.8 380.667 11623.6 396.675 11721.1 380.667C11818.7 364.658 11805.1 390.489 11915.9 413.184C12026.7 435.879 12032.6 455.477 12147.8 410.478C12262.9 365.48 12282.5 391.608 12404.2 355.585" stroke="#F0DCDA" stroke-width="3"/>
<path d="M-3106 469.215C-3076.58 465.951 -3012.5 455.72 -2938.13 443.758C-2851.37 429.401 -2829.07 387.904 -2738.18 404.124C-2632.33 408.007 -2622.7 390.19 -2523.28 401.783C-2423.86 413.377 -2452.59 421.881 -2354.49 425.871C-2256.4 429.86 -2248.27 440.7 -2180.04 466.271C-2111.81 491.842 -1942.11 477.887 -1849.69 467.659C-1757.26 457.432 -1734.38 458.538 -1687.51 481.973C-1640.64 505.409 -1548.96 511.642 -1527.42 536.957C-1505.87 562.271 -1521.19 558.29 -1483.2 589.828C-1445.2 621.366 -1446.35 665.63 -1375.85 678.354C-1305.35 691.077 -1234.48 647.186 -1207.45 615.625C-1180.43 584.064 -1166.26 540.293 -1090.84 511.122C-1015.42 481.951 -1076.29 432.453 -1001.25 400.156C-926.219 367.859 -830.576 366.752 -786.535 339.445C-740.64 318.221 -681.984 314.789 -567.271 316.199C-475.681 353.966 -440.886 425.718 -342.286 436.634C-231.571 453.537 -266.572 431.021 -96.5715 432.758C73.4285 434.495 100.857 471.871 227.072 438.186C332.607 394.653 301.482 360.81 419.464 404.459C537.446 448.108 566.821 447.021 663.643 453.537C797 466.567 772.5 413.65 916.857 413.186C1061.21 412.723 1036.93 426.996 1149.79 488.888C1262.64 550.781 1205 573.678 1329.36 574.509C1453.71 575.34 1436.64 609.743 1549.5 544.576C1662.36 479.409 1624.21 454.899 1790.43 451.028C1956.64 447.157 1895.29 427.608 2023.36 466.567C2151.43 505.527 2219.71 555.56 2290.71 461.139C2361.71 366.718 2300.57 415.258 2410.79 378.799C2521 342.339 2601.57 330.523 2674.14 365.339C2746.71 400.156 2738.43 396.178 2851.57 436.634C2959.06 474.986 3121 450.649 3197.14 489.064C3247 547.196 3258.79 626.384 3392.5 589.828C3535.43 544.134 3618 569.532 3730.5 449.563C3843 329.594 3840.29 294.679 4019.93 290.88C4199.57 287.081 4324.29 315.761 4392 367.745C4459.71 419.729 4450.07 400.18 4552.43 495.004C4654.79 589.828 4644.86 594.571 4755.21 619.638C4832.68 644.706 4889.66 615 4959.35 609.683C5029.04 604.366 5051.43 607.972 5147.71 565.846C5263.71 521.006 5278.36 507.12 5388.14 464.893C5485.63 419.936 5584.64 404.729 5670.43 412.723C5726.43 421.427 5755.83 443.927 5850.57 483.752C5955.86 527.671 5854.86 571.2 6014.36 528.436C6173.86 485.672 6212.57 488.258 6260.79 425.382C6309 362.506 6421.86 289.756 6490.64 315.462C6550.51 333.298 6635.98 376.037 6670.5 353.691C6706.07 344.482 6793.49 388.136 6868.21 433.1C6955.57 481.356 6920.07 514.59 7028.36 493.292C7136.64 471.994 7036.71 489.498 7207.21 493.231C7377.71 496.964 7344.14 476.755 7472.93 506.687C7601.71 536.619 7608.29 510.176 7725.43 496.964C7842.57 483.752 7889.64 491.012 7983.36 483.752C8077.07 476.492 8011.5 514.182 8096.79 539.876C8182.07 565.569 8214.71 560.564 8297.36 515.452C8380 470.339 8383.29 523.333 8443.64 455.456C8490.82 405.181 8545.89 349.789 8598.86 377.284C8651.82 404.78 8690.39 434.932 8756 390.318C8837.79 338.726 8790.43 288.373 8921.86 293.181C9053.29 297.989 9047.79 260.768 9105.86 338.622C9163.93 416.477 9173.36 407.6 9309.5 440.877C9445.64 474.155 9370.5 501.052 9528.64 527.158C9686.79 553.265 9632.86 545.739 9757.64 515.253C9882.43 484.768 9794.57 488.231 9914.14 483.268C10033.7 478.306 10065.1 468.742 10113.8 434.829C10162.5 400.916 10180.8 386.545 10327.3 386.493C10473.8 386.441 10502.4 375.74 10592.5 386.493C10682.6 397.246 10700.6 343.141 10827.4 377.224C10954.1 411.307 10939.9 448.425 11078.9 447.391C11217.8 446.357 11248.2 409.017 11353.1 409.017C11457.9 409.017 11437.6 430.848 11530.3 420.147C11623 409.446 11655.2 422.238 11747.9 409.446C11840.6 396.654 11832.2 421.181 11937.2 441.86C12042.2 462.538 12047.8 482.043 12158.8 434.829C12269.8 387.615 12290.9 411.085 12406 377.051" stroke="#F0DAD8" stroke-width="3"/>
<path d="M-3106 495.912C-3077.4 492.267 -3013.13 481.22 -2937.38 468.724C-2848.19 453.634 -2828.52 409.569 -2732 428.741C-2622.18 436.945 -2616.27 422.078 -2514.51 433.256C-2412.76 444.435 -2445.21 459.172 -2344.34 463.204C-2243.47 467.235 -2236.98 476.289 -2169.57 504.645C-2102.16 533 -1947.63 521.373 -1856.66 510.147C-1765.69 498.922 -1736.38 496.121 -1689.13 518.602C-1641.87 541.083 -1545.09 547.109 -1525.94 573.588C-1506.79 600.067 -1528.35 598.08 -1486.64 628.248C-1444.92 658.416 -1455.21 703.388 -1384.45 717.608C-1313.7 731.828 -1246.74 686.896 -1220.65 651.178C-1194.57 615.461 -1185.51 569.569 -1106.12 541.311C-1026.73 513.053 -1092.89 463.428 -1018.55 429.967C-944.204 396.505 -845.221 399.013 -799.163 371.249C-751.457 348.89 -694.908 345.645 -582.501 343.989C-498.112 380.922 -458.876 452.592 -361.81 466.951C-251.619 487.796 -292.119 465.453 -118.286 469.326C55.5477 473.198 81.4287 514.472 210.119 474.151C320.429 425.076 284.929 388.299 410.19 435.635C535.452 482.97 563.952 482.005 661.738 487.796C792 499.379 765.5 446.715 911.095 441.549C1056.69 436.384 1035.88 447.131 1144.81 510.683C1253.74 574.235 1197.83 589.059 1323.26 595.327C1448.69 601.595 1438.24 625.385 1552.67 562.899C1667.1 500.414 1635.52 474.068 1802.88 475.186C1970.24 476.305 1913.31 459.219 2038.93 499.379C2164.55 539.539 2238.52 593.616 2311.86 494.554C2385.19 395.491 2323.79 439.13 2436.64 399.633C2549.5 360.135 2638.45 345.371 2708.4 387.669C2778.36 429.967 2761.55 425.17 2878.62 466.951C2990.66 506.862 3147.94 480.088 3221.9 521.703C3272.5 580.846 3276.64 660.742 3414.33 628.248C3560.21 587.631 3639.83 612.341 3748.5 489.793C3857.17 367.245 3845.31 334.366 4025.38 328.079C4205.45 321.792 4326.48 350.39 4392.17 401.157C4457.86 451.925 4442.29 432.122 4544.21 530.185C4646.14 628.248 4634.93 633.386 4741.69 660.542C4819.21 687.699 4876.14 656.419 4947.48 651.693C5018.81 646.967 5039.55 652.04 5140.02 606.931C5258.02 559.409 5267.93 548.619 5374.9 500.218C5470.95 449.392 5567.57 429.278 5656.38 436.384C5718.71 444.121 5751.85 464.315 5846.29 504.274C5950.1 547.873 5850.93 590.446 6013.1 545.836C6175.26 501.227 6215.95 503.456 6266.64 441.04C6317.33 378.624 6433.26 305.179 6503.07 335.681C6563.22 357.657 6647.18 401.576 6681 383.911C6715.95 380.479 6802.78 429.429 6879.02 471.958C6968.95 518.054 6938.79 548.953 7048.6 523.668C7158.41 498.382 7056.02 508.508 7231.69 514.543C7407.36 520.577 7371.4 503.539 7499.88 531.111C7628.36 558.682 7642.14 536.881 7753.71 520.577C7865.29 504.274 7911.9 506.168 8007.93 504.274C8103.95 502.38 8032.5 537.24 8116.64 565.075C8200.79 592.91 8236.86 591.518 8317.76 545.16C8398.67 498.802 8400.64 544.017 8460.9 477.329C8509.45 426.288 8567.24 368.767 8622.6 400.526C8677.95 432.285 8717.57 466.404 8785.5 419.429C8867.81 366.251 8816.55 318.639 8948.26 320.379C9079.98 322.12 9076.81 283.606 9134.6 360.771C9192.38 437.937 9202.93 431.155 9336.67 464.371C9470.41 497.587 9391.33 523.89 9555.57 549.308C9719.81 574.725 9658.26 564.853 9786.74 534.119C9915.21 503.384 9835.79 510.243 9953.9 510.294C10072 510.346 10105.6 503.091 10156.8 470.092C10208 437.092 10225.8 421.463 10375.5 424.272C10525.1 427.08 10553.4 417.448 10643.5 424.272C10733.6 431.096 10752.4 376.523 10878.3 411.426C11004.1 446.329 10990.4 485.032 11127.1 481.258C11263.8 477.484 11290.9 439.687 11391.5 439.687C11492 439.687 11472.8 459.236 11563 454.187C11653.2 449.138 11686.9 458.714 11774.7 449.138C11862.6 439.561 11859.4 462.785 11958.5 481.448C12057.7 500.11 12063 519.521 12169.8 470.092C12276.6 420.662 12299.3 441.474 12407.8 409.429" stroke="#F0D8D7" stroke-width="3"/>
<path d="M-3106 522.714C-3078.22 518.688 -3013.75 506.824 -2936.62 493.795C-2845.02 477.973 -2827.98 431.34 -2725.82 453.463C-2612.03 465.989 -2609.83 454.072 -2505.75 464.835C-2401.66 475.598 -2437.83 496.569 -2334.19 500.642C-2230.54 504.716 -2225.69 511.982 -2159.1 543.123C-2092.5 574.264 -1953.16 564.963 -1863.63 552.74C-1774.11 540.517 -1738.37 533.81 -1690.74 555.336C-1643.11 576.862 -1541.23 582.68 -1524.47 610.324C-1507.72 637.968 -1535.51 637.975 -1490.08 666.773C-1444.65 695.571 -1464.07 741.251 -1393.06 756.968C-1322.05 772.684 -1258.99 726.712 -1233.86 686.837C-1208.72 646.963 -1204.76 598.95 -1121.4 571.605C-1038.04 544.26 -1109.49 494.509 -1035.84 459.883C-962.189 425.256 -859.866 431.38 -811.791 403.157C-762.274 379.664 -707.832 376.607 -597.732 371.884C-520.544 407.984 -476.867 479.571 -381.333 497.373C-271.667 522.16 -317.667 499.991 -140 505.999C37.6667 512.007 62.0001 557.179 193.167 510.221C308.25 455.603 268.375 415.893 400.917 466.916C533.458 517.938 561.083 517.093 659.833 522.16C787 532.295 758.5 479.885 905.333 470.018C1052.17 460.151 1034.83 467.371 1139.83 532.583C1244.83 597.794 1190.67 604.545 1317.17 616.25C1443.67 627.955 1439.83 641.132 1555.83 581.328C1671.83 521.524 1646.83 493.342 1815.33 499.45C1983.83 505.558 1931.33 490.935 2054.5 532.295C2177.67 573.656 2257.33 631.778 2333 528.073C2408.67 424.369 2347 463.108 2462.5 420.572C2578 378.036 2675.33 360.325 2742.67 410.104C2810 459.883 2784.67 454.267 2905.67 497.373C3022.27 538.843 3174.89 509.632 3246.67 554.449C3298 614.602 3294.5 695.205 3436.17 666.773C3585 631.233 3661.67 655.256 3766.5 530.128C3871.33 405.001 3850.33 374.158 4030.83 365.384C4211.33 356.609 4328.67 385.124 4392.33 434.675C4456 484.225 4434.5 464.169 4536 565.471C4637.5 666.773 4625 672.306 4728.17 701.552C4805.75 730.797 4862.62 697.944 4935.6 693.808C5008.58 689.673 5027.67 696.212 5132.33 648.12C5252.33 597.918 5257.5 590.222 5361.67 535.649C5456.27 478.953 5550.5 453.933 5642.33 460.151C5711 466.92 5747.87 484.808 5842 524.902C5944.33 568.18 5847 609.796 6011.83 563.342C6176.67 516.888 6219.33 518.76 6272.5 456.804C6325.67 394.847 6444.67 320.708 6515.5 356.006C6575.93 382.122 6658.39 427.219 6691.5 414.237C6725.83 416.581 6812.07 470.827 6889.83 510.921C6982.33 554.856 6957.5 583.421 7068.83 554.148C7180.17 524.876 7075.33 527.624 7256.17 535.96C7437 544.296 7398.67 530.429 7526.83 555.64C7655 580.85 7676 563.691 7782 544.296C7888 524.902 7934.17 521.43 8032.5 524.902C8130.83 528.374 8053.5 560.404 8136.5 590.38C8219.5 620.356 8259 622.576 8338.17 574.973C8417.33 527.37 8418 564.807 8478.17 499.308C8528.08 447.5 8588.58 387.851 8646.33 423.872C8704.08 459.894 8744.75 497.981 8815 448.646C8897.83 393.882 8842.67 349.01 8974.67 347.683C9106.67 346.356 9105.83 306.55 9163.33 383.026C9220.83 459.502 9232.5 454.815 9363.83 487.969C9495.17 521.124 9412.17 546.834 9582.5 571.562C9752.83 596.29 9683.67 584.072 9815.83 553.089C9948 522.106 9877 532.359 9993.67 537.425C10110.3 542.492 10146.2 537.546 10199.8 505.46C10253.5 473.374 10270.8 456.486 10423.7 462.156C10576.5 467.825 10604.3 459.261 10694.5 462.156C10784.7 465.051 10804.2 410.011 10929.2 445.733C11054.2 481.456 11040.8 521.744 11175.3 515.23C11309.8 508.717 11333.5 470.461 11429.8 470.461C11526.2 470.461 11508 487.728 11595.7 488.331C11683.3 488.934 11718.5 495.294 11801.5 488.934C11884.5 482.574 11886.5 504.495 11979.8 521.141C12073.2 537.787 12078.2 557.105 12180.8 505.46C12283.5 453.815 12307.7 471.969 12409.7 441.912" stroke="#F0D7D5" stroke-width="3"/>
<path d="M-3106 549.604C-3079.03 545.197 -3014.38 532.517 -2935.87 518.955C-2841.85 502.4 -2827.43 453.199 -2719.65 478.273C-2601.88 495.121 -2603.4 486.153 -2496.98 496.501C-2390.56 506.849 -2430.45 534.054 -2324.03 538.169C-2217.61 542.284 -2214.4 547.765 -2148.63 581.691C-2082.85 615.617 -1958.69 608.642 -1870.61 595.421C-1782.53 582.2 -1740.37 571.588 -1692.36 592.159C-1644.35 612.73 -1537.36 618.34 -1523 647.149C-1508.64 675.957 -1542.67 677.959 -1493.52 705.387C-1444.37 732.814 -1472.92 779.203 -1401.66 796.416C-1330.41 813.628 -1271.25 766.615 -1247.06 722.584C-1222.86 678.553 -1224 628.419 -1136.67 601.988C-1049.34 575.556 -1126.09 525.678 -1053.13 489.887C-980.174 454.096 -874.51 463.835 -824.418 435.154C-773.091 410.527 -720.755 407.657 -612.963 399.867C-542.976 435.133 -494.857 506.638 -400.857 527.884C-291.714 556.613 -343.214 534.618 -161.714 542.761C19.7856 550.903 42.5715 599.975 176.214 546.379C296.071 486.219 251.821 443.576 391.643 498.285C531.464 552.994 558.214 552.27 657.928 556.613C782 565.3 751.5 513.143 899.572 498.574C1047.64 484.005 1033.79 487.7 1134.86 554.571C1235.93 621.442 1183.5 620.12 1311.07 637.261C1438.64 654.403 1441.43 656.967 1559 599.845C1676.57 542.723 1658.14 512.705 1827.79 523.802C1997.43 534.899 1949.36 522.739 2070.07 565.3C2190.79 607.861 2276.14 670.027 2354.14 561.681C2432.14 453.336 2370.21 487.174 2488.36 441.6C2606.5 396.026 2712.21 375.367 2776.93 432.627C2841.64 489.887 2807.79 483.452 2932.71 527.884C3053.87 570.912 3201.83 539.264 3271.43 587.282C3323.5 648.445 3312.36 729.757 3458 705.387C3609.79 674.924 3683.5 698.258 3784.5 570.552C3885.5 442.846 3855.36 414.039 4036.29 402.777C4217.21 391.514 4330.86 419.946 4392.5 468.28C4454.14 516.614 4426.71 496.305 4527.79 600.846C4628.86 705.387 4615.07 711.315 4714.64 742.649C4792.29 773.984 4849.11 739.557 4923.73 736.012C4998.36 732.468 5015.79 740.473 5124.64 689.399C5246.64 636.515 5247.07 631.914 5348.43 571.168C5441.59 508.603 5533.43 478.676 5628.29 484.005C5703.29 489.808 5743.89 505.39 5837.71 545.618C5938.57 588.575 5843.07 629.235 6010.57 580.936C6178.07 532.638 6222.71 534.152 6278.36 472.655C6334 411.159 6456.07 336.324 6527.93 376.419C6588.64 406.675 6669.6 452.952 6702 444.651C6735.71 452.771 6821.36 512.314 6900.64 549.973C6995.71 591.747 6976.21 617.977 7089.07 584.717C7201.93 551.457 7094.64 546.829 7280.64 557.466C7466.64 568.103 7425.93 557.407 7553.79 580.257C7681.64 603.107 7709.86 590.589 7810.29 568.103C7910.71 545.618 7956.43 536.78 8057.07 545.618C8157.71 554.456 8074.5 583.656 8156.36 615.773C8238.21 647.89 8281.14 653.723 8358.57 604.874C8436 556.026 8435.36 585.685 8495.43 521.375C8546.71 468.8 8609.93 407.023 8670.07 447.307C8730.21 487.592 8771.93 529.647 8844.5 477.95C8927.86 421.601 8868.79 379.469 9001.07 375.075C9133.36 370.68 9134.86 329.582 9192.07 405.369C9249.29 481.155 9262.07 478.564 9391 511.656C9519.93 544.749 9433 569.866 9609.43 593.905C9785.86 617.944 9709.07 603.38 9844.93 572.148C9980.79 540.916 9918.21 554.564 10033.4 564.645C10148.6 574.726 10186.7 572.089 10242.9 540.916C10299 509.744 10315.9 491.598 10471.9 500.128C10627.9 508.658 10655.3 501.162 10745.5 500.128C10835.7 499.094 10855.9 443.586 10980.1 480.129C11104.2 516.671 11091.3 558.545 11223.6 549.291C11355.9 540.038 11376.1 501.324 11468.2 501.324C11560.3 501.324 11543.2 516.309 11628.4 522.564C11713.5 528.819 11750.1 531.963 11828.3 528.819C11906.4 525.676 11913.6 546.293 12001.1 560.923C12088.6 575.553 12093.4 594.777 12191.9 540.916C12290.4 487.056 12316.1 502.552 12411.5 474.484" stroke="#EFD5D4" stroke-width="3"/>
<path d="M-3106 577.153C-3079.85 572.365 -3015.01 558.869 -2935.11 544.773C-2838.68 527.485 -2826.88 475.717 -2713.47 503.742C-2591.73 524.912 -2596.97 518.894 -2488.22 528.827C-2379.47 538.76 -2423.07 572.198 -2313.88 576.354C-2204.68 580.511 -2203.11 584.205 -2138.15 620.917C-2073.2 657.628 -1964.21 652.98 -1877.58 638.761C-1790.95 624.542 -1742.37 610.024 -1693.98 629.64C-1645.59 649.256 -1533.49 654.659 -1521.53 684.632C-1509.56 714.605 -1549.83 718.601 -1496.96 744.659C-1444.09 770.716 -1481.78 817.813 -1410.27 836.522C-1338.76 855.231 -1283.51 807.178 -1260.26 758.99C-1237.01 710.803 -1243.25 658.548 -1151.95 633.029C-1060.65 607.51 -1142.69 557.506 -1070.43 520.55C-998.159 483.594 -889.155 496.948 -837.046 467.809C-783.908 442.049 -733.679 439.366 -628.194 428.509C-565.407 462.942 -512.848 534.363 -420.381 559.053C-311.762 591.725 -368.762 569.903 -183.428 580.181C1.90486 590.459 23.1429 643.429 159.262 583.196C283.893 517.493 235.268 471.918 382.369 530.313C529.47 588.709 555.345 588.105 656.024 591.725C777 598.964 744.5 547.06 893.81 527.789C1043.12 508.519 1032.74 508.687 1129.88 577.218C1227.02 645.749 1176.33 636.353 1304.98 658.931C1433.62 681.51 1443.02 673.461 1562.17 619.021C1681.31 564.58 1669.45 532.726 1840.24 548.812C2011.02 564.899 1967.38 555.202 2085.64 598.964C2203.9 642.725 2294.95 708.936 2375.29 595.948C2455.62 482.961 2393.43 511.898 2514.21 463.286C2635 414.674 2749.1 391.067 2811.19 455.809C2873.29 520.55 2830.9 513.296 2959.76 559.053C3085.48 603.641 3228.78 569.555 3296.19 620.774C3349 682.948 3330.21 764.967 3479.83 744.659C3634.57 719.273 3705.33 741.92 3802.5 611.634C3899.67 481.349 3860.38 454.578 4041.74 440.828C4223.1 427.078 4333.05 455.427 4392.67 502.544C4452.29 549.661 4418.93 529.1 4519.57 636.879C4620.21 744.659 4605.14 750.982 4701.12 784.405C4778.82 817.829 4835.59 781.829 4911.86 778.875C4988.13 775.921 5003.9 785.393 5116.95 731.335C5240.95 675.77 5236.64 674.265 5335.19 607.346C5426.9 538.911 5516.36 504.078 5614.24 508.519C5695.57 513.354 5739.9 526.63 5833.43 566.992C5932.81 609.629 5839.14 649.333 6009.31 599.189C6179.48 549.046 6226.09 550.202 6284.21 489.166C6342.33 428.129 6467.48 352.6 6540.36 397.49C6601.35 431.886 6680.8 479.342 6712.5 475.723C6745.6 489.62 6830.65 554.459 6911.45 589.683C7009.1 629.297 6994.93 653.192 7109.31 615.945C7223.69 578.698 7113.95 566.692 7305.12 579.631C7496.29 592.569 7453.19 585.044 7580.74 605.533C7708.29 626.022 7743.71 618.146 7838.57 592.569C7933.43 566.992 7978.69 552.788 8081.64 566.992C8184.59 581.196 8095.5 607.566 8176.21 641.824C8256.93 676.082 8303.29 685.529 8378.98 635.434C8454.67 585.34 8452.71 607.222 8512.69 544.101C8565.35 490.759 8631.27 426.854 8693.81 471.401C8756.35 515.948 8799.11 561.971 8874 507.914C8957.88 449.979 8894.91 410.587 9027.48 403.125C9160.05 395.664 9163.88 353.273 9220.81 428.37C9277.74 503.468 9291.64 502.971 9418.17 536.002C9544.69 569.033 9453.83 593.557 9636.36 616.907C9818.88 640.256 9734.48 623.346 9874.02 591.865C10013.6 560.385 9959.43 577.428 10073.2 592.523C10187 607.618 10227.3 607.291 10285.9 577.031C10344.5 546.772 10360.9 527.369 10520 538.759C10679.2 550.149 10706.2 543.722 10796.5 538.759C10886.8 533.796 10907.7 477.821 11031 515.183C11154.3 552.545 11141.7 596.004 11271.8 584.01C11401.9 572.017 11418.8 532.846 11506.6 532.846C11594.4 532.846 11578.4 545.548 11661 557.456C11743.7 569.363 11781.8 569.291 11855.1 569.363C11928.4 569.435 11940.8 588.749 12022.5 601.363C12104.1 613.977 12108.5 633.108 12202.9 577.031C12297.2 520.955 12324.5 533.793 12413.3 507.714" stroke="#EFD3D2" stroke-width="3"/>
<path d="M-3106 609.929C-3080.67 604.759 -3015.63 590.447 -2934.36 575.818C-2835.51 557.796 -2826.34 503.461 -2707.29 534.436C-2581.58 559.929 -2590.53 556.86 -2479.45 566.378C-2368.37 575.896 -2415.69 615.567 -2303.72 619.766C-2191.76 623.964 -2191.82 625.872 -2127.68 665.368C-2063.54 704.865 -1969.74 702.543 -1884.56 687.327C-1799.37 672.11 -1744.36 653.686 -1695.59 672.347C-1646.83 691.009 -1529.63 696.204 -1520.05 727.341C-1510.48 758.478 -1556.98 764.469 -1500.4 789.157C-1443.82 813.844 -1490.64 861.649 -1418.87 881.855C-1347.11 902.061 -1295.76 852.966 -1273.46 800.622C-1251.16 748.278 -1262.5 693.902 -1167.23 669.296C-1071.96 644.69 -1159.29 594.56 -1087.72 556.439C-1016.14 518.319 -903.799 535.288 -849.674 505.69C-794.726 478.796 -746.603 476.3 -643.425 462.377C-587.839 495.976 -530.838 567.315 -439.905 595.448C-331.81 632.062 -394.309 610.414 -205.143 622.827C-15.9762 635.24 3.71432 692.108 142.31 625.239C271.714 553.994 218.714 505.485 373.095 567.567C527.476 629.649 552.476 629.166 654.119 632.062C772 637.853 737.5 586.203 888.048 562.23C1038.6 538.258 1031.69 534.901 1124.9 605.091C1218.12 675.282 1169.17 657.812 1298.88 685.828C1428.6 713.843 1444.62 695.182 1565.33 643.422C1686.05 591.663 1680.76 557.973 1852.69 579.049C2024.62 600.125 1985.4 592.891 2101.21 637.853C2217.02 682.815 2313.76 753.07 2396.43 635.441C2479.1 517.812 2416.64 541.849 2540.07 490.198C2663.5 438.548 2785.98 411.994 2845.45 484.217C2904.93 556.439 2854.02 548.366 2986.81 595.448C3117.08 641.595 3255.72 605.072 3320.95 659.492C3374.5 722.676 3348.07 805.404 3501.67 789.157C3659.36 768.848 3727.17 790.807 3820.5 657.943C3913.83 525.078 3865.4 500.344 4047.19 484.106C4228.98 467.867 4335.24 496.134 4392.83 542.034C4450.43 587.935 4411.14 567.12 4511.36 678.139C4611.57 789.157 4595.21 795.875 4687.6 831.388C4765.36 866.9 4822.07 829.326 4899.99 826.963C4977.9 824.6 4992.02 835.538 5109.26 778.498C5235.26 720.252 5226.21 721.841 5321.95 648.75C5412.22 574.446 5499.29 534.705 5600.19 538.258C5687.86 542.126 5735.92 553.096 5829.14 593.593C5927.05 635.909 5835.21 674.656 6008.05 622.668C6180.88 570.68 6229.48 571.479 6290.07 510.902C6350.67 450.325 6478.88 374.102 6552.79 423.788C6614.06 462.324 6692.01 510.959 6723 512.022C6755.48 531.695 6839.94 601.831 6922.26 634.62C7022.48 672.073 7013.64 693.632 7129.55 652.398C7245.45 611.164 7133.26 591.781 7329.6 607.021C7525.93 622.261 7480.45 617.907 7607.69 636.035C7734.93 654.164 7777.57 650.93 7866.86 622.261C7956.14 593.593 8000.95 574.023 8106.21 593.593C8211.48 613.163 8116.5 636.702 8196.07 673.102C8275.64 709.501 8325.43 722.56 8399.38 671.221C8473.33 619.881 8470.07 633.985 8529.95 572.053C8583.98 517.944 8652.62 451.911 8717.55 500.72C8782.48 549.53 8826.29 599.521 8903.5 543.103C8987.9 483.583 8921.02 446.93 9053.88 436.402C9186.74 425.873 9192.9 382.189 9249.55 456.598C9306.19 531.006 9321.21 532.604 9445.33 565.573C9569.45 598.543 9474.67 622.474 9663.29 645.134C9851.91 667.794 9759.88 648.538 9903.12 616.809C10046.4 585.08 10000.6 605.517 10113 625.627C10225.3 645.737 10267.8 647.719 10328.9 618.373C10390 589.026 10405.9 568.365 10568.2 582.616C10730.6 596.867 10757.2 591.508 10847.5 582.616C10937.8 573.724 10959.5 517.281 11081.9 555.463C11204.3 593.645 11192.2 638.689 11320 623.956C11447.9 609.222 11461.4 569.593 11545 569.593C11628.5 569.593 11613.6 580.014 11693.7 597.573C11773.8 615.133 11813.4 611.844 11881.9 615.133C11950.3 618.421 11967.9 636.432 12043.8 647.03C12119.6 657.627 12123.7 676.664 12213.9 618.373C12304.1 560.081 12332.9 570.261 12415.2 546.17" stroke="#EFD2D1" stroke-width="3"/>
<path d="M-3106 642.816C-3081.49 637.265 -3016.26 622.137 -2933.6 606.974C-2832.34 588.22 -2825.79 531.317 -2701.11 565.243C-2571.43 595.057 -2584.1 594.938 -2470.69 604.041C-2357.27 613.144 -2408.31 659.049 -2293.57 663.289C-2178.83 667.53 -2180.53 667.651 -2117.21 709.932C-2053.89 752.214 -1975.27 752.219 -1891.53 736.005C-1807.79 719.791 -1746.36 697.46 -1697.21 715.166C-1648.06 732.873 -1525.76 737.861 -1518.58 770.162C-1511.4 802.464 -1564.14 810.449 -1503.84 833.767C-1443.54 857.084 -1499.5 905.597 -1427.48 927.299C-1355.46 949.002 -1308.02 898.867 -1286.66 842.366C-1265.3 785.865 -1281.75 729.368 -1182.51 705.675C-1083.27 681.983 -1175.9 631.725 -1105.01 592.44C-1034.13 553.155 -918.444 573.739 -862.302 543.684C-805.543 515.655 -759.526 513.347 -658.656 496.356C-610.271 529.122 -548.828 600.379 -459.428 631.955C-351.857 672.511 -419.857 651.037 -226.857 665.585C-33.8572 680.133 -15.7142 740.9 125.357 667.395C259.536 590.606 202.161 539.164 363.822 604.933C525.482 670.702 549.607 670.34 652.214 672.511C767 676.855 730.5 625.458 882.286 596.784C1034.07 568.109 1030.64 561.226 1119.93 633.076C1209.21 704.926 1162 679.383 1292.79 712.836C1423.57 746.289 1446.21 717.014 1568.5 667.936C1690.79 618.858 1692.07 583.332 1865.14 609.398C2038.21 635.463 2003.43 630.692 2116.79 676.855C2230.14 723.018 2332.57 797.317 2417.57 675.046C2502.57 552.775 2439.86 571.912 2565.93 517.223C2692 462.534 2822.86 433.033 2879.71 512.736C2936.57 592.44 2877.14 583.548 3013.86 631.955C3148.69 679.661 3282.67 640.701 3345.71 698.323C3400 762.517 3365.93 845.952 3523.5 833.767C3684.14 818.535 3749 839.806 3838.5 704.363C3928 568.919 3870.43 546.221 4052.64 527.495C4234.86 508.769 4337.43 536.953 4393 581.637C4448.57 626.32 4403.36 605.253 4503.14 719.51C4602.93 833.767 4585.29 840.881 4674.07 878.482C4751.89 916.083 4808.55 876.936 4888.12 875.164C4967.68 873.391 4980.14 885.796 5101.57 825.773C5229.57 764.845 5215.79 769.53 5308.71 690.266C5397.54 610.092 5482.21 565.445 5586.14 568.109C5680.14 571.011 5731.94 579.675 5824.86 620.305C5921.29 662.301 5831.29 700.092 6006.79 646.259C6182.29 592.426 6232.86 592.868 6295.93 532.751C6359 472.633 6490.29 395.715 6565.21 450.197C6626.77 492.873 6703.21 542.688 6733.5 548.432C6765.36 573.882 6849.23 649.314 6933.07 679.668C7035.86 714.961 7032.36 734.185 7149.79 688.963C7267.21 643.742 7152.57 616.982 7354.07 634.524C7555.57 652.065 7507.71 650.882 7634.64 666.65C7761.57 682.417 7811.43 683.825 7895.14 652.065C7978.86 620.305 8023.21 595.37 8130.79 620.305C8238.36 645.241 8137.5 665.951 8215.93 704.491C8294.36 743.032 8347.57 759.704 8419.79 707.119C8492 654.534 8487.43 660.86 8547.21 600.116C8602.61 545.241 8673.96 477.079 8741.29 530.152C8808.61 583.225 8853.46 637.183 8933 578.404C9017.93 517.299 8947.14 483.386 9080.29 469.79C9213.43 456.194 9221.93 411.218 9278.29 484.937C9334.64 558.656 9350.79 562.349 9472.5 595.257C9594.21 628.165 9495.5 651.503 9690.21 673.474C9884.93 695.444 9785.29 673.842 9932.21 641.864C10079.1 609.887 10041.9 633.719 10152.7 658.843C10263.6 683.968 10308.4 688.259 10371.9 659.826C10435.5 631.393 10450.9 609.473 10616.4 626.585C10781.9 643.696 10808.1 639.406 10898.5 626.585C10988.9 613.764 11011.2 556.853 11132.8 595.855C11254.4 634.856 11242.6 681.486 11368.3 664.013C11493.9 646.54 11504.1 606.453 11583.4 606.453C11662.6 606.453 11648.9 614.591 11726.4 637.803C11804 661.015 11845.1 654.51 11908.6 661.015C11972.2 667.519 11995.1 684.226 12065.1 692.808C12135.1 701.389 12138.9 720.333 12224.9 659.826C12310.9 599.318 12341.3 606.84 12417 584.738" stroke="#EFD0CF" stroke-width="3"/>
<path d="M-3106 675.804C-3082.31 669.873 -3016.88 653.928 -2932.85 638.232C-2829.17 618.745 -2825.25 559.274 -2694.93 596.152C-2561.28 630.288 -2577.67 633.119 -2461.92 641.806C-2346.17 650.494 -2400.93 702.633 -2283.41 706.915C-2165.9 711.197 -2169.24 709.531 -2106.74 754.598C-2044.23 799.665 -1980.79 801.996 -1898.5 784.784C-1816.22 767.573 -1748.35 741.336 -1698.83 758.087C-1649.3 774.839 -1521.89 779.619 -1517.11 813.085C-1512.32 846.552 -1571.3 856.532 -1507.28 878.479C-1443.26 900.426 -1508.35 949.647 -1436.08 972.846C-1363.81 996.045 -1320.28 944.869 -1299.86 884.212C-1279.45 823.554 -1301 764.936 -1197.79 742.156C-1094.58 719.377 -1192.5 668.993 -1122.3 628.543C-1052.11 588.093 -933.088 612.293 -874.93 581.779C-816.36 552.617 -772.45 550.496 -673.887 530.438C-632.702 562.371 -566.819 633.545 -478.952 668.564C-371.905 713.063 -445.405 691.762 -248.572 708.445C-51.7382 725.128 -35.1428 789.794 108.405 709.651C247.357 627.32 185.607 572.945 354.548 642.401C523.488 711.856 546.738 711.615 650.31 713.063C762 715.958 723.5 664.815 876.524 631.439C1029.55 598.063 1029.6 587.653 1114.95 661.163C1200.31 734.672 1154.83 701.055 1286.69 739.946C1418.55 778.836 1447.81 738.948 1571.67 692.551C1695.52 646.155 1703.38 608.793 1877.6 639.848C2051.81 670.903 2021.45 668.595 2132.36 715.958C2243.26 763.321 2351.38 841.665 2438.71 714.752C2526.05 587.839 2463.07 602.076 2591.79 544.349C2720.5 486.622 2859.74 454.173 2913.98 541.358C2968.21 628.543 2900.26 618.832 3040.9 668.564C3180.29 717.829 3309.61 676.432 3370.48 737.255C3425.5 802.459 3383.79 886.602 3545.33 878.479C3708.93 868.325 3770.83 888.908 3856.5 750.885C3942.17 612.862 3875.45 592.2 4058.1 570.986C4240.74 549.773 4339.62 577.874 4393.17 621.341C4446.71 664.808 4395.57 643.487 4494.93 760.983C4594.29 878.479 4575.36 885.988 4660.55 925.678C4738.43 965.369 4795.04 924.647 4876.24 923.466C4957.45 922.284 4968.26 936.155 5093.88 873.15C5223.88 809.541 5205.36 817.32 5295.48 731.883C5382.86 645.84 5465.14 596.286 5572.1 598.063C5672.43 599.997 5727.96 606.355 5820.57 647.12C5915.52 688.795 5827.36 725.629 6005.52 669.951C6183.69 614.273 6236.24 614.358 6301.79 554.701C6367.33 495.044 6501.69 417.43 6577.64 476.709C6639.48 523.525 6714.42 574.519 6744 584.944C6775.24 616.171 6858.52 696.899 6943.88 724.818C7049.24 757.95 7051.07 774.84 7170.02 725.631C7288.98 676.422 7171.88 642.285 7378.55 662.128C7585.21 681.971 7534.98 683.959 7661.6 697.366C7788.21 710.772 7845.29 716.822 7923.43 681.971C8001.57 647.12 8045.48 616.818 8155.36 647.12C8265.24 677.422 8158.5 695.301 8235.79 735.983C8313.07 776.664 8369.71 796.949 8440.19 743.119C8510.67 689.288 8504.79 687.836 8564.48 628.282C8621.24 572.64 8695.31 502.35 8765.02 559.685C8834.74 617.021 8880.64 674.947 8962.5 613.807C9047.95 551.117 8973.26 519.944 9106.69 503.28C9240.12 486.617 9250.95 440.349 9307.02 513.378C9363.09 586.408 9380.36 592.196 9499.67 625.042C9618.98 657.889 9516.33 680.633 9717.14 701.915C9917.95 723.196 9810.69 699.248 9961.31 667.022C10111.9 634.796 10083.1 662.023 10192.5 692.161C10301.9 722.3 10348.9 728.9 10415 701.381C10481 673.861 10496 650.684 10664.6 670.656C10833.3 690.628 10859.1 687.405 10949.5 670.656C11039.9 653.906 11063 596.527 11183.7 636.349C11304.4 676.17 11293.1 724.386 11416.5 704.172C11540 683.959 11546.7 643.414 11621.7 643.414C11696.8 643.414 11684.1 649.271 11759.1 678.135C11834.2 706.998 11876.7 697.278 11935.4 706.998C11994.1 716.719 12022.2 732.123 12086.4 738.688C12150.5 745.254 12154.1 764.103 12236 701.381C12317.8 638.658 12349.7 643.522 12418.8 623.409" stroke="#EECECE" stroke-width="3"/>
<path d="M-3106 708.885C-3083.13 702.572 -3017.51 685.811 -2932.09 669.582C-2826 649.362 -2824.7 587.323 -2688.75 627.152C-2551.13 665.61 -2571.23 671.39 -2453.15 679.663C-2335.07 687.936 -2393.55 746.308 -2273.26 750.631C-2152.97 754.955 -2157.95 751.503 -2096.27 799.355C-2034.58 847.207 -1986.32 851.865 -1905.48 833.655C-1824.64 815.446 -1750.35 785.303 -1700.44 801.1C-1650.54 816.897 -1518.03 821.469 -1515.63 856.1C-1513.24 890.731 -1578.46 902.705 -1510.72 923.282C-1442.98 943.86 -1517.21 993.789 -1444.69 1018.48C-1372.16 1043.18 -1332.53 990.963 -1313.06 926.149C-1293.59 861.334 -1320.25 800.595 -1213.07 778.729C-1105.89 756.863 -1209.1 706.352 -1139.6 664.737C-1070.1 623.123 -947.733 650.937 -887.558 619.965C-827.177 589.669 -785.374 587.736 -689.118 564.611C-655.134 595.711 -584.809 666.802 -498.476 705.265C-391.952 753.705 -470.952 732.579 -270.286 751.397C-69.619 770.215 -54.5714 838.779 91.4524 752C235.179 664.126 169.054 606.818 345.274 679.96C521.494 753.102 543.869 752.982 648.405 753.705C757 755.153 716.5 704.263 870.762 666.185C1025.02 628.107 1028.55 614.172 1109.98 689.341C1191.4 764.51 1147.67 722.82 1280.6 767.147C1413.52 811.474 1449.4 760.973 1574.83 717.258C1700.26 673.543 1714.69 634.346 1890.05 670.39C2065.4 706.434 2039.48 706.59 2147.93 755.153C2256.38 803.717 2370.19 886.105 2459.86 754.55C2549.52 622.996 2486.29 632.332 2617.64 571.567C2749 510.801 2896.62 475.405 2948.24 570.071C2999.86 664.737 2923.38 654.207 3067.95 705.265C3211.9 756.089 3336.56 712.254 3395.24 776.278C3451 842.493 3401.64 927.344 3567.17 923.282C3733.71 918.205 3792.67 938.1 3874.5 797.499C3956.33 656.897 3880.48 638.271 4063.55 614.569C4246.62 590.868 4341.81 618.886 4393.33 661.136C4444.86 703.386 4387.79 681.813 4486.71 802.548C4585.64 923.282 4565.43 931.187 4647.02 972.966C4724.96 1014.75 4781.52 972.45 4864.37 971.86C4947.23 971.269 4956.38 986.606 5086.19 920.618C5218.19 854.328 5194.93 865.202 5282.24 773.592C5368.18 681.68 5448.07 627.219 5558.05 628.107C5664.71 629.075 5723.98 633.127 5816.29 674.026C5909.76 715.38 5823.43 751.258 6004.26 693.735C6185.1 636.213 6239.62 635.94 6307.64 576.743C6375.67 517.545 6513.1 439.237 6590.07 503.311C6652.19 554.267 6725.63 606.441 6754.5 621.548C6785.12 658.551 6867.81 744.576 6954.69 770.06C7062.62 801.031 7069.79 815.586 7190.26 762.39C7310.74 709.194 7191.19 667.68 7403.02 689.824C7614.86 711.968 7562.24 717.127 7688.55 728.173C7814.86 739.219 7879.14 749.91 7951.71 711.968C8024.29 674.026 8067.74 638.358 8179.93 674.026C8292.12 709.693 8179.5 724.743 8255.64 767.566C8331.79 810.388 8391.86 834.286 8460.6 779.21C8529.33 724.134 8522.14 714.904 8581.74 656.539C8639.87 600.13 8716.65 527.712 8788.76 589.31C8860.87 650.909 8907.82 712.802 8992 649.302C9077.98 585.026 8999.38 556.593 9133.1 536.862C9266.81 517.132 9279.98 469.571 9335.76 541.911C9391.55 614.252 9409.93 622.135 9526.83 654.919C9643.74 687.704 9537.17 709.855 9744.07 730.448C9950.98 751.04 9836.09 724.745 9990.4 692.271C10144.7 659.796 10124.3 690.418 10232.2 725.571C10340.2 760.724 10389.5 769.633 10458 743.027C10526.5 716.421 10541 691.986 10712.8 714.818C10884.6 737.651 10910 735.497 11000.5 714.818C11091 694.14 11114.7 636.293 11234.6 676.934C11354.5 717.575 11343.5 767.376 11464.8 744.423C11586 721.47 11589.4 680.467 11660.1 680.467C11730.9 680.467 11719.3 684.042 11791.8 718.558C11864.3 753.073 11908.4 740.137 11962.2 753.073C12016.1 766.01 12049.4 780.111 12107.7 784.66C12166 789.209 12169.3 807.965 12247 743.027C12324.6 678.089 12358.1 680.294 12420.7 662.17" stroke="#EECDCC" stroke-width="3"/>
</svg>
