<svg width="85" height="73" viewBox="0 0 85 73" fill="none" xmlns="http://www.w3.org/2000/svg">
<g filter="url(#filter0_d_317_2470)">
<path d="M61.718 43.5093H25.4602L17 36.2577H53.2579L61.718 43.5093Z" fill="#75474A"/>
</g>
<rect width="36.2579" height="36.2579" transform="matrix(-1 0 0 1 53.2577 0)" fill="#8C5357"/>
<path d="M53.2577 0L61.7179 7.25157V43.5094L53.2577 36.2579V0Z" fill="#8C4D51"/>
<g filter="url(#filter1_d_317_2470)">
<path d="M61.718 7.25171H25.4602L17 0.000138283H53.2579L61.718 7.25171Z" fill="#FFDFDF"/>
</g>
<g filter="url(#filter2_d_317_2470)">
<path d="M17 0L25.4602 7.25157V43.5094L17 36.2579V0Z" fill="#E9C0C3"/>
</g>
<g filter="url(#filter3_d_317_2470)">
<path d="M42.8952 55.0258C46.6562 54.2772 41.8049 43.7677 45.566 42.3009C50.2549 40.4722 48.1158 50.8098 51.9218 51.2832C54.6914 51.6277 54.4493 40.697 49.6321 36.8622C45.871 33.8682 48.9129 26.5819 42.8952 27.3305C37.6617 27.9815 33.9204 39.8837 37.6297 42.3009C39.5203 43.533 39.1341 55.7743 42.8952 55.0258Z" fill="#FFFCFA"/>
</g>
<g filter="url(#filter4_d_317_2470)">
<path d="M32.7117 35.6535C35.0251 36.5789 37.1624 29.7619 42.6223 29.0254C49.0909 28.1528 50.2364 37.4664 52.7397 36.257C56.2238 34.5738 48.6652 24.7953 42.6223 24.191C36.5793 23.5867 29.6903 34.4449 32.7117 35.6535Z" fill="#FFFCFA"/>
</g>
<g filter="url(#filter5_d_317_2470)">
<circle r="5.43868" transform="matrix(-1 0 0 1 42.3272 20.007)" fill="#FFFCFA"/>
</g>
<path d="M5.58984 69.1211C5.34961 69.332 5.11523 69.5078 4.88672 69.6484C4.6582 69.7832 4.43262 69.8916 4.20996 69.9736C3.99316 70.0498 3.77637 70.1025 3.55957 70.1318C3.34277 70.1611 3.12305 70.1758 2.90039 70.1758C2.60156 70.1758 2.32324 70.1289 2.06543 70.0352C1.80762 69.9473 1.58496 69.8213 1.39746 69.6572C1.20996 69.4873 1.06055 69.2852 0.949219 69.0508C0.84375 68.8105 0.791016 68.5469 0.791016 68.2598C0.791016 67.4805 1.12207 66.874 1.78418 66.4404C2.45215 66.0068 3.45117 65.79 4.78125 65.79H5.58984C5.58984 65.4912 5.57227 65.2158 5.53711 64.9639C5.50195 64.7119 5.41992 64.4951 5.29102 64.3135C5.16211 64.126 4.97168 63.9795 4.71973 63.874C4.46777 63.7686 4.125 63.7158 3.69141 63.7158C3.05273 63.7158 2.57227 63.8154 2.25 64.0146C1.93359 64.2139 1.74609 64.5156 1.6875 64.9199H0.993164C1.06348 64.2754 1.31543 63.7979 1.74902 63.4873C2.18262 63.1709 2.82715 63.0127 3.68262 63.0127C4.15723 63.0127 4.55859 63.0713 4.88672 63.1885C5.2207 63.3057 5.49023 63.4756 5.69531 63.6982C5.90625 63.915 6.05859 64.1816 6.15234 64.498C6.24609 64.8086 6.29297 65.1602 6.29297 65.5527V70H5.58984V69.1211ZM5.58984 66.4932H4.52637C3.50684 66.4932 2.74512 66.6396 2.24121 66.9326C1.74316 67.2256 1.49414 67.6445 1.49414 68.1895C1.49414 68.5938 1.65234 68.9102 1.96875 69.1387C2.28516 69.3613 2.71875 69.4727 3.26953 69.4727C3.50977 69.4727 3.74121 69.4375 3.96387 69.3672C4.19238 69.291 4.40625 69.1943 4.60547 69.0771C4.80469 68.96 4.98633 68.8311 5.15039 68.6904C5.32031 68.5439 5.4668 68.4033 5.58984 68.2686V66.4932ZM11.3379 70.1758C10.8633 70.1758 10.4326 70.0967 10.0459 69.9385C9.65918 69.7744 9.3252 69.54 9.04395 69.2354C8.76855 68.9248 8.55469 68.5469 8.40234 68.1016C8.25 67.6562 8.17383 67.1494 8.17383 66.5811C8.17383 66.0303 8.24707 65.5352 8.39355 65.0957C8.54004 64.6504 8.74805 64.2754 9.01758 63.9707C9.28711 63.6602 9.60645 63.4229 9.97559 63.2588C10.3447 63.0947 10.7549 63.0127 11.2061 63.0127C11.6689 63.0127 12.0879 63.0947 12.4629 63.2588C12.8379 63.4229 13.1572 63.6602 13.4209 63.9707C13.6846 64.2754 13.8867 64.6504 14.0273 65.0957C14.168 65.5352 14.2383 66.0332 14.2383 66.5898V66.748H8.87695C8.91211 67.2109 8.99707 67.6123 9.13184 67.9521C9.2666 68.292 9.44238 68.5762 9.65918 68.8047C9.87598 69.0273 10.125 69.1943 10.4062 69.3057C10.6934 69.417 11.0039 69.4727 11.3379 69.4727C11.5723 69.4727 11.8066 69.4463 12.041 69.3936C12.2754 69.335 12.4863 69.25 12.6738 69.1387C12.8672 69.0273 13.0283 68.8896 13.1572 68.7256C13.2861 68.5615 13.3623 68.374 13.3857 68.1631H14.0801C14.0156 68.4854 13.9014 68.7725 13.7373 69.0244C13.5732 69.2705 13.3711 69.4814 13.1309 69.6572C12.8906 69.8271 12.6182 69.9561 12.3135 70.0439C12.0088 70.1318 11.6836 70.1758 11.3379 70.1758ZM13.5264 66.0449C13.4092 65.2656 13.1426 64.6826 12.7266 64.2959C12.3164 63.9092 11.8096 63.7158 11.2061 63.7158C10.9072 63.7158 10.6289 63.7627 10.3711 63.8564C10.1133 63.9502 9.88184 64.0938 9.67676 64.2871C9.47754 64.4805 9.30762 64.7236 9.16699 65.0166C9.03223 65.3096 8.93555 65.6523 8.87695 66.0449H13.5264ZM18.334 70.1758C16.6641 70.1758 15.7529 69.5049 15.6006 68.1631H16.3125C16.3652 68.5732 16.5527 68.8955 16.875 69.1299C17.2031 69.3584 17.6865 69.4727 18.3252 69.4727C18.6357 69.4727 18.9082 69.4404 19.1426 69.376C19.377 69.3057 19.5703 69.2148 19.7227 69.1035C19.8809 68.9863 19.998 68.8486 20.0742 68.6904C20.1504 68.5322 20.1885 68.3623 20.1885 68.1807C20.1885 67.999 20.1562 67.8438 20.0918 67.7148C20.0332 67.5859 19.9219 67.4688 19.7578 67.3633C19.5996 67.2578 19.3799 67.1582 19.0986 67.0645C18.8232 66.9648 18.4688 66.8594 18.0352 66.748C17.666 66.6543 17.3379 66.5576 17.0508 66.458C16.7637 66.3584 16.5205 66.2354 16.3213 66.0889C16.1279 65.9424 15.9814 65.7666 15.8818 65.5615C15.7822 65.3506 15.7324 65.0898 15.7324 64.7793C15.7324 64.5098 15.7881 64.2666 15.8994 64.0498C16.0166 63.8271 16.1777 63.6396 16.3828 63.4873C16.5879 63.335 16.8369 63.2178 17.1299 63.1357C17.4229 63.0537 17.748 63.0127 18.1055 63.0127C18.9141 63.0127 19.5264 63.1504 19.9424 63.4258C20.3643 63.6953 20.5986 64.123 20.6455 64.709H19.9336C19.8867 64.3691 19.7227 64.1201 19.4414 63.9619C19.166 63.7979 18.7529 63.7158 18.2021 63.7158C17.9443 63.7158 17.707 63.7393 17.4902 63.7861C17.2734 63.833 17.0859 63.9033 16.9277 63.9971C16.7754 64.085 16.6553 64.1992 16.5674 64.3398C16.4795 64.4746 16.4355 64.6299 16.4355 64.8057C16.4355 64.9053 16.4531 65.0078 16.4883 65.1133C16.5234 65.2188 16.6113 65.3271 16.752 65.4385C16.8984 65.5498 17.1152 65.6641 17.4023 65.7812C17.6895 65.8926 18.082 66.0098 18.5801 66.1328C18.9727 66.2324 19.3125 66.3379 19.5996 66.4492C19.8926 66.5547 20.1328 66.6836 20.3203 66.8359C20.5137 66.9824 20.6572 67.1553 20.751 67.3545C20.8447 67.5537 20.8916 67.7881 20.8916 68.0576C20.8916 68.3564 20.8301 68.6377 20.707 68.9014C20.5898 69.1592 20.4199 69.3818 20.1973 69.5693C19.9805 69.7568 19.7139 69.9033 19.3975 70.0088C19.0811 70.1201 18.7266 70.1758 18.334 70.1758ZM25.0049 70.0615C24.9053 70.0732 24.8057 70.082 24.7061 70.0879C24.6064 70.0938 24.5068 70.0967 24.4072 70.0967C24.1025 70.0967 23.8564 70.0557 23.6689 69.9736C23.4873 69.8857 23.3467 69.7568 23.2471 69.5869C23.1533 69.417 23.0918 69.2061 23.0625 68.9541C23.0332 68.6963 23.0186 68.3975 23.0186 68.0576V63.8916H22.1484V63.1885H23.0186V61.4043H23.7217V63.1885H24.8379V63.8916H23.7217V68.1191C23.7217 68.4004 23.7422 68.626 23.7832 68.7959C23.8242 68.96 23.8857 69.0889 23.9678 69.1826C24.0498 69.2705 24.1494 69.3291 24.2666 69.3584C24.3896 69.3818 24.5273 69.3936 24.6797 69.3936C24.7441 69.3936 24.7998 69.3936 24.8467 69.3936C24.8936 69.3936 24.9463 69.3906 25.0049 69.3848V70.0615ZM27.2549 64.1992C27.4775 63.9473 27.6943 63.7422 27.9053 63.584C28.1221 63.4258 28.3301 63.3057 28.5293 63.2236C28.7344 63.1416 28.9277 63.0859 29.1094 63.0566C29.2969 63.0273 29.4727 63.0127 29.6367 63.0127C31.0371 63.0127 31.7373 63.8389 31.7373 65.4912V70H31.0342V65.5527C31.0342 65.2363 31.0049 64.9639 30.9463 64.7354C30.8936 64.501 30.8027 64.3105 30.6738 64.1641C30.5508 64.0117 30.3867 63.9004 30.1816 63.8301C29.9824 63.7539 29.7363 63.7158 29.4434 63.7158C29.0566 63.7158 28.6846 63.8301 28.3271 64.0586C27.9756 64.2871 27.6182 64.6094 27.2549 65.0254V70H26.5518V60.376H27.2549V64.1992ZM36.7383 70.1758C36.2637 70.1758 35.833 70.0967 35.4463 69.9385C35.0596 69.7744 34.7256 69.54 34.4443 69.2354C34.1689 68.9248 33.9551 68.5469 33.8027 68.1016C33.6504 67.6562 33.5742 67.1494 33.5742 66.5811C33.5742 66.0303 33.6475 65.5352 33.7939 65.0957C33.9404 64.6504 34.1484 64.2754 34.418 63.9707C34.6875 63.6602 35.0068 63.4229 35.376 63.2588C35.7451 63.0947 36.1553 63.0127 36.6064 63.0127C37.0693 63.0127 37.4883 63.0947 37.8633 63.2588C38.2383 63.4229 38.5576 63.6602 38.8213 63.9707C39.085 64.2754 39.2871 64.6504 39.4277 65.0957C39.5684 65.5352 39.6387 66.0332 39.6387 66.5898V66.748H34.2773C34.3125 67.2109 34.3975 67.6123 34.5322 67.9521C34.667 68.292 34.8428 68.5762 35.0596 68.8047C35.2764 69.0273 35.5254 69.1943 35.8066 69.3057C36.0938 69.417 36.4043 69.4727 36.7383 69.4727C36.9727 69.4727 37.207 69.4463 37.4414 69.3936C37.6758 69.335 37.8867 69.25 38.0742 69.1387C38.2676 69.0273 38.4287 68.8896 38.5576 68.7256C38.6865 68.5615 38.7627 68.374 38.7861 68.1631H39.4805C39.416 68.4854 39.3018 68.7725 39.1377 69.0244C38.9736 69.2705 38.7715 69.4814 38.5312 69.6572C38.291 69.8271 38.0186 69.9561 37.7139 70.0439C37.4092 70.1318 37.084 70.1758 36.7383 70.1758ZM38.9268 66.0449C38.8096 65.2656 38.543 64.6826 38.127 64.2959C37.7168 63.9092 37.21 63.7158 36.6064 63.7158C36.3076 63.7158 36.0293 63.7627 35.7715 63.8564C35.5137 63.9502 35.2822 64.0938 35.0771 64.2871C34.8779 64.4805 34.708 64.7236 34.5674 65.0166C34.4326 65.3096 34.3359 65.6523 34.2773 66.0449H38.9268ZM42.1436 64.1992C42.3721 63.9297 42.5947 63.7158 42.8115 63.5576C43.0342 63.3994 43.248 63.2793 43.4531 63.1973C43.6641 63.1152 43.8633 63.0654 44.0508 63.0479C44.2383 63.0244 44.4141 63.0127 44.5781 63.0127C45.9785 63.0127 46.6787 63.8389 46.6787 65.4912V70H45.9756V65.5527C45.9756 65.2363 45.9463 64.9639 45.8877 64.7354C45.835 64.501 45.7441 64.3105 45.6152 64.1641C45.4922 64.0117 45.3281 63.9004 45.123 63.8301C44.9238 63.7539 44.6777 63.7158 44.3848 63.7158C43.998 63.7158 43.6172 63.8301 43.2422 64.0586C42.873 64.2871 42.5068 64.6094 42.1436 65.0254V70H41.4404V63.1885H42.1436V64.1992ZM49.7197 70H49.0166V63.1885H49.7197V70ZM49.7285 61.4746H49.0254V60.376H49.7285V61.4746ZM57.1992 70H56.3203L53.8418 66.1592L52.7256 67.249V70H52.0225V60.376H52.7256V66.3613L55.9951 63.1709H56.9092L54.3252 65.6846L57.1992 70ZM63.1758 69.1211C62.9355 69.332 62.7012 69.5078 62.4727 69.6484C62.2441 69.7832 62.0186 69.8916 61.7959 69.9736C61.5791 70.0498 61.3623 70.1025 61.1455 70.1318C60.9287 70.1611 60.709 70.1758 60.4863 70.1758C60.1875 70.1758 59.9092 70.1289 59.6514 70.0352C59.3936 69.9473 59.1709 69.8213 58.9834 69.6572C58.7959 69.4873 58.6465 69.2852 58.5352 69.0508C58.4297 68.8105 58.377 68.5469 58.377 68.2598C58.377 67.4805 58.708 66.874 59.3701 66.4404C60.0381 66.0068 61.0371 65.79 62.3672 65.79H63.1758C63.1758 65.4912 63.1582 65.2158 63.123 64.9639C63.0879 64.7119 63.0059 64.4951 62.877 64.3135C62.748 64.126 62.5576 63.9795 62.3057 63.874C62.0537 63.7686 61.7109 63.7158 61.2773 63.7158C60.6387 63.7158 60.1582 63.8154 59.8359 64.0146C59.5195 64.2139 59.332 64.5156 59.2734 64.9199H58.5791C58.6494 64.2754 58.9014 63.7979 59.335 63.4873C59.7686 63.1709 60.4131 63.0127 61.2686 63.0127C61.7432 63.0127 62.1445 63.0713 62.4727 63.1885C62.8066 63.3057 63.0762 63.4756 63.2812 63.6982C63.4922 63.915 63.6445 64.1816 63.7383 64.498C63.832 64.8086 63.8789 65.1602 63.8789 65.5527V70H63.1758V69.1211ZM63.1758 66.4932H62.1123C61.0928 66.4932 60.3311 66.6396 59.8271 66.9326C59.3291 67.2256 59.0801 67.6445 59.0801 68.1895C59.0801 68.5938 59.2383 68.9102 59.5547 69.1387C59.8711 69.3613 60.3047 69.4727 60.8555 69.4727C61.0957 69.4727 61.3271 69.4375 61.5498 69.3672C61.7783 69.291 61.9922 69.1943 62.1914 69.0771C62.3906 68.96 62.5723 68.8311 62.7363 68.6904C62.9062 68.5439 63.0527 68.4033 63.1758 68.2686V66.4932ZM72.6504 67.2578C72.6504 67.6914 72.5742 68.0898 72.4219 68.4531C72.2695 68.8105 72.0586 69.1182 71.7891 69.376C71.5254 69.6279 71.209 69.8242 70.8398 69.9648C70.4707 70.1055 70.0723 70.1758 69.6445 70.1758C69.2227 70.1758 68.8359 70.1172 68.4844 70C68.1387 69.8887 67.8369 69.7275 67.5791 69.5166C67.3271 69.3057 67.1221 69.0508 66.9639 68.752C66.8115 68.4531 66.7178 68.1162 66.6826 67.7412H67.3857C67.4033 67.9873 67.4707 68.2188 67.5879 68.4355C67.7109 68.6465 67.8691 68.8281 68.0625 68.9805C68.2617 69.1328 68.4961 69.2529 68.7656 69.3408C69.0352 69.4287 69.3281 69.4727 69.6445 69.4727C69.9727 69.4727 70.2773 69.4199 70.5586 69.3145C70.8398 69.209 71.083 69.0625 71.2881 68.875C71.499 68.6816 71.6631 68.4531 71.7803 68.1895C71.8975 67.9199 71.9561 67.6211 71.9561 67.293C71.9561 66.9531 71.8945 66.6543 71.7715 66.3965C71.6543 66.1328 71.4873 65.9131 71.2705 65.7373C71.0537 65.5615 70.79 65.4297 70.4795 65.3418C70.1689 65.2539 69.8262 65.21 69.4512 65.21H69.1436V64.5068H69.2402C69.9199 64.5068 70.459 64.3545 70.8574 64.0498C71.2559 63.7451 71.4551 63.2822 71.4551 62.6611C71.4551 62.3799 71.4082 62.1309 71.3145 61.9141C71.2207 61.6914 71.0889 61.5068 70.9189 61.3604C70.749 61.208 70.5469 61.0938 70.3125 61.0176C70.084 60.9414 69.832 60.9033 69.5566 60.9033C69.0176 60.9033 68.5635 61.0352 68.1943 61.2988C67.8252 61.5566 67.5996 61.9521 67.5176 62.4854H66.8232C66.8877 62.1279 66.999 61.8086 67.1572 61.5273C67.3154 61.2402 67.5117 61 67.7461 60.8066C67.9805 60.6074 68.2471 60.458 68.5459 60.3584C68.8506 60.2529 69.1787 60.2002 69.5303 60.2002C69.9404 60.2002 70.3066 60.2646 70.6289 60.3936C70.9512 60.5225 71.2236 60.6982 71.4463 60.9209C71.6748 61.1436 71.8477 61.4072 71.9648 61.7119C72.0879 62.0107 72.1494 62.3359 72.1494 62.6875C72.1494 62.875 72.1289 63.0713 72.0879 63.2764C72.0527 63.4814 71.9883 63.6777 71.8945 63.8652C71.8066 64.0469 71.6865 64.2139 71.5342 64.3662C71.3818 64.5186 71.1943 64.6357 70.9717 64.7178C71.2412 64.8174 71.4785 64.9521 71.6836 65.1221C71.8945 65.292 72.0703 65.4883 72.2109 65.7109C72.3574 65.9336 72.4658 66.1768 72.5361 66.4404C72.6123 66.7041 72.6504 66.9766 72.6504 67.2578ZM83.3027 65.1133C83.3027 68.3711 81.6826 70 78.4424 70H75.5332V60.3848H78.4424C80.0654 60.3848 81.2812 60.7773 82.0898 61.5625C82.8984 62.3418 83.3027 63.5254 83.3027 65.1133ZM82.5557 65.1133C82.5557 64.4805 82.4912 63.915 82.3623 63.417C82.2393 62.9189 82.0195 62.4971 81.7031 62.1514C81.3867 61.7998 80.9619 61.5332 80.4287 61.3516C79.9014 61.1699 79.2334 61.0791 78.4248 61.0791H76.2363V69.2969H78.4248C79.2275 69.2969 79.8926 69.2031 80.4199 69.0156C80.9531 68.8281 81.3779 68.5557 81.6943 68.1982C82.0107 67.835 82.2334 67.3955 82.3623 66.8799C82.4912 66.3643 82.5557 65.7754 82.5557 65.1133Z" fill="#75474A"/>
<defs>
<filter id="filter0_d_317_2470" x="13.7617" y="36.2578" width="51.1946" height="13.7281" filterUnits="userSpaceOnUse" color-interpolation-filters="sRGB">
<feFlood flood-opacity="0" result="BackgroundImageFix"/>
<feColorMatrix in="SourceAlpha" type="matrix" values="0 0 0 0 0 0 0 0 0 0 0 0 0 0 0 0 0 0 127 0" result="hardAlpha"/>
<feOffset dy="3.2383"/>
<feGaussianBlur stdDeviation="1.61915"/>
<feComposite in2="hardAlpha" operator="out"/>
<feColorMatrix type="matrix" values="0 0 0 0 0 0 0 0 0 0 0 0 0 0 0 0 0 0 0.22 0"/>
<feBlend mode="normal" in2="BackgroundImageFix" result="effect1_dropShadow_317_2470"/>
<feBlend mode="normal" in="SourceGraphic" in2="effect1_dropShadow_317_2470" result="shape"/>
</filter>
<filter id="filter1_d_317_2470" x="13.7617" y="0.000244141" width="51.1946" height="13.7281" filterUnits="userSpaceOnUse" color-interpolation-filters="sRGB">
<feFlood flood-opacity="0" result="BackgroundImageFix"/>
<feColorMatrix in="SourceAlpha" type="matrix" values="0 0 0 0 0 0 0 0 0 0 0 0 0 0 0 0 0 0 127 0" result="hardAlpha"/>
<feOffset dy="3.2383"/>
<feGaussianBlur stdDeviation="1.61915"/>
<feComposite in2="hardAlpha" operator="out"/>
<feColorMatrix type="matrix" values="0 0 0 0 0 0 0 0 0 0 0 0 0 0 0 0 0 0 0.25 0"/>
<feBlend mode="normal" in2="BackgroundImageFix" result="effect1_dropShadow_317_2470"/>
<feBlend mode="normal" in="SourceGraphic" in2="effect1_dropShadow_317_2470" result="shape"/>
</filter>
<filter id="filter2_d_317_2470" x="12.1425" y="0" width="14.9368" height="50.7957" filterUnits="userSpaceOnUse" color-interpolation-filters="sRGB">
<feFlood flood-opacity="0" result="BackgroundImageFix"/>
<feColorMatrix in="SourceAlpha" type="matrix" values="0 0 0 0 0 0 0 0 0 0 0 0 0 0 0 0 0 0 127 0" result="hardAlpha"/>
<feOffset dx="-1.61915" dy="4.04788"/>
<feGaussianBlur stdDeviation="1.61915"/>
<feComposite in2="hardAlpha" operator="out"/>
<feColorMatrix type="matrix" values="0 0 0 0 0 0 0 0 0 0 0 0 0 0 0 0 0 0 0.09 0"/>
<feBlend mode="normal" in2="BackgroundImageFix" result="effect1_dropShadow_317_2470"/>
<feBlend mode="normal" in="SourceGraphic" in2="effect1_dropShadow_317_2470" result="shape"/>
</filter>
<filter id="filter3_d_317_2470" x="33.1117" y="27.2769" width="23.6143" height="33.8297" filterUnits="userSpaceOnUse" color-interpolation-filters="sRGB">
<feFlood flood-opacity="0" result="BackgroundImageFix"/>
<feColorMatrix in="SourceAlpha" type="matrix" values="0 0 0 0 0 0 0 0 0 0 0 0 0 0 0 0 0 0 127 0" result="hardAlpha"/>
<feOffset dy="3.02384"/>
<feGaussianBlur stdDeviation="1.51192"/>
<feComposite in2="hardAlpha" operator="out"/>
<feColorMatrix type="matrix" values="0 0 0 0 0.0986112 0 0 0 0 0 0 0 0 0 0.00643118 0 0 0 0.15 0"/>
<feBlend mode="normal" in2="BackgroundImageFix" result="effect1_dropShadow_317_2470"/>
<feBlend mode="normal" in="SourceGraphic" in2="effect1_dropShadow_317_2470" result="shape"/>
</filter>
<filter id="filter4_d_317_2470" x="28.9532" y="24.1667" width="27.6922" height="18.2464" filterUnits="userSpaceOnUse" color-interpolation-filters="sRGB">
<feFlood flood-opacity="0" result="BackgroundImageFix"/>
<feColorMatrix in="SourceAlpha" type="matrix" values="0 0 0 0 0 0 0 0 0 0 0 0 0 0 0 0 0 0 127 0" result="hardAlpha"/>
<feOffset dy="3.02384"/>
<feGaussianBlur stdDeviation="1.51192"/>
<feComposite in2="hardAlpha" operator="out"/>
<feColorMatrix type="matrix" values="0 0 0 0 0.0986112 0 0 0 0 0 0 0 0 0 0.00643118 0 0 0 0.15 0"/>
<feBlend mode="normal" in2="BackgroundImageFix" result="effect1_dropShadow_317_2470"/>
<feBlend mode="normal" in="SourceGraphic" in2="effect1_dropShadow_317_2470" result="shape"/>
</filter>
<filter id="filter5_d_317_2470" x="33.8647" y="14.5684" width="16.925" height="16.9251" filterUnits="userSpaceOnUse" color-interpolation-filters="sRGB">
<feFlood flood-opacity="0" result="BackgroundImageFix"/>
<feColorMatrix in="SourceAlpha" type="matrix" values="0 0 0 0 0 0 0 0 0 0 0 0 0 0 0 0 0 0 127 0" result="hardAlpha"/>
<feOffset dy="3.02384"/>
<feGaussianBlur stdDeviation="1.51192"/>
<feComposite in2="hardAlpha" operator="out"/>
<feColorMatrix type="matrix" values="0 0 0 0 0.0986112 0 0 0 0 0 0 0 0 0 0.00643118 0 0 0 0.15 0"/>
<feBlend mode="normal" in2="BackgroundImageFix" result="effect1_dropShadow_317_2470"/>
<feBlend mode="normal" in="SourceGraphic" in2="effect1_dropShadow_317_2470" result="shape"/>
</filter>
</defs>
</svg>
